<?xml version="1.0" encoding="UTF-8" standalone="no"?>
<!DOCTYPE svg PUBLIC "-//W3C//DTD SVG 1.1//EN" "http://www.w3.org/Graphics/SVG/1.1/DTD/svg11.dtd">
<svg width="100%" height="100%" viewBox="0 0 89 90" version="1.1" xmlns="http://www.w3.org/2000/svg" xmlns:xlink="http://www.w3.org/1999/xlink" xml:space="preserve" xmlns:serif="http://www.serif.com/" style="fill-rule:evenodd;clip-rule:evenodd;stroke-linejoin:round;stroke-miterlimit:2;">
    <g id="Artboard1" transform="matrix(1,0,0,1,-224,-142)">
        <rect x="224" y="142" width="89" height="90" style="fill:none;"/>
        <g transform="matrix(0.506013,0,0,0.506013,229.6,148.6)">
            <g id="PathID_31">
                <path d="M150,75C150,95.7 142.65,113.35 127.95,127.95C113.35,142.65 95.7,150 75,150C54.333,150 36.65,142.65 21.95,127.95C7.317,113.35 0,95.7 0,75C0,54.3 7.317,36.6 21.95,21.9C36.65,7.3 54.333,0 75,0C95.7,0 113.35,7.3 127.95,21.9C142.65,36.6 150,54.3 150,75" style="fill:rgb(0,5,92);fill-rule:nonzero;"/>
            </g>
        </g>
        <g transform="matrix(0.460267,0,0,0.460267,233.1,150.2)">
            <g id="PathID_33">
                <path d="M150,75C150,95.7 142.65,113.35 127.95,127.95C113.35,142.65 95.7,150 75,150C54.333,150 36.65,142.65 21.95,127.95C7.317,113.35 0,95.7 0,75C0,54.3 7.317,36.6 21.95,21.9C36.65,7.3 54.333,0 75,0C95.7,0 113.35,7.3 127.95,21.9C142.65,36.6 150,54.3 150,75" style="fill:rgb(67,153,255);fill-rule:nonzero;"/>
            </g>
        </g>
        <g transform="matrix(0.335432,0,0,0.316889,241.9,151.1)">
            <g id="PathID_35">
                <path d="M150,75C150,95.7 142.65,113.35 127.95,127.95C113.35,142.65 95.7,150 75,150C54.333,150 36.65,142.65 21.95,127.95C7.317,113.35 0,95.7 0,75C0,54.3 7.317,36.6 21.95,21.9C36.65,7.3 54.333,0 75,0C95.7,0 113.35,7.3 127.95,21.9C142.65,36.6 150,54.3 150,75" style="fill:url(#_Linear1);fill-rule:nonzero;"/>
            </g>
        </g>
        <g transform="matrix(-0.37925,5.72652e-08,0,0.37925,298.65,169.75)">
            <g id="PathID_37">
                <path d="M121.35,24.5C114.783,21.9 107.85,20.6 100.55,20.6C85.417,20.6 72.517,25.95 61.85,36.65C51.15,47.35 45.8,60.25 45.8,75.35C45.8,87.55 49.467,98.55 56.8,108.35C63.967,117.783 73.283,124.267 84.75,127.8C79.25,123.533 74.967,118.267 71.9,112C68.7,105.567 67.1,98.767 67.1,91.6C67.1,79.1 71.6,68.333 80.6,59.3C89.6,50.3 100.367,45.8 112.9,45.8C127.233,45.8 138.917,51.3 147.95,62.3C143.817,60.467 139.233,59.55 134.2,59.55C124.133,59.55 115.5,63.133 108.3,70.3C101.133,77.333 97.55,85.883 97.55,95.95C97.55,108.017 102.367,117.717 112,125.05C110.3,121.983 109.45,118.467 109.45,114.5C109.45,108.233 111.667,102.817 116.1,98.25C120.667,93.817 126.083,91.6 132.35,91.6C139.383,91.6 145.267,94.35 150,99.85C147.7,98.95 145.4,98.5 143.1,98.5C137.933,98.5 133.583,100.317 130.05,103.95C126.55,107.483 124.8,111.767 124.8,116.8C124.8,122.767 127.083,127.5 131.65,131L39.6,131C27.7,125.5 18.167,117.25 11,106.25C3.667,94.817 0,82.3 0,68.7C0,49.767 6.717,33.583 20.15,20.15C33.583,6.717 49.767,0 68.7,0C79.067,0 88.917,2.217 98.25,6.65C107.25,10.917 114.95,16.867 121.35,24.5" style="fill:rgb(0,5,92);fill-rule:nonzero;"/>
            </g>
        </g>
    </g>
    <g id="PathID_39">
    </g>
    <g id="PathID_41">
    </g>
    <g id="PathID_43">
    </g>
    <g id="PathID_45">
    </g>
    <g id="PathID_47">
    </g>
    <g id="PathID_49">
    </g>
    <g id="PathID_51">
    </g>
    <g id="PathID_53">
    </g>
    <g id="PathID_55">
    </g>
    <g id="PathID_57">
    </g>
    <g id="PathID_59">
    </g>
    <defs>
        <linearGradient id="_Linear1" x1="0" y1="0" x2="1" y2="0" gradientUnits="userSpaceOnUse" gradientTransform="matrix(-6.55671e-06,-150,150,-6.55671e-06,75,150)"><stop offset="0" style="stop-color:white;stop-opacity:0"/><stop offset="0.32" style="stop-color:white;stop-opacity:0"/><stop offset="1" style="stop-color:white;stop-opacity:1"/></linearGradient>
    </defs>
</svg>
