<?xml version="1.0" encoding="UTF-8" standalone="no"?>
<!DOCTYPE svg PUBLIC "-//W3C//DTD SVG 1.1//EN" "http://www.w3.org/Graphics/SVG/1.1/DTD/svg11.dtd">
<svg width="100%" height="100%" viewBox="0 0 24 16" version="1.1" xmlns="http://www.w3.org/2000/svg" xmlns:xlink="http://www.w3.org/1999/xlink" xml:space="preserve" xmlns:serif="http://www.serif.com/" style="fill-rule:evenodd;clip-rule:evenodd;stroke-linejoin:round;stroke-miterlimit:2;">
    <g>
        <path d="M24,2C24,0.896 23.104,0 22,0L2,0C0.896,0 0,0.896 0,2L0,14C0,15.104 0.896,16 2,16L22,16C23.104,16 24,15.104 24,14L24,2Z" style="fill:rgb(1,111,208);"/>
        <path d="M13.764,13.394L13.764,7.692L23.912,7.702L23.912,9.276L22.739,10.53L23.912,11.795L23.912,13.403L22.039,13.403L21.044,12.305L20.056,13.407L13.764,13.394Z" style="fill:rgb(255,255,254);"/>
        <path d="M14.442,12.769L14.442,8.32L18.214,8.32L18.214,9.345L15.663,9.345L15.663,10.04L18.153,10.04L18.153,11.048L15.663,11.048L15.663,11.732L18.214,11.732L18.214,12.769L14.442,12.769Z" style="fill:rgb(1,111,208);"/>
        <path d="M18.195,12.769L20.283,10.542L18.195,8.32L19.811,8.32L21.086,9.73L22.365,8.32L23.912,8.32L23.912,8.355L21.869,10.542L23.912,12.706L23.912,12.769L22.35,12.769L21.052,11.345L19.767,12.769L18.195,12.769Z" style="fill:rgb(1,111,208);"/>
        <path d="M14.237,2.632L16.683,2.632L17.543,4.583L17.543,2.632L20.562,2.632L21.083,4.094L21.606,2.632L23.912,2.632L23.912,8.333L11.725,8.333L14.237,2.632Z" style="fill:rgb(255,255,254);"/>
        <g>
            <path d="M14.7,3.251L12.726,7.697L14.08,7.697L14.453,6.806L16.471,6.806L16.843,7.697L18.23,7.697L16.265,3.251L14.7,3.251ZM14.87,5.809L15.462,4.394L16.054,5.809L14.87,5.809Z" style="fill:rgb(1,111,208);"/>
            <path d="M18.212,7.696L18.212,3.251L20.115,3.257L21.094,5.99L22.08,3.251L23.912,3.251L23.912,7.696L22.733,7.706L22.733,4.653L21.62,7.696L20.545,7.696L19.409,4.642L19.409,7.696L18.212,7.696Z" style="fill:rgb(1,111,208);"/>
        </g>
    </g>
</svg>
