<?xml version="1.0" encoding="UTF-8" standalone="no"?><!DOCTYPE svg PUBLIC "-//W3C//DTD SVG 1.1//EN" "http://www.w3.org/Graphics/SVG/1.1/DTD/svg11.dtd"><svg width="100%" height="100%" viewBox="0 0 6397 5687" version="1.1" xmlns="http://www.w3.org/2000/svg" xmlns:xlink="http://www.w3.org/1999/xlink" xml:space="preserve" xmlns:serif="http://www.serif.com/" style="fill-rule:evenodd;clip-rule:evenodd;stroke-linejoin:round;stroke-miterlimit:2;"><rect id="Artboard1" x="0" y="0" width="6397" height="5687" style="fill:none;"/><g><path d="M3430.69,2410.76l1668.95,-0.001c117.383,-166.249 186.366,-369.112 186.366,-588.104c0,-563.796 -457.045,-1020.84 -1020.84,-1020.84c-563.796,-0 -1020.84,457.045 -1020.84,1020.84c0,218.992 68.983,421.854 186.367,588.104Z" style="fill:#ffc839;fill-rule:nonzero;"/><path d="M5080.28,2363.74c-63.488,-126.971 -174.913,-162.425 -225.679,-172.175c-0,-0 -129.846,-23.705 -244.571,-70.35c-3.529,11.279 -11.221,21.287 -22.504,27.37c-78.267,42.2 -183.834,76.821 -319.579,76.821c-27.646,0 -53.975,-1.5 -79.142,-4.146c0.65,1.463 1.267,2.917 1.954,4.392c-27.942,3.534 -117.429,17.133 -205.9,55.088c-141.754,60.8 -216.683,156.058 -216.683,275.475l-0,158.291c147.079,82.15 316.558,128.992 496.996,128.992c344.804,0 649.654,-170.971 834.475,-432.738c-5.834,-17.045 -12.263,-32.812 -19.367,-47.02Z" style="fill:#72aafc;fill-rule:nonzero;"/><path d="M3925.18,2119.22c-115.887,47.966 -249.445,72.35 -249.445,72.35c-50.771,9.75 -162.192,45.204 -225.68,172.175c-7.104,14.208 -13.529,29.975 -19.366,47.02c89.475,126.725 207.079,232.167 343.729,307.238l-0,-161.783c-0,-285.467 425.791,-325.367 425.791,-325.367c-1.499,-2.983 -2.887,-5.912 -4.224,-8.817c-101.771,-9.662 -183.825,-39.041 -247.688,-73.491c-11.933,-6.442 -19.9,-17.246 -23.117,-29.325Z" style="fill:#548bed;fill-rule:nonzero;"/><path d="M4616.24,2085.65l-80.009,-128.508c-11.258,-18.083 -32.9,-26.671 -53.558,-21.475c-62.446,15.712 -135.738,27.575 -214.733,27.575c-8.234,-0 -16.388,-0.159 -24.492,-0.409l0,68.363c-12.075,5.983 -48.854,27.229 -65.029,70.771c-13.329,35.887 -9.179,77.458 12.329,123.679c-4.296,0.542 -10.058,1.325 -17.033,2.4c29.712,3.629 61.066,5.688 94.221,5.688c140.237,-0.001 249.295,-35.763 330.149,-79.359c24.75,-13.342 33.013,-44.858 18.155,-68.725Z" style="fill:#548bed;fill-rule:nonzero;"/><path d="M4053.16,1935.63c-20.662,-5.204 -42.308,3.384 -53.57,21.471l-80,128.5c-14.859,23.867 -6.6,55.375 18.145,68.725c67.334,36.321 154.296,67.129 262.45,76.45c-72.745,-144.808 49.517,-195.592 49.517,-195.592l0,-72.175c-72.037,-1.649 -138.908,-12.862 -196.542,-27.379Z" style="fill:#3e7fdd;fill-rule:nonzero;"/><g><path d="M4634.6,1887.74c-28.121,-98.492 -39.779,-175.38 -42.304,-234.792c-21.359,77.071 -49.271,145.312 -83.271,203.492c-19.617,33.575 -43.967,63.641 -72.246,89.695c-42.246,246.463 36.75,432.125 98.917,533.584c13.1,21.379 48.008,12.412 47.671,-12.275c-2.796,-204.325 126.954,-314.5 51.233,-579.704Z" style="fill:#45304c;fill-rule:nonzero;"/></g><path d="M4267.9,874.25c65.525,-0 121.112,12.612 167.904,32.046c1.321,-8.542 2.017,-17.296 2.017,-26.209c-0.004,-93.845 -76.079,-169.92 -169.921,-169.92c-93.842,-0 -169.921,76.075 -169.921,169.92c0,8.913 0.696,17.663 2.017,26.209c46.791,-19.434 102.379,-32.046 167.904,-32.046Z" style="fill:#56415e;fill-rule:nonzero;"/><path d="M4267.9,838.25c-66.783,-66.783 -0,-128.083 -0,-128.083c-93.842,-0 -169.921,76.075 -169.921,169.92c0,8.913 0.696,17.663 2.017,26.209c46.791,-19.434 102.379,-32.042 167.904,-32.042l-0,-36.004Z" style="fill:#45304c;fill-rule:nonzero;"/><g><path d="M4070.3,930.987c52.429,-27.05 117.625,-45.82 197.596,-45.82c79.971,-0 145.166,18.77 197.596,45.825c9.312,4.804 18.3,10.029 27.016,15.575c-52.625,-65.984 -133.654,-108.317 -224.612,-108.317c-90.958,-0 -171.988,42.329 -224.613,108.312c8.713,-5.545 17.705,-10.77 27.017,-15.575Z" style="fill:#d3dcfb;fill-rule:nonzero;"/></g><path d="M3935.83,1405.31c4.755,-15.554 11.259,-29.02 20.054,-38.933c7.917,-8.921 12.884,-19.958 13.238,-31.767c2.058,-68.979 28.571,-292.462 283.183,-194.858c10.005,3.833 21.171,3.833 31.175,0c254.613,-97.604 281.125,125.879 283.184,194.858c0.354,11.809 5.32,22.846 13.237,31.767c8.796,9.913 15.3,23.379 20.054,38.933l0,-0.004c12.9,-8.6 32.93,-14.529 51.029,-14.104l0.005,-0.054l-0,-167.421c-0,-126.871 -70.725,-244.45 -185.5,-303.662c-52.43,-27.05 -117.625,-45.821 -197.596,-45.821c-79.971,-0 -145.167,18.771 -197.596,45.821c-114.775,59.212 -185.5,176.791 -185.5,303.662l-0,167.421l0.004,0.054c18.1,-0.421 38.129,5.508 51.029,14.108Z" style="fill:#56415e;fill-rule:nonzero;"/><path d="M4267.9,874.25c-79.971,-0 -145.167,18.771 -197.596,45.821c-114.775,59.212 -185.5,176.791 -185.5,303.662l0,167.421l0.004,0.054c18.104,-0.425 38.129,5.509 51.029,14.104c4.755,-15.554 11.259,-29.02 20.055,-38.933c7.916,-8.921 12.883,-19.958 13.237,-31.767c2.021,-67.654 27.592,-283.904 268.804,-200.087c-1.008,-1.317 -1.975,-2.642 -3.066,-3.942c-113.175,-134.708 33.033,-256.333 33.033,-256.333Z" style="fill:#45304c;fill-rule:nonzero;"/><path d="M3932.68,1604.22c0,-0 -20.779,-131.505 3.154,-209.821c-21.716,-14.475 -63.671,-21.542 -82.537,-3.096c-38.633,37.767 -10.325,94.8 3.221,130.825c4.158,11.062 6.841,22.25 8.054,33.458c2.637,24.354 15.841,60 70.592,59.163c-0.83,-3.509 -1.676,-6.963 -2.484,-10.529Z" style="fill:#fc9460;fill-rule:nonzero;"/><path d="M4682.5,1391.3c-18.871,-18.446 -60.825,-11.379 -82.538,3.096c23.934,78.316 3.154,209.821 3.154,209.821c-0.808,3.566 -1.654,7.02 -2.483,10.529c54.754,0.841 67.958,-34.804 70.596,-59.163c1.212,-11.208 3.896,-22.396 8.054,-33.458c13.542,-36.025 41.85,-93.058 3.217,-130.825Z" style="fill:#ffaa7b;fill-rule:nonzero;"/><path d="M4581.95,1353.65c-7.888,-8.892 -12.229,-19.279 -12.55,-30.038c-1.221,-40.95 -11.563,-141.175 -81.021,-187.429c-49.271,-32.808 -118.533,-32.466 -205.867,1.025c-9.425,3.613 -19.804,3.613 -29.225,0c-10.587,-4.058 -20.9,-7.608 -30.954,-10.696c-70.7,47.409 -81.25,149.621 -82.496,191.425c-0.329,11.009 -4.762,21.625 -12.837,30.717c-44.479,50.125 -34.738,196.567 -24.363,256.854c22.984,101.442 56.275,189.896 98.934,262.909c35.283,60.383 85.421,109.75 146.446,144.895c67.779,-34.695 123.133,-86.583 161.012,-151.416c41.708,-71.375 74.263,-157.871 96.783,-257.259c9.75,-61.97 20.134,-201.408 -23.862,-250.987Z" style="fill:#ffc7ab;fill-rule:nonzero;"/><g><path d="M4205.01,1861.9c-41.716,-71.396 -74.27,-157.888 -96.741,-257.083c-10.15,-58.955 -19.671,-202.15 23.821,-251.167c7.895,-8.892 12.233,-19.275 12.554,-30.038c1.221,-40.95 11.562,-141.183 81.021,-187.433c2.987,-1.992 6.058,-3.85 9.195,-5.596c-78.683,-26.691 -141.695,-24.858 -187.441,5.596c-69.463,46.254 -79.8,146.483 -81.021,187.433c-0.321,10.763 -4.658,21.146 -12.554,30.038c-43.496,49.012 -33.971,192.212 -23.821,251.167c22.475,99.195 55.029,185.687 96.742,257.083c42.35,72.479 106.487,128.85 185.47,163.021c35.38,15.3 75.946,15.304 111.317,-0c11.492,-4.971 22.625,-10.467 33.463,-16.359c-63.675,-34.612 -115.813,-84.729 -152.005,-146.662Z" style="fill:#ffaa7b;fill-rule:nonzero;"/></g><path d="M4890.7,1015.93c-66.771,54.463 -133.983,141.867 -94.371,257.804c70.7,206.929 -114.171,489.542 93.546,697.259c122.238,122.237 268.354,116.404 367.929,90.908c18.434,-76.738 28.209,-156.846 28.209,-239.242c-0.005,-328.079 -154.805,-619.971 -395.313,-806.729Z" style="fill:#ffdd40;fill-rule:nonzero;"/><path d="M3639.63,1015.93c66.771,54.463 133.984,141.867 94.371,257.804c-70.7,206.929 114.171,489.542 -93.546,697.259c-122.237,122.237 -268.354,116.404 -367.929,90.908c-18.433,-76.738 -28.204,-156.846 -28.204,-239.242c0,-328.079 154.8,-619.971 395.308,-806.729Z" style="fill:#ffdd40;fill-rule:nonzero;"/><path d="M4957.32,2572.94c-20.546,-82.225 -71.5,-129.917 -112.808,-156.034c-26.046,-16.466 -60.009,2.067 -60.009,32.884l0,251.875c62.15,-36.805 120.055,-80.021 172.817,-128.725Z" style="fill:#548bed;fill-rule:nonzero;"/><path d="M4518.87,2036.4c-0,111.512 18.395,220.262 97.712,233.741c31.138,-107.495 66.242,-213.512 18.021,-382.395c-1.163,-4.071 -2.254,-8.05 -3.363,-12.05c-51.545,27.633 -112.37,77.795 -112.37,160.704Z" style="fill:#56415e;fill-rule:nonzero;"/></g><g><path d="M2743.84,2318.92c81.891,-146.917 128.612,-316.121 128.612,-496.259c0,-563.796 -457.046,-1020.84 -1020.84,-1020.84c-563.796,-0 -1020.84,457.045 -1020.84,1020.84c-0,180.138 46.721,349.342 128.612,496.259l1784.46,-0Z" style="fill:#ff4155;fill-rule:nonzero;"/><path d="M2160.37,2022.71c0.017,-0.012 0.029,-0.029 0.029,-0.029c-2.458,-0.692 -4.962,-1.325 -7.45,-1.983c-0.825,-0.217 -1.642,-0.454 -2.467,-0.671l-0.016,0.012c-8.388,-2.204 -16.817,-4.333 -25.35,-6.304c-42.3,-42.3 -53.025,-122.496 -54.954,-178.604c-22.075,25.713 -45.242,47.221 -67.38,64.408c-43.133,33.496 -96.354,51.688 -151.17,51.688c-54.817,-0 -108.042,-18.192 -151.171,-51.688c-22.138,-17.187 -45.309,-38.7 -67.384,-64.408c-1.933,56.108 -12.654,136.304 -54.958,178.604c-8.65,1.996 -17.2,4.163 -25.704,6.396c-0,0 -0.008,-0.008 -0.017,-0.012c-0.787,0.204 -1.566,0.429 -2.354,0.637c-2.517,0.667 -5.05,1.309 -7.558,1.996c-0,-0 0.033,0.029 0.046,0.042c-38.98,10.675 -76.596,23.729 -113.359,39.141l0,99.438c68.529,93.671 160.221,152.071 212.704,174.129c23.588,9.912 48.73,14.938 74.734,14.938l73.683,-0.001l18.021,6.251l86.625,-0.001l18.021,-6.249l73.683,-0.001c26,0.001 51.142,-5.029 74.729,-14.937c52.188,-21.938 143.146,-79.796 211.55,-172.546l0,-101.496c-36.496,-15.233 -73.841,-28.162 -112.533,-38.75Z" style="fill:#ffaa7b;fill-rule:nonzero;"/><path d="M1700.44,1899.55c-22.138,-17.192 -45.309,-38.7 -67.384,-64.413c-1.933,56.109 -12.654,136.304 -54.954,178.604c-8.654,1.996 -17.2,4.163 -25.704,6.4c0,0 -0.008,-0.008 -0.017,-0.012c-0.787,0.208 -1.566,0.429 -2.354,0.642c-2.516,0.666 -5.05,1.308 -7.558,1.995c-0,0 0.033,0.03 0.05,0.042c-15.213,4.167 -30.163,8.804 -44.992,13.696c41.3,98.612 127.992,268.433 219.709,221.396c127.287,-65.279 134.375,-306.667 134.375,-306.667c-54.817,0 -108.042,-18.192 -151.171,-51.683Z" style="fill:#fc9460;fill-rule:nonzero;"/><path d="M2217.8,2223.02c-56.733,52.429 -117.421,83.591 -156.442,99.991c-23.587,9.913 -48.729,14.938 -74.729,14.938l-73.683,-0l-18.021,6.25l-86.625,-0l-18.021,-6.25l-73.683,-0c-26,-0 -51.142,-5.029 -74.733,-14.938c-8.388,-3.525 -17.821,-7.779 -27.959,-12.733l0,310.1c0,0 -79.471,78.492 -20.941,190c82.612,21.575 169.275,33.121 258.65,33.121c247.937,0 475.208,-88.417 652.066,-235.408l0,-15.092c0,-155.229 -186.046,-302.254 -285.879,-369.979Z" style="fill:#ffc839;fill-rule:nonzero;"/><path d="M1622.24,2620.38l-0,-306.108c-38.055,-17.821 -88.659,-46.825 -136.53,-90.992c-99.629,67.55 -285.762,214.5 -285.762,369.663l-0,15.491c115.504,95.9 252.496,166.809 402.679,204.459c-61.062,-112.838 19.613,-192.513 19.613,-192.513Z" style="fill:#ffb332;fill-rule:nonzero;"/><path d="M2743.84,2318.92c-0.892,-1.721 -1.763,-3.467 -2.663,-5.167c-33.337,-62.708 -89.325,-110.354 -156.125,-134.479l-282.621,-102.067c5.205,10.496 8.746,26.025 -1.325,43.129c-26.345,44.763 -58.658,81.121 -91.87,110.405c93.341,62.212 282.42,207.145 282.42,360.404l0,26.737c102.063,-82.25 187.955,-183.729 252.184,-298.962Z" style="fill:#ffdd40;fill-rule:nonzero;"/><path d="M1402.12,2120.34c-10.071,-17.104 -6.525,-32.633 -1.325,-43.129l-282.621,102.067c-66.796,24.125 -122.784,71.771 -156.121,134.479c-0.904,1.7 -1.775,3.446 -2.663,5.167c64.23,115.229 150.117,216.712 252.184,298.962l-0,-26.737c-0,-153.258 189.075,-298.188 282.416,-360.404c-33.212,-29.284 -65.52,-65.642 -91.87,-110.405Z" style="fill:#ffc839;fill-rule:nonzero;"/><path d="M2331.37,1931.96c-30.879,-72.05 -131.033,-114.162 -262.888,-158.308l-9.045,72.204c-0,0 83.212,328.367 -164.513,498.342l120.492,0c33.75,0 67.129,-7.096 97.875,-21.025c38.65,-17.517 92.85,-45.987 141.158,-85.467c90.292,-73.791 122.858,-198.562 76.921,-305.746Z" style="fill:#fee77f;fill-rule:nonzero;"/><path d="M1653.22,2132.17c-45.888,-11.809 -163.542,-27.213 -194.884,113.141c45.784,35.55 95.484,61.496 131.604,77.867c30.742,13.933 64.121,21.025 97.871,21.025l120.492,-0c-85.292,-58.525 -131.346,-135.825 -155.083,-212.033Z" style="fill:#fee77f;fill-rule:nonzero;"/><path d="M1643.79,1845.86l-9.046,-72.204c-131.854,44.146 -232.009,86.254 -262.888,158.308c-45.937,107.184 -13.371,231.955 76.925,305.742c5.409,4.421 10.896,8.679 16.421,12.821c31.296,-167.538 192.588,-104.508 192.588,-104.508l0.004,-0.03c-52.059,-149.85 -14.004,-300.129 -14.004,-300.129Z" style="fill:#ffdd40;fill-rule:nonzero;"/><path d="M1622.24,2620.38c-19.555,0 -35.55,-15.996 -35.55,-35.55l-0,-292.012c-0,-19.554 15.995,-35.55 35.55,-35.55c19.554,-0 35.55,15.996 35.55,35.55l-0,292.012c-0,19.554 -15.996,35.55 -35.55,35.55Z" style="fill:#deeeff;fill-rule:nonzero;"/><path d="M2079.83,2620.38c-19.554,0 -35.55,-15.996 -35.55,-35.55l0,-292.012c0,-19.554 15.996,-35.55 35.55,-35.55c19.554,-0 35.55,15.996 35.55,35.55l0,292.012c0,19.554 -15.996,35.55 -35.55,35.55Z" style="fill:#deeeff;fill-rule:nonzero;"/><path d="M2499.95,1034.11c-74.046,50.604 -130.083,128.092 -110.571,244.584c51.125,305.22 -184.367,460.937 183.679,624.579c130.854,58.183 213.271,126.25 264.592,184.446c22.683,-84.525 34.808,-173.375 34.808,-265.063c0,-317.6 -145.05,-601.317 -372.508,-788.546Z" style="fill:#ff7186;fill-rule:nonzero;"/><path d="M1203.28,1034.11c74.046,50.604 130.084,128.092 110.571,244.584c-51.125,305.22 184.367,460.937 -183.679,624.579c-130.854,58.183 -213.271,126.25 -264.592,184.446c-22.683,-84.525 -34.808,-173.375 -34.808,-265.063c-0,-317.6 145.05,-601.317 372.508,-788.546Z" style="fill:#ff7186;fill-rule:nonzero;"/><path d="M2249.25,1368.84c27.1,-110.513 49.233,-276.105 -9.362,-413.888c-113.305,-266.433 -421.667,-250.008 -503.384,-240.625c-8.579,0.983 -12.883,10.771 -8.004,17.892c48.983,71.508 -142.921,6.721 -247.225,225.512c-66.108,138.663 -49.496,301.921 -25.329,411.113l793.304,-0l0,-0.004Z" style="fill:#945230;fill-rule:nonzero;"/><path d="M1847.14,1003.73c-0,-0 -30.717,-70.642 47.07,-128.975c77.684,-58.258 -38.12,-162.929 -38.42,-163.2c-52.105,-3.3 -95.392,0.033 -119.284,2.779c-8.579,0.988 -12.883,10.771 -8.004,17.892c48.983,71.508 -142.921,6.721 -247.225,225.512c-66.108,138.667 -49.496,301.925 -25.329,411.113l181.337,-0l57.6,-22.884l152.255,-342.237Z" style="fill:#753616;fill-rule:nonzero;"/><path d="M2265.18,1354.84c-17.096,-15.666 -55.316,-7.725 -70.041,1.867c3.225,20.088 3.408,40.638 0.625,60.929l-17.375,126.55c-0,10.2 -0.321,20.209 -0.913,30.042c42.371,12.779 67.583,-25.258 71.129,-51.363c1.525,-11.237 4.021,-22.312 7.484,-33.12c11.266,-35.192 51.925,-95.65 9.091,-134.905Z" style="fill:#ffaa7b;fill-rule:nonzero;"/><path d="M1438.05,1354.84c17.096,-15.666 55.317,-7.725 70.042,1.867c-3.225,20.088 -3.409,40.638 -0.621,60.929l17.375,126.55c-0,10.2 0.321,20.209 0.912,30.042c-42.371,12.779 -67.583,-25.258 -71.129,-51.363c-1.525,-11.237 -4.021,-22.312 -7.483,-33.12c-11.271,-35.192 -51.929,-95.65 -9.096,-134.905Z" style="fill:#fc9460;fill-rule:nonzero;"/><path d="M2173.8,1287.33c-19.254,-30.204 -12.875,-54.875 -12.563,-83.763c0,0 16.242,-132.987 -147.545,-180.208c-47.417,-13.671 -114.33,-21.846 -182.892,-19.217c-47.713,33.638 -79.133,82.996 -79.133,152.938c-0,32.146 6.929,57.267 -12.8,89.858c-21.271,35.146 -33.65,85.842 -26.621,139.759l17.704,135.787c-0,195.217 98.95,327.904 183.121,396.738c11.975,9.791 24.754,18.262 38.083,25.545c18.304,-8.058 35.663,-18.35 51.629,-30.75c82.629,-64.166 179.767,-187.854 179.767,-369.825l17.375,-126.55c6.854,-49.862 -5.029,-97.212 -26.125,-130.312Z" style="fill:#ffc7ab;fill-rule:nonzero;"/><path d="M1913.93,1911.27c-82.629,-67.575 -179.771,-197.834 -179.771,-389.48l-17.379,-133.304c-6.9,-52.925 5.25,-102.696 26.133,-137.2c19.363,-31.996 12.563,-56.654 12.563,-88.216c-0,-75.305 37.033,-126.371 91.662,-159.346c-145.566,2.012 -305.145,51.354 -305.145,199.841c-0,29.967 6.804,53.384 -12.563,83.767c-20.883,32.763 -33.033,80.021 -26.133,130.279l17.379,126.579c-0,181.976 97.137,305.663 179.771,369.825c43.129,33.492 96.354,51.684 151.171,51.684c37.712,-0 74.666,-8.609 108.1,-24.888c-16.159,-8.025 -31.534,-17.883 -45.788,-29.541Z" style="fill:#ffaa7b;fill-rule:nonzero;"/><path d="M2085.55,1690.76c-9.662,-57.616 -51.233,-115.308 -106.733,-127.895l-84.829,-24.921c-14.746,-4.329 -29.509,3.233 -35.446,16.075c-1.084,2.346 -4.363,2.346 -5.45,-0c-5.942,-12.842 -20.704,-20.404 -35.45,-16.075l-84.829,24.921c-2.105,0.479 -4.18,1.037 -6.242,1.641l0.792,0c-8.988,21.142 -24.521,73.646 19.695,113.759c14.28,-7.288 29.555,-12.867 45.588,-16.409l15.15,-3.346c22.083,-4.875 39.162,-26.433 45.425,-49.404c0.717,-2.637 4.467,-2.637 5.187,0c6.263,22.971 23.338,44.529 45.425,49.404l15.155,3.346c43.55,9.613 81.708,33.984 108.7,68.046c-5.588,24.842 -23.109,62.592 -77.409,81.779c-36.433,12.871 -76.191,-10.041 -80.858,-47.966c-0.058,-0.492 -0.117,-0.984 -0.171,-1.484c-0.767,-7.071 -6.687,-12.508 -13.896,-12.508c-7.204,-0 -13.129,5.437 -13.896,12.508c-0.054,0.5 -0.112,0.992 -0.17,1.484c-2.509,20.387 -15.2,36.362 -32.021,44.85c-4.675,18.533 -10.879,58.491 8.466,97.291c13.992,28.063 38.555,49.779 73.15,64.834c17.525,-3.538 34.696,-9.371 50.984,-17.663c84.896,-43.221 197.766,-118.312 233.871,-311.496c2.966,-15.883 4.475,-32.033 4.475,-48.196c-13.746,33.917 -42.313,74.717 -94.663,97.425Z" style="fill:#945230;fill-rule:nonzero;"/><path d="M1760.76,1952.98c43.834,22.338 93.938,27.388 140.654,15.292c-114.158,-44.25 -90.562,-143.921 -84.35,-164.362c-15.65,11.07 -36.625,14.841 -56.629,7.774c-50.129,-17.712 -71.691,-51.258 -80.962,-75.854c19.025,-26.025 44.366,-46.87 73.65,-60.533c-48.138,-41.625 -25.292,-98.033 -17.867,-113.146l-2.437,0.717c-56.596,12.833 -98.734,72.571 -107.296,131.304c-57.904,-21.833 -88.046,-65.15 -102.5,-100.833l-0,0.016c-0,16.138 1.504,32.267 4.466,48.129c36.038,193.146 148.367,268.23 233.271,311.496Z" style="fill:#753616;fill-rule:nonzero;"/></g><clipPath id="_clip1"><rect x="784.948" y="3080.53" width="2133.33" height="2133.33"/></clipPath><g clip-path="url(#_clip1)"><g><path d="M2723.72,4723.89c94.358,-154.68 148.741,-336.421 148.741,-530.867c0,-563.796 -457.046,-1020.84 -1020.84,-1020.84c-563.796,0 -1020.84,457.046 -1020.84,1020.84c-0,194.446 54.383,376.183 148.742,530.867l1744.2,-0Z" style="fill:#fc90ce;fill-rule:nonzero;"/><path d="M1604.43,4199.06c0,0 144.255,-75.425 244.363,-75.425c100.108,0 249.992,75.425 249.992,75.425l-0,134.642l-494.355,-0l0,-134.642Z" style="fill:#ffb332;fill-rule:nonzero;"/><path d="M2082.94,4314.53c-34.209,-26.875 -56.384,-57.6 -56.384,-92.15l0,-33.296c-43.071,38.504 -116.929,87.559 -177.758,89.034c-2.067,-0.05 -4.15,-0.167 -6.246,-0.321c-0.2,2.887 -11.029,144.583 -96.687,231.75c-10.371,1.425 -53.071,8.879 -91.1,38.3c24.795,12.95 50.362,24.921 76.72,35.771c78.821,32.437 169.196,32.441 247.996,-0c46.879,-19.3 91.363,-41.996 133.246,-67.738c-6.433,-93.212 -19.479,-160.246 -29.787,-201.35Z" style="fill:#ffaa7b;fill-rule:nonzero;"/><path d="M1671.04,4222.38c-0,32.254 -19.338,61.175 -49.734,86.742c-0.116,1.291 -0.316,2.6 -0.654,3.925c-10.191,40.287 -23.196,106.25 -29.825,198.121c22.525,14.17 45.829,27.437 69.859,39.77c41.595,-31.195 88.087,-35.458 88.087,-35.458c90.242,-90.242 100.017,-237.362 100.017,-237.362c-60.829,-1.471 -134.688,-50.53 -177.754,-89.034c0.004,16.85 0.004,6.779 0.004,33.296Z" style="fill:#fc9460;fill-rule:nonzero;"/><path d="M1974.57,4572.03c-75.771,31.192 -162.667,31.188 -238.455,0c-51.125,-21.05 -99.287,-46.287 -144.166,-75.283c-12.613,154.4 -7.475,386.633 63.246,698.166c63.566,12.392 129.216,18.955 196.408,18.959l0.042,-0c67.191,-0 132.841,-6.567 196.408,-18.959c70.021,-308.454 75.746,-539.154 63.612,-693.541c-42.866,27.058 -88.67,50.721 -137.095,70.658Z" style="fill:#d3dcfb;fill-rule:nonzero;"/><path d="M1795.65,4537.78c-20.513,-8.337 -38.975,-17.521 -55.621,-27.3c-26.775,4.842 -111.858,27.025 -140.275,116.196c-3.262,-0.737 -7.767,-1.633 -13.175,-2.458c-0.15,27.454 0.288,56.475 1.471,87.108c51.4,41.508 128.15,31.113 165.767,-24.667l59.912,-88.837c14.313,-21.221 5.638,-50.404 -18.079,-60.042Z" style="fill:#deeeff;fill-rule:nonzero;"/><path d="M1748.78,4515.47c-79.708,-44.108 -119.687,-101.825 -139.721,-149.304c-11.383,60.55 -22.258,148.533 -22.508,264.25c10.825,1.766 17.471,3.766 17.471,3.766c30.533,-108.358 144.758,-118.712 144.758,-118.712Z" style="fill:#d3dcfb;fill-rule:nonzero;"/><path d="M2094.17,4366.17c-23.634,56.004 -74.988,126.254 -186.588,171.612c-23.716,9.638 -32.387,38.821 -18.075,60.042l59.913,88.837c37.616,55.78 114.371,66.175 165.771,24.663c6.041,-156.358 -7.117,-271.204 -21.021,-345.154Z" style="fill:#deeeff;fill-rule:nonzero;"/><path d="M2205.59,5150.79c217.008,-80.234 399.283,-232.092 518.125,-426.9c-9.092,-35.725 -20.146,-67.492 -33.438,-94.08c-54.233,-108.458 -141.204,-169.3 -199.067,-192.57c-27.512,-11.067 -54.525,-23.238 -80.791,-37.009c-38.104,-19.971 -93.754,-46.875 -150.742,-66.533c27.242,41.412 28.533,132.112 25.65,183.625c-14.787,264.804 -49.154,493.042 -79.737,633.467Z" style="fill:#ffc839;fill-rule:nonzero;"/><path d="M1417.96,4717.36c-10.03,-0.471 -34.209,-0.971 -63.517,3.029c-35.258,4.809 -84.679,17.35 -119.917,49.784c-30.137,27.741 -45.416,65.404 -45.416,111.954l-0,87.508c90.545,77.309 194.745,139.092 308.525,181.159c-23.734,-108.98 -49.742,-270.863 -67.117,-461.663c-4.725,8.383 -8.963,17.738 -12.558,28.229Z" style="fill:#ffc839;fill-rule:nonzero;"/><path d="M1417.9,4517.32c-2.879,-51.513 -1.588,-142.213 25.654,-183.625c-56.987,19.654 -112.637,46.562 -150.742,66.533c-26.266,13.767 -53.275,25.942 -80.791,37.009c-57.863,23.275 -144.838,84.112 -199.067,192.57c-13.292,26.588 -24.346,58.355 -33.437,94.08c57.958,95.012 131.041,179.766 215.85,251.016l-0,-92.783c-0,-177.083 227.029,-158.233 227.029,-158.233c2.675,-8.475 5.762,-16.221 9.187,-23.317c-5.466,-58.525 -10.141,-119.825 -13.683,-183.25Z" style="fill:#ffb332;fill-rule:nonzero;"/><path d="M2177.59,4230.66c-4.767,-2.533 -140.367,-59.687 -140.796,-59.87c-0,-0 24.983,39.32 35.979,90.095c27.025,139.93 58.304,493.284 -42.642,937.396c63.554,-11.208 125.054,-28.346 183.967,-50.729c28.504,-136.242 74.875,-416.908 90.167,-690.542c5.237,-93.679 -43.83,-182.304 -126.675,-226.35Z" style="fill:#ffdd40;fill-rule:nonzero;"/><path d="M1599.75,4626.68c-27.104,-6.104 -137.183,-23.45 -178.971,83.192c20.592,181.425 48.709,343.825 68.342,437.683c58.917,22.388 120.417,39.521 183.967,50.729c-50.471,-222.054 -67.888,-421.421 -69.309,-582.762c-1.429,3.612 -2.8,7.3 -4.029,11.158Z" style="fill:#ffdd40;fill-rule:nonzero;"/><path d="M1398.96,4457.01c5.03,90 13.43,180.725 23.442,266.859c41.621,-131.825 181.621,-89.688 181.621,-89.688l0.004,-0.012c-2.767,-170.492 12.4,-300.65 26.425,-373.284c10.996,-50.775 35.979,-90.095 35.979,-90.095c-0.429,0.179 -136.029,57.333 -140.796,59.87c-82.841,44.046 -131.908,132.671 -126.675,226.35Z" style="fill:#ffc839;fill-rule:nonzero;"/><path d="M2554.25,3452.5c-47.575,55.796 -82.725,134.667 -55.413,238.037c90.28,341.659 -115.445,498.546 50,619.738c105.271,77.117 204.721,128.137 267.821,216.362c36.142,-104.545 55.8,-216.779 55.8,-333.612c0,-291.533 -122.225,-554.508 -318.208,-740.525Z" style="fill:#ffbbe5;fill-rule:nonzero;"/><path d="M1148.98,3452.5c47.575,55.796 82.725,134.667 55.413,238.037c-90.279,341.659 115.446,498.546 -50,619.738c-105.271,77.117 -204.725,128.137 -267.821,216.362c-36.142,-104.545 -55.796,-216.779 -55.796,-333.612c-0.004,-291.533 122.221,-554.508 318.204,-740.525Z" style="fill:#ffbbe5;fill-rule:nonzero;"/><path d="M2623.68,4860.86c-21.85,-76.954 -70.629,-122.254 -110.475,-147.445c-26.046,-16.467 -60.004,2.066 -60.004,32.883l-0,271.496c62.604,-45.738 119.817,-98.417 170.479,-156.934Z" style="fill:#ffb332;fill-rule:nonzero;"/><path d="M1347.64,4032.97c5.708,21.579 20.471,39.392 40.141,48.192c0.734,0.329 1.471,0.658 2.209,0.983c110.179,48.983 229.762,73.229 350.341,73.229l222.563,0c120.575,0 240.154,-24.246 350.333,-73.225c0.738,-0.329 1.475,-0.658 2.213,-0.987c19.671,-8.8 34.433,-26.617 40.141,-48.196c15.113,-57.109 22.984,-113.929 26.105,-171.696c17.608,-324.946 -104.45,-534.813 -229.392,-667.283c-77.338,-81.992 -173.75,-140.313 -270.375,-100.796c-19.433,7.946 -41.188,7.946 -60.621,-0c-96.621,-39.513 -193.037,18.808 -270.367,100.796c-124.945,132.47 -247,342.337 -229.4,667.283c3.15,57.871 10.963,114.475 26.109,171.7Z" style="fill:#945230;fill-rule:nonzero;"/><path d="M1550.93,3193.99c-124.945,132.471 -247,342.337 -229.4,667.283c3.15,57.867 10.963,114.471 26.105,171.696c5.708,21.579 20.47,39.392 40.141,48.196c0.738,0.329 1.471,0.658 2.209,0.983c110.179,48.983 229.762,73.229 350.341,73.229l222.563,0c120.575,0 240.154,-24.246 350.333,-73.225l2.213,-0.987c19.67,-8.8 34.433,-26.617 40.141,-48.196c8.096,-30.588 14.059,-61.104 18.379,-91.721c-110.562,25.996 -131.279,-95.637 -131.279,-95.637l-536.896,-293.325c-95.241,-221.217 115.517,-459.096 115.517,-459.096c-96.617,-39.513 -193.037,18.808 -270.367,100.8Z" style="fill:#753616;fill-rule:nonzero;"/><path d="M1509.14,3635.33c-2.809,0.479 -5.642,0.942 -8.492,1.379c-58.837,9.05 -93.787,70.513 -72.683,126.171c0.125,0.334 0.25,0.663 0.375,0.992c4.279,11.379 7.037,22.892 8.291,34.425c2.713,25.058 16.296,61.733 72.634,60.871c-0.85,-3.613 -1.725,-7.167 -2.554,-10.834c-0,0 -20.855,-132.129 2.429,-213.004Z" style="fill:#fc9460;fill-rule:nonzero;"/><path d="M2194.09,3635.33c23.288,80.875 2.434,213.004 2.434,213.004c-0.834,3.671 -1.704,7.225 -2.559,10.834c56.334,0.862 69.921,-35.813 72.634,-60.871c1.246,-11.533 4.008,-23.046 8.287,-34.425c0.125,-0.329 0.25,-0.658 0.375,-0.992c21.104,-55.662 -13.846,-117.121 -72.683,-126.171c-2.85,-0.437 -5.679,-0.9 -8.488,-1.379Z" style="fill:#ffaa7b;fill-rule:nonzero;"/><path d="M1704.31,3759.29c12.138,106.483 45.613,255.541 136.167,360.95c43.075,50.141 95.342,86.32 156.112,108.375c41.192,-31.5 75.83,-70.3 102.242,-115.15c43.258,-73.459 77.017,-162.45 100.317,-264.513c8.212,-47.35 16.021,-147.492 -2.396,-213.154c-134.833,-22.333 -222.563,-92.45 -276.233,-156c-36.088,-42.729 -101.721,-42.729 -137.809,-0c-21.891,25.921 -49.458,52.937 -83.575,77.354c-1.537,21.354 -6.116,103.042 5.175,202.138Z" style="fill:#ffc7ab;fill-rule:nonzero;"/><path d="M1906.5,4281.2c34.958,-15.008 67.079,-34.208 95.871,-57.046c-347.983,-122.129 -296.579,-671.858 -296.579,-671.858l-0.004,-0c-50.459,37.55 -115.85,69.687 -199.309,83.512c-18.416,65.663 -10.608,165.804 -2.396,213.154c23.305,102.059 57.063,191.05 100.321,264.513c43.917,74.571 110.421,132.571 192.329,167.733c17.463,7.496 36.146,11.375 54.888,11.738c18.733,-0.371 37.412,-4.25 54.879,-11.746Z" style="fill:#ffaa7b;fill-rule:nonzero;"/></g></g><clipPath id="_clip2"><rect x="3367.38" y="3080.53" width="2133.33" height="2133.33"/></clipPath><g clip-path="url(#_clip2)"><g><g><path d="M4434.04,3107.32c-405.325,0 -655.013,228.63 -655.697,229.014c-0,0 -10.383,12.955 -12.32,21.572c-15.773,70.003 -30.506,163.828 -30.506,232.291c0,581.707 490.55,1053.15 1072.25,1053.15c224,-0 473.22,-107.36 640.012,-236.441c3.733,-2.889 15.568,-22.29 15.568,-22.29c0.735,-4.488 23.96,-96.968 23.96,-224.029c-0,-581.707 -471.563,-1053.27 -1053.27,-1053.27Z" style="fill:#afe6ff;fill-rule:nonzero;"/><path d="M4807.68,4613.62c-581.707,0 -1053.27,-471.566 -1053.27,-1053.27c0,-76.888 8.292,-151.805 23.935,-224.013c-242.232,192.977 -397.573,490.479 -397.573,824.256c0,253.395 89.483,485.891 238.57,667.616l1629.4,0.017c103.56,-126.175 178.557,-277.187 214.61,-443.604c-179.918,143.309 -407.775,228.997 -655.672,228.997Z" style="fill:#73c8f0;fill-rule:nonzero;"/></g><g><g><g><g><path d="M4865.82,3946.48l-4.175,0l-28.535,-140.299l28.535,-115.747l4.175,0c55.779,0 101.001,45.222 101.001,101.002l0,54.047c0,55.775 -45.217,100.997 -101.001,100.997Z" style="fill:#ff965a;fill-rule:nonzero;"/></g></g></g><g><ellipse cx="4443.01" cy="4520.91" rx="523.815" ry="423.682" style="fill:#ff3c3c;"/></g><path d="M5005.87,4481l-9.773,-2.162l-335.301,-15.886c-322.158,-15.263 -591.701,241.814 -591.701,564.336l-0,121.525c113.718,42.011 236.633,65.048 364.95,65.048c326.329,-0 620.654,-149.225 814.7,-385.641l-0,-44.717c-0,-145.313 -100.994,-271.104 -242.875,-302.503Z" style="fill:#ff3c3c;fill-rule:nonzero;"/><path d="M4443.82,4877.66c315.512,0 571.287,-42.955 571.287,-298.153c0,-34.129 -4.617,-67.382 -13.297,-99.407l-568.994,-125.908l-570.778,126.685c-142.925,31.724 -242.695,158.451 -242.695,302.466l0,44.862c118.799,144.804 275.451,257.365 454.83,322.576c45.919,-158.109 192.167,-273.35 365.205,-273.125c1.478,0.004 2.96,0.004 4.442,0.004Z" style="fill:#dc1428;fill-rule:nonzero;"/><g><path d="M4966.82,4520.91c0,233.991 -234.52,273.376 -523.815,273.376c-289.294,0 -523.814,-39.385 -523.814,-273.376c-0,-233.99 234.52,-423.681 523.814,-423.681c289.295,-0 523.815,189.687 523.815,423.681Z" style="fill:#ff3c3c;fill-rule:nonzero;"/></g><g><path d="M4803.13,4463.61c-0,160.868 -161.232,291.281 -360.125,291.281c-198.892,0 -360.124,-130.409 -360.124,-291.281c0,-160.873 161.232,-121.93 360.124,-121.93c198.893,-0 360.125,-38.939 360.125,121.93Z" style="fill:#dc1428;fill-rule:nonzero;"/></g><g><g><g><path d="M4435.05,4672.1c83.801,0 151.73,-67.932 151.73,-151.729l-0,-339.86l-303.464,0l0,339.856c0,83.801 67.933,151.733 151.734,151.733Z" style="fill:#ff965a;fill-rule:nonzero;"/></g></g></g><g><path d="M4385.16,4492.98c0.008,-0 0.013,-0.005 0.021,-0.009c-35.261,-1.883 -69.361,-8.074 -101.862,-17.939l0,-294.517l278.286,0l25.178,227.206c-37.369,60.151 -141.814,88.461 -201.623,85.259Z" style="fill:#ef6a30;fill-rule:nonzero;"/></g><g><g><g><path d="M4846.66,3648.15c0,-138.47 -88.831,-265.088 -227.298,-265.088l-368.628,-0c-39.511,-0 -75.698,10.341 -107.268,28.293l0,731.883c0,159.746 128.484,290.472 288.221,291.682c1.119,0.009 2.242,0.013 3.361,0.013c237.911,-0 430.771,-192.864 430.771,-430.771l-0,-135.994l-19.159,-220.018Z" style="fill:#ffbe82;fill-rule:nonzero;"/></g></g></g><g><g><g><path d="M4865.82,3867l-0,-97.09c21.149,0 38.299,17.146 38.299,38.3l0,20.494c0,21.15 -17.146,38.296 -38.299,38.296Z" style="fill:#ef6a30;fill-rule:nonzero;"/></g></g></g><g><g><g><path d="M3899.01,3845.48c-0,55.779 45.221,101.001 101.001,101.001l6.483,0l51.706,-108.929l-50.841,-147.117l-7.352,0c-55.78,0 -101.002,45.222 -101.002,101.002l0,54.043l0.005,-0Z" style="fill:#ff965a;fill-rule:nonzero;"/></g></g></g><g><g><g><path d="M3958.93,3829.45c-0,22.691 18.394,41.085 41.084,41.085l-0,-104.158c-22.69,0 -41.084,18.394 -41.084,41.085l-0,21.988Z" style="fill:#ef6a30;fill-rule:nonzero;"/></g></g></g><g><g><g><path d="M3931.35,3875.79c-0,37.92 30.743,68.663 68.663,68.663l-0,-136.491c-37.92,-0 -68.663,30.743 -68.663,68.663l-0,-0.835Z" style="fill:#fff;fill-rule:nonzero;"/></g></g></g><g><g><g><path d="M4248.93,3843.19l0,30.376c0,19.813 16.065,35.878 35.879,35.878c19.813,-0 35.878,-16.065 35.878,-35.878l0,-30.376l-71.757,-0Z" style="fill:#ff965a;fill-rule:nonzero;"/></g></g></g><g><g><g><path d="M4541.26,3843.19l-0,30.376c-0,19.813 16.064,35.878 35.878,35.878c19.814,-0 35.879,-16.065 35.879,-35.878l-0,-30.376l-71.757,-0Z" style="fill:#ff965a;fill-rule:nonzero;"/></g></g></g><g><g><g><path d="M4284.81,3880.71c-19.814,-0 -35.879,-16.065 -35.879,-35.879l0,-46.152l13.226,-20.027l-13.226,-20.027l0,-11.919c0,-19.813 16.065,-35.878 35.879,-35.878c19.813,-0 35.878,16.065 35.878,35.878l0,98.125c0,19.814 -16.065,35.879 -35.878,35.879Z" style="fill:#373c41;fill-rule:nonzero;"/></g></g></g><g><g><g><path d="M4577.14,3880.71c-19.814,-0 -35.878,-16.065 -35.878,-35.879l-0,-46.152l13.226,-20.027l-13.226,-20.027l-0,-11.919c-0,-19.813 16.064,-35.878 35.878,-35.878c19.814,-0 35.879,16.065 35.879,35.878l-0,98.125c-0,19.814 -16.065,35.879 -35.879,35.879Z" style="fill:#373c41;fill-rule:nonzero;"/></g></g></g><g><g><g><g><path d="M4332.07,3692.89l-104.629,-0c-19.814,-0 -35.879,-16.065 -35.879,-35.879c0,-19.813 16.065,-35.878 35.879,-35.878l104.629,-0c19.814,-0 35.878,16.065 35.878,35.878c0,19.814 -16.064,35.879 -35.878,35.879Z" style="fill:#373c41;fill-rule:nonzero;"/></g></g></g></g><g><g><g><g><path d="M4631.06,3692.89l-104.629,-0c-19.814,-0 -35.879,-16.065 -35.879,-35.879c0,-19.813 16.065,-35.878 35.879,-35.878l104.629,-0c19.814,-0 35.878,16.065 35.878,35.878c0,19.814 -16.064,35.879 -35.878,35.879Z" style="fill:#373c41;fill-rule:nonzero;"/></g></g></g></g><g><path d="M4567.16,4079.19l-36.943,0l-97.294,20.198l-97.294,-20.198l-32.681,0c-10.963,0 -19.722,9.569 -18.26,20.436c2.797,20.787 9.806,40.237 20.135,57.471l197.005,58.38c44.491,-21.838 76.725,-64.826 83.593,-115.851c1.461,-10.867 -7.298,-20.436 -18.261,-20.436Z" style="fill:#be1423;fill-rule:nonzero;"/></g><g><path d="M4795.83,3498.29c4.116,0.004 8.183,-0.196 12.224,-0.497c-38.676,-67.853 -104.479,-114.732 -188.694,-114.732l-368.628,-0c-39.511,-0 -75.698,10.341 -107.268,28.292l0,9.168c-81.046,37.816 -133.957,118.778 -133.957,218.135l-9.494,229.506l0,131.733c0,248.635 208.324,447.653 458.383,434.406c-181.108,-52.594 -313.492,-219.729 -313.492,-417.803c1.078,-24.477 0,-261.653 0,-351.745c0,-0.643 0.005,-1.282 0.009,-1.925c0.689,-91.629 76.186,-165.11 167.815,-165.018l483.102,0.48Z" style="fill:#ff965a;fill-rule:nonzero;"/></g><g><g><g><path d="M4376.91,3931.63c-8.918,35.616 7.289,74.412 38.287,86.106c6.237,2.355 12.909,3.628 19.847,3.628c6.935,-0 13.61,-1.273 19.847,-3.628c30.998,-11.694 47.209,-50.49 38.288,-86.106l-29.567,-118.072c-7.443,-29.725 -49.688,-29.725 -57.132,0l-29.57,118.072Z" style="fill:#ff965a;fill-rule:nonzero;"/></g></g></g><g><g><path d="M4865.82,3409.15l-0,459.014c-31.867,-0 -57.701,-25.834 -57.701,-57.701l0,-254.772c0,-56.273 -31.67,-108.141 -82.273,-132.755c-1.24,-0.606 -2.48,-1.194 -3.715,-1.766l-0,-12.015l143.689,-0l-0,-0.005Z" style="fill:#262a2d;fill-rule:nonzero;"/></g></g><g><path d="M4262.15,3811.9c-7.306,0 -13.226,-5.919 -13.226,-13.225l0,-40.054c0,-7.306 5.92,-13.225 13.226,-13.225c7.306,-0 13.226,5.919 13.226,13.225l-0,40.054c-0,7.306 -5.924,13.225 -13.226,13.225Z" style="fill:#fff;fill-rule:nonzero;"/></g><g><path d="M4554.49,3811.9c-7.306,0 -13.226,-5.919 -13.226,-13.225l-0,-40.054c-0,-7.306 5.92,-13.225 13.226,-13.225c7.306,-0 13.225,5.919 13.225,13.225l0,40.054c0,7.306 -5.919,13.225 -13.225,13.225Z" style="fill:#fff;fill-rule:nonzero;"/></g><g><path d="M4304.83,4157.09c26.515,44.224 74.901,73.836 130.213,73.836c23.963,0 46.616,-5.573 66.764,-15.464c-8.663,-54.335 -55.722,-95.866 -112.495,-95.866c-33.507,-0.004 -63.633,14.466 -84.482,37.494Z" style="fill:#ff3c3c;fill-rule:nonzero;"/></g><g><path d="M4508.81,4119.59l-151.784,-0c-11.819,-0 -21.404,-9.581 -21.404,-21.404l-0,-18.996l194.592,0l0,18.996c-0.004,11.823 -9.585,21.404 -21.404,21.404Z" style="fill:#fff;fill-rule:nonzero;"/></g><g><path d="M4497.93,3080.96c-123.286,0.113 -222.397,101.323 -220.205,224.593c0.935,52.523 2.355,105.038 4.517,157.533c0.017,0.434 0.038,0.868 0.055,1.302l513.536,0.505c89.358,0.088 161.841,-72.324 161.841,-161.682l0,-222.677l-459.744,0.426Z" style="fill:#373c41;fill-rule:nonzero;"/></g><g><g><path d="M4283.91,3326.91c0,-135.619 109.873,-245.592 245.492,-245.717l428.262,-0.397l-0,-0.263l-712.166,0.66c-135.619,0.125 -245.492,110.102 -245.492,245.717l-0,541.262c31.866,-0 57.7,-25.834 57.7,-57.701l0,-254.772c0,-0.338 0,-0.676 0.004,-1.01c0.343,-50.294 42.179,-90.477 92.477,-90.427l133.728,0.129l-0,-137.481l-0.005,0Z" style="fill:#262a2d;fill-rule:nonzero;"/></g></g><g><path d="M4236.36,5132.05c-13.831,-0 -25.049,-11.218 -25.049,-25.049l0,-289.49c0,-13.832 11.218,-25.049 25.049,-25.049c13.831,-0 25.049,11.217 25.049,25.049l-0,289.49c-0,13.831 -11.214,25.049 -25.049,25.049Z" style="fill:#dc1428;fill-rule:nonzero;"/></g><g><path d="M4236.36,5069.43c-13.831,0 -25.049,-11.217 -25.049,-25.049l0,-289.49c0,-13.831 11.218,-25.049 25.049,-25.049c13.831,0 25.049,11.218 25.049,25.049l-0,289.49c-0,13.836 -11.214,25.049 -25.049,25.049Z" style="fill:#fff;fill-rule:nonzero;"/></g><g><path d="M4645.52,5132.05c-13.832,-0 -25.049,-11.218 -25.049,-25.049l-0,-289.49c-0,-13.832 11.217,-25.049 25.049,-25.049c13.831,-0 25.048,11.217 25.048,25.049l0,289.49c0,13.831 -11.213,25.049 -25.048,25.049Z" style="fill:#dc1428;fill-rule:nonzero;"/></g><g><path d="M4645.52,5069.43c-13.832,0 -25.049,-11.217 -25.049,-25.049l-0,-289.49c-0,-13.831 11.217,-25.049 25.049,-25.049c13.831,0 25.048,11.218 25.048,25.049l0,289.49c0,13.836 -11.213,25.049 -25.048,25.049Z" style="fill:#fff;fill-rule:nonzero;"/></g><g><path d="M3980.99,4040.16c-10.374,-0 -18.786,-8.413 -18.786,-18.787l-0,-140.667c-0,-10.374 8.412,-18.786 18.786,-18.786c10.375,-0 18.787,8.412 18.787,18.786l-0,140.667c-0,10.379 -8.412,18.787 -18.787,18.787Z" style="fill:#fff;fill-rule:nonzero;"/></g><g><g><g><path d="M4934.48,3886.23c-0,37.92 -30.743,68.663 -68.663,68.663l-0,-136.491c37.92,-0 68.663,30.743 68.663,68.663l-0,-0.835Z" style="fill:#fff;fill-rule:nonzero;"/></g></g></g><g><path d="M4884.84,4050.6c-10.374,-0 -18.786,-8.412 -18.786,-18.787l-0,-140.666c-0,-10.375 8.412,-18.787 18.786,-18.787c10.375,0 18.787,8.412 18.787,18.787l-0,140.666c-0,10.375 -8.408,18.787 -18.787,18.787Z" style="fill:#fff;fill-rule:nonzero;"/></g></g></g></g></svg>