<?xml version="1.0" encoding="UTF-8" standalone="no"?>
<!DOCTYPE svg PUBLIC "-//W3C//DTD SVG 1.1//EN" "http://www.w3.org/Graphics/SVG/1.1/DTD/svg11.dtd">
<svg width="100%" height="100%" viewBox="0 0 24 16" version="1.1" xmlns="http://www.w3.org/2000/svg" xmlns:xlink="http://www.w3.org/1999/xlink" xml:space="preserve" xmlns:serif="http://www.serif.com/" style="fill-rule:evenodd;clip-rule:evenodd;">
    <g id="_319" serif:id="319">
        <g id="New-Icons">
            <g id="Card-Brands">
                <g id="Color">
                    <g id="Discover">
                        <path id="shape" d="M21.997,15.75L21.999,15.75C22.954,15.758 23.738,14.977 23.75,14.004L23.75,2.006C23.746,1.536 23.559,1.086 23.23,0.757C22.901,0.428 22.459,0.246 21.997,0.25L2.001,0.25C1.541,0.246 1.099,0.428 0.77,0.757C0.441,1.086 0.254,1.536 0.25,2.004L0.25,13.994C0.254,14.464 0.441,14.914 0.77,15.243C1.099,15.572 1.541,15.754 2.003,15.75L21.997,15.75ZM21.997,16.25L21.995,16.25L21.997,16.25Z" style="fill:white;fill-rule:nonzero;stroke:black;stroke-opacity:0.2;stroke-width:0.5px;"/>
                        <path id="shape1" serif:id="shape" d="M12.612,16L21.997,16C22.524,16.004 23.031,15.799 23.407,15.43C23.782,15.061 23.996,14.557 24,14.03L24,11.672C20.456,13.706 16.613,15.167 12.612,16Z" style="fill:rgb(242,119,18);fill-rule:nonzero;"/>
                        <path id="shape2" serif:id="shape" d="M23.172,9.296L22.32,9.296L21.36,8.03L21.269,8.03L21.269,9.296L20.574,9.296L20.574,6.152L21.6,6.152C22.403,6.152 22.866,6.483 22.866,7.079C22.866,7.567 22.577,7.881 22.055,7.981L23.172,9.296ZM22.146,7.103C22.146,6.797 21.914,6.64 21.484,6.64L21.269,6.64L21.269,7.592L21.468,7.592C21.914,7.592 22.146,7.426 22.146,7.103ZM18.141,6.152L20.11,6.152L20.11,6.681L18.836,6.681L18.836,7.385L20.061,7.385L20.061,7.923L18.836,7.923L18.836,8.775L20.11,8.775L20.11,9.305L18.141,9.305L18.141,6.152ZM15.906,9.379L14.4,6.143L15.161,6.143L16.113,8.262L17.073,6.143L17.818,6.143L16.295,9.379L15.906,9.379ZM9.608,9.371C8.549,9.371 7.721,8.651 7.721,7.716C7.721,6.805 8.566,6.069 9.625,6.069C9.923,6.069 10.171,6.127 10.477,6.259L10.477,6.988C10.245,6.76 9.933,6.632 9.608,6.632C8.946,6.632 8.441,7.112 8.441,7.716C8.441,8.353 8.938,8.808 9.641,8.808C9.956,8.808 10.196,8.709 10.477,8.461L10.477,9.189C10.163,9.321 9.898,9.371 9.608,9.371ZM7.506,8.336C7.506,8.949 7.001,9.371 6.273,9.371C5.743,9.371 5.363,9.189 5.04,8.775L5.495,8.386C5.652,8.668 5.917,8.808 6.248,8.808C6.563,8.808 6.786,8.618 6.786,8.37C6.786,8.229 6.72,8.121 6.579,8.039C6.425,7.964 6.264,7.903 6.099,7.856C5.446,7.65 5.222,7.426 5.222,6.988C5.222,6.474 5.702,6.085 6.331,6.085C6.728,6.085 7.084,6.21 7.382,6.441L7.018,6.855C6.874,6.697 6.669,6.607 6.455,6.607C6.157,6.607 5.942,6.756 5.942,6.954C5.942,7.12 6.066,7.211 6.48,7.352C7.274,7.6 7.506,7.832 7.506,8.345L7.506,8.336ZM4.088,6.152L4.783,6.152L4.783,9.305L4.088,9.305L4.088,6.152ZM1.854,9.305L0.828,9.305L0.828,6.152L1.854,6.152C2.979,6.152 3.757,6.797 3.757,7.724C3.757,8.196 3.526,8.643 3.12,8.941C2.772,9.189 2.383,9.305 1.846,9.305L1.854,9.305ZM2.665,6.938C2.433,6.756 2.168,6.69 1.713,6.69L1.523,6.69L1.523,8.775L1.713,8.775C2.16,8.775 2.441,8.692 2.665,8.527C2.905,8.328 3.046,8.03 3.046,7.724C3.046,7.418 2.905,7.128 2.665,6.938Z" style="fill-rule:nonzero;"/>
                        <path id="shape3" serif:id="shape" d="M12.414,6.069C11.503,6.069 10.759,6.797 10.759,7.699C10.759,8.659 11.47,9.379 12.414,9.379C13.341,9.379 14.069,8.651 14.069,7.724C14.069,6.797 13.349,6.069 12.414,6.069Z" style="fill:rgb(242,119,18);fill-rule:nonzero;"/>
                    </g>
                </g>
            </g>
        </g>
    </g>
</svg>
