<?xml version="1.0" encoding="UTF-8" standalone="no"?>
<!DOCTYPE svg PUBLIC "-//W3C//DTD SVG 1.1//EN" "http://www.w3.org/Graphics/SVG/1.1/DTD/svg11.dtd">
<svg width="100%" height="100%" viewBox="0 0 23 16" version="1.1" xmlns="http://www.w3.org/2000/svg" xmlns:xlink="http://www.w3.org/1999/xlink" xml:space="preserve" xmlns:serif="http://www.serif.com/" style="fill-rule:evenodd;clip-rule:evenodd;stroke-linejoin:round;stroke-miterlimit:2;">
    <g>
        <path d="M0.205,16L4.723,16C5.751,16 6.982,14.805 6.982,13.867L6.982,0L2.464,0C1.436,0 0.205,1.195 0.205,3.2L0.205,16Z" style="fill:rgb(4,122,177);fill-rule:nonzero;"/>
        <path d="M2.769,10.816C1.902,10.816 1.039,10.701 0.205,10.475L0.205,9.301C0.852,9.679 1.591,9.892 2.351,9.92C3.221,9.92 3.707,9.344 3.707,8.555L3.707,5.333L5.853,5.333L5.853,8.555C5.853,9.813 5.152,10.816 2.769,10.816Z" style="fill:white;fill-rule:nonzero;"/>
        <path d="M8.112,16L12.629,16C13.657,16 14.888,14.805 14.888,13.867L14.888,0L10.371,0C9.343,0 8.112,1.195 8.112,3.2L8.112,16Z" style="fill:rgb(212,45,6);fill-rule:nonzero;"/>
        <path d="M8.112,6.08C8.767,5.483 9.896,5.109 11.726,5.195C12.72,5.237 13.759,5.515 13.759,5.515L13.759,6.699C13.165,6.359 12.497,6.151 11.805,6.091C10.416,5.973 9.569,6.709 9.569,8C9.569,9.291 10.416,10.027 11.805,9.92C12.497,9.854 13.165,9.643 13.759,9.301L13.759,10.475C13.759,10.475 12.72,10.763 11.726,10.805C9.896,10.891 8.767,10.517 8.112,9.92L8.112,6.08Z" style="fill:white;fill-rule:nonzero;"/>
        <path d="M16.018,16L20.536,16C21.564,16 22.795,14.805 22.795,13.867L22.795,0L18.277,0C17.249,0 16.018,1.195 16.018,3.2L16.018,16Z" style="fill:rgb(103,182,55);fill-rule:nonzero;"/>
        <path d="M21.665,9.28C21.665,10.133 20.965,10.667 20.027,10.667L16.018,10.667L16.018,5.333L19.666,5.333L19.926,5.344C20.75,5.387 21.36,5.845 21.36,6.635C21.36,7.253 20.942,7.787 20.186,7.915L20.186,7.947C21.021,8 21.665,8.501 21.665,9.28ZM18.785,6.176C18.736,6.169 18.687,6.166 18.638,6.165L17.283,6.165L17.283,7.509L18.785,7.509C19.067,7.445 19.305,7.2 19.305,6.837C19.305,6.475 19.067,6.229 18.785,6.176ZM18.954,8.352C18.895,8.343 18.834,8.34 18.774,8.341L17.283,8.341L17.283,9.803L18.774,9.803L18.954,9.781C19.237,9.717 19.474,9.44 19.474,9.067C19.474,8.693 19.248,8.427 18.954,8.352Z" style="fill:white;fill-rule:nonzero;"/>
    </g>
</svg>
