<?xml version="1.0" encoding="UTF-8" standalone="no"?>
<!DOCTYPE svg PUBLIC "-//W3C//DTD SVG 1.1//EN" "http://www.w3.org/Graphics/SVG/1.1/DTD/svg11.dtd">
<svg width="100%" height="100%" viewBox="0 0 24 16" version="1.1" xmlns="http://www.w3.org/2000/svg" xmlns:xlink="http://www.w3.org/1999/xlink" xml:space="preserve" xmlns:serif="http://www.serif.com/" style="fill-rule:evenodd;clip-rule:evenodd;stroke-linejoin:round;stroke-miterlimit:2;">
    <g>
        <path d="M4.546,0L10.34,0C11.148,0 11.651,0.726 11.463,1.619L8.765,14.368C8.575,15.258 7.765,15.984 6.956,15.984L1.163,15.984C0.355,15.984 -0.149,15.258 0.04,14.368L2.738,1.619C2.927,0.726 3.736,0 4.546,0" style="fill:rgb(221,36,35);fill-rule:nonzero;"/>
        <path d="M9.858,0L16.52,0C17.329,0 16.964,0.726 16.774,1.619L14.077,14.368C13.888,15.258 13.947,15.984 13.137,15.984L6.474,15.984C5.664,15.984 5.162,15.258 5.352,14.368L8.049,1.619C8.241,0.726 9.048,0 9.858,0" style="fill:rgb(22,49,94);fill-rule:nonzero;"/>
        <path d="M16.256,0L22.05,0C22.86,0 23.363,0.726 23.172,1.619L20.475,14.368C20.285,15.258 19.475,15.984 18.665,15.984L12.874,15.984C12.064,15.984 11.561,15.258 11.751,14.368L14.448,1.619C14.637,0.726 15.446,0 16.256,0" style="fill:rgb(3,104,98);fill-rule:nonzero;"/>
        <path d="M6.059,4.086C5.463,4.092 5.287,4.086 5.231,4.071C5.209,4.184 4.807,6.226 4.806,6.227C4.72,6.64 4.657,6.935 4.443,7.125C4.321,7.235 4.18,7.289 4.015,7.289C3.751,7.289 3.597,7.144 3.571,6.87L3.566,6.776C3.566,6.776 3.647,6.223 3.647,6.22C3.647,6.22 4.069,4.36 4.144,4.114C4.148,4.1 4.149,4.092 4.15,4.086C3.329,4.094 3.183,4.086 3.173,4.071C3.168,4.091 3.148,4.206 3.148,4.206L2.717,6.303L2.68,6.481L2.608,7.063C2.608,7.235 2.639,7.376 2.7,7.495C2.896,7.873 3.456,7.93 3.773,7.93C4.181,7.93 4.564,7.834 4.823,7.66C5.272,7.368 5.389,6.911 5.494,6.505L5.543,6.297C5.543,6.297 5.977,4.365 6.051,4.114C6.054,4.1 6.055,4.092 6.059,4.086ZM7.538,5.644C7.433,5.644 7.242,5.672 7.07,5.765C7.007,5.801 6.948,5.841 6.886,5.882L6.942,5.658L6.911,5.621C6.547,5.702 6.465,5.713 6.128,5.765L6.1,5.786C6.061,6.143 6.026,6.411 5.881,7.113C5.826,7.372 5.768,7.633 5.711,7.891L5.726,7.924C6.072,7.904 6.176,7.904 6.477,7.909L6.501,7.88C6.539,7.665 6.544,7.615 6.628,7.18C6.668,6.973 6.751,6.519 6.792,6.358C6.867,6.32 6.941,6.282 7.011,6.282C7.179,6.282 7.159,6.444 7.152,6.508C7.145,6.616 7.084,6.969 7.021,7.272L6.979,7.467C6.95,7.612 6.918,7.752 6.889,7.895L6.901,7.924C7.242,7.904 7.345,7.904 7.636,7.909L7.67,7.88C7.723,7.545 7.738,7.455 7.831,6.966L7.878,6.741C7.969,6.302 8.015,6.079 7.946,5.897C7.873,5.694 7.699,5.644 7.538,5.644ZM9.19,6.105C9.009,6.143 8.894,6.168 8.779,6.185C8.665,6.205 8.555,6.223 8.38,6.25L8.366,6.264L8.353,6.275C8.335,6.418 8.322,6.542 8.298,6.688C8.278,6.838 8.246,7.009 8.195,7.255C8.155,7.444 8.135,7.509 8.112,7.575C8.09,7.642 8.066,7.706 8.021,7.891L8.032,7.908L8.04,7.924C8.204,7.915 8.311,7.909 8.421,7.908C8.53,7.904 8.644,7.908 8.82,7.909L8.835,7.896L8.852,7.88C8.877,7.713 8.881,7.668 8.897,7.587C8.912,7.5 8.939,7.379 9.004,7.056C9.034,6.904 9.069,6.753 9.101,6.598C9.134,6.444 9.169,6.292 9.202,6.14L9.197,6.122L9.19,6.105ZM9.194,5.484C9.03,5.377 8.741,5.411 8.547,5.559C8.353,5.703 8.331,5.908 8.495,6.017C8.657,6.121 8.946,6.09 9.139,5.941C9.332,5.793 9.356,5.59 9.194,5.484ZM10.188,7.957C10.521,7.957 10.862,7.857 11.118,7.557C11.316,7.314 11.406,6.953 11.437,6.804C11.54,6.311 11.46,6.081 11.36,5.941C11.209,5.727 10.94,5.658 10.662,5.658C10.495,5.658 10.097,5.677 9.786,5.992C9.562,6.22 9.459,6.529 9.397,6.825C9.334,7.127 9.262,7.671 9.716,7.873C9.856,7.939 10.058,7.957 10.188,7.957ZM10.162,6.848C10.239,6.475 10.329,6.161 10.56,6.161C10.741,6.161 10.754,6.394 10.674,6.769C10.66,6.852 10.593,7.161 10.504,7.293C10.442,7.39 10.368,7.449 10.286,7.449C10.262,7.449 10.117,7.449 10.115,7.213C10.114,7.096 10.136,6.977 10.162,6.848ZM12.269,7.909L12.295,7.88C12.332,7.665 12.338,7.615 12.419,7.18C12.46,6.973 12.545,6.52 12.584,6.358C12.659,6.32 12.732,6.282 12.805,6.282C12.972,6.282 12.952,6.444 12.945,6.508C12.939,6.616 12.878,6.969 12.814,7.272L12.774,7.467C12.744,7.612 12.711,7.752 12.681,7.895L12.694,7.924C13.036,7.904 13.135,7.904 13.428,7.909L13.463,7.88C13.514,7.544 13.528,7.455 13.624,6.966L13.67,6.741C13.761,6.301 13.808,6.079 13.74,5.897C13.665,5.694 13.489,5.644 13.331,5.644C13.226,5.644 13.033,5.672 12.862,5.765C12.801,5.801 12.74,5.841 12.68,5.882L12.732,5.658L12.704,5.621C12.339,5.702 12.256,5.713 11.92,5.765L11.894,5.786C11.853,6.143 11.82,6.411 11.675,7.113C11.619,7.372 11.562,7.633 11.505,7.891L11.52,7.924C11.866,7.904 11.969,7.904 12.269,7.909ZM14.778,7.924C14.799,7.809 14.927,7.125 14.928,7.125C14.928,7.125 15.036,6.623 15.043,6.605C15.043,6.605 15.077,6.553 15.111,6.532L15.162,6.532C15.636,6.532 16.172,6.532 16.591,6.192C16.877,5.959 17.072,5.615 17.16,5.196C17.182,5.094 17.199,4.972 17.199,4.85C17.199,4.689 17.17,4.531 17.085,4.407C16.871,4.077 16.445,4.071 15.953,4.069C15.951,4.069 15.71,4.071 15.71,4.071C15.08,4.08 14.827,4.077 14.724,4.063C14.715,4.114 14.698,4.203 14.698,4.203C14.698,4.203 14.473,5.355 14.473,5.357C14.473,5.357 13.933,7.804 13.907,7.92C14.457,7.912 14.683,7.912 14.778,7.924ZM15.196,5.879C15.196,5.879 15.436,4.73 15.435,4.734L15.442,4.675L15.446,4.63L15.542,4.641C15.542,4.641 16.036,4.688 16.048,4.689C16.243,4.772 16.324,4.987 16.268,5.267C16.216,5.522 16.066,5.737 15.872,5.841C15.713,5.929 15.517,5.936 15.316,5.936L15.186,5.936L15.196,5.879ZM16.69,6.869C16.626,7.167 16.553,7.71 17.005,7.904C17.149,7.971 17.278,7.992 17.409,7.984C17.548,7.976 17.676,7.899 17.795,7.789C17.784,7.835 17.774,7.88 17.763,7.925L17.783,7.954C18.108,7.939 18.209,7.939 18.561,7.942L18.593,7.915C18.645,7.583 18.693,7.26 18.827,6.623C18.892,6.318 18.957,6.017 19.024,5.713L19.013,5.68C18.65,5.754 18.552,5.77 18.203,5.824L18.176,5.848C18.173,5.879 18.169,5.909 18.166,5.938C18.111,5.842 18.032,5.759 17.911,5.708C17.755,5.64 17.39,5.727 17.076,6.042C16.856,6.266 16.75,6.574 16.69,6.869ZM17.453,6.887C17.531,6.521 17.62,6.21 17.852,6.21C17.998,6.21 18.075,6.359 18.06,6.613C18.047,6.676 18.034,6.743 18.018,6.818C17.995,6.927 17.97,7.035 17.945,7.143C17.92,7.217 17.891,7.287 17.86,7.334C17.8,7.427 17.658,7.484 17.577,7.484C17.553,7.484 17.411,7.484 17.406,7.252C17.404,7.137 17.426,7.018 17.453,6.887ZM21.44,5.677L21.412,5.641C21.052,5.722 20.987,5.734 20.656,5.783L20.632,5.81C20.631,5.814 20.63,5.821 20.628,5.827L20.627,5.821C20.381,6.446 20.388,6.311 20.188,6.803C20.187,6.781 20.187,6.767 20.186,6.743L20.136,5.677L20.104,5.641C19.727,5.722 19.719,5.734 19.371,5.783L19.343,5.81C19.34,5.823 19.34,5.837 19.337,5.852L19.34,5.858C19.383,6.102 19.373,6.048 19.416,6.434C19.437,6.623 19.464,6.814 19.484,7.001C19.518,7.314 19.538,7.469 19.58,7.947C19.345,8.373 19.289,8.535 19.063,8.91L19.064,8.913L18.905,9.191C18.887,9.22 18.87,9.24 18.847,9.248C18.822,9.262 18.789,9.265 18.743,9.265L18.654,9.265L18.523,9.745L18.973,9.754C19.238,9.752 19.404,9.616 19.493,9.434L19.776,8.9L19.771,8.9L19.801,8.862C19.992,8.411 21.44,5.677 21.44,5.677ZM16.69,11.985L16.499,11.985L17.205,9.412L17.44,9.412L17.514,9.147L17.521,9.442C17.513,9.624 17.643,9.786 17.985,9.759L18.38,9.759L18.517,9.264L18.368,9.264C18.282,9.264 18.242,9.24 18.247,9.189L18.24,8.889L17.508,8.889L17.508,8.891C17.271,8.896 16.564,8.916 16.42,8.958C16.247,9.007 16.065,9.151 16.065,9.151L16.136,8.886L15.451,8.886L15.308,9.412L14.592,12.025L14.453,12.025L14.317,12.517L15.682,12.517L15.636,12.681L16.308,12.681L16.353,12.517L16.542,12.517L16.69,11.985ZM16.13,9.935C16.02,9.969 15.816,10.07 15.816,10.07L15.997,9.412L16.542,9.412L16.41,9.892C16.41,9.892 16.242,9.902 16.13,9.935ZM16.14,10.875C16.14,10.875 15.969,10.898 15.857,10.926C15.746,10.963 15.538,11.08 15.538,11.08L15.725,10.396L16.273,10.396L16.14,10.875ZM15.835,11.991L15.289,11.991L15.447,11.414L15.992,11.414L15.835,11.991ZM17.15,10.396L17.937,10.396L17.824,10.799L17.027,10.799L16.907,11.24L17.605,11.24L17.076,12.059C17.039,12.119 17.006,12.14 16.969,12.157C16.932,12.178 16.884,12.202 16.828,12.202L16.634,12.202L16.501,12.685L17.007,12.685C17.271,12.685 17.426,12.553 17.541,12.38L17.903,11.834L17.981,12.388C17.998,12.492 18.065,12.553 18.111,12.577C18.162,12.605 18.214,12.653 18.288,12.66C18.368,12.664 18.425,12.667 18.463,12.667L18.712,12.667L18.861,12.126L18.763,12.126C18.707,12.126 18.61,12.116 18.593,12.096C18.577,12.073 18.577,12.036 18.568,11.981L18.489,11.425L18.166,11.425L18.307,11.24L19.104,11.24L19.226,10.799L18.489,10.799L18.604,10.396L19.339,10.396L19.475,9.898L17.284,9.898L17.15,10.396ZM10.502,12.104L10.686,11.431L11.441,11.431L11.579,10.93L10.823,10.93L10.938,10.516L11.677,10.516L11.814,10.032L9.966,10.032L9.832,10.516L10.251,10.516L10.14,10.93L9.719,10.93L9.579,11.439L9.999,11.439L9.754,12.33C9.721,12.447 9.769,12.492 9.8,12.547C9.832,12.6 9.864,12.636 9.935,12.656C10.009,12.674 10.06,12.685 10.129,12.685L10.98,12.685L11.132,12.13L10.755,12.188C10.682,12.188 10.48,12.178 10.502,12.104ZM10.588,8.883L10.397,9.264C10.356,9.347 10.319,9.398 10.286,9.422C10.257,9.442 10.199,9.451 10.115,9.451L10.015,9.451L9.882,9.938L10.213,9.938C10.373,9.938 10.495,9.873 10.554,9.841C10.617,9.804 10.633,9.825 10.682,9.774L10.794,9.667L11.829,9.667L11.966,9.16L11.209,9.16L11.341,8.883L10.588,8.883ZM12.117,12.113C12.099,12.086 12.112,12.036 12.139,11.934L12.422,10.902L13.429,10.902C13.576,10.9 13.682,10.898 13.75,10.893C13.824,10.884 13.905,10.855 13.993,10.803C14.083,10.748 14.129,10.691 14.169,10.624C14.212,10.558 14.282,10.414 14.342,10.191L14.698,8.886L13.653,8.893C13.653,8.893 13.332,8.945 13.19,9.003C13.047,9.067 12.843,9.247 12.843,9.247L12.937,8.889L12.292,8.889L11.388,12.187C11.356,12.316 11.335,12.409 11.33,12.464C11.328,12.525 11.399,12.584 11.445,12.629C11.499,12.674 11.579,12.667 11.655,12.674C11.736,12.681 11.851,12.685 12.009,12.685L12.505,12.685L12.657,12.119L12.213,12.165C12.166,12.165 12.131,12.137 12.117,12.113ZM12.605,10.206L13.662,10.206L13.595,10.438C13.585,10.443 13.563,10.426 13.455,10.44L12.54,10.44L12.605,10.206ZM12.817,9.428L13.883,9.428L13.806,9.708C13.806,9.708 13.304,9.702 13.223,9.718C12.869,9.786 12.662,9.994 12.662,9.994L12.817,9.428ZM13.619,11.215C13.61,11.249 13.596,11.271 13.577,11.286C13.555,11.302 13.52,11.307 13.469,11.307L13.318,11.307L13.327,11.025L12.7,11.025L12.675,12.405C12.674,12.505 12.682,12.563 12.749,12.609C12.815,12.667 13.019,12.674 13.294,12.674L13.686,12.674L13.828,12.157L13.486,12.178L13.373,12.185C13.357,12.178 13.342,12.171 13.326,12.153C13.311,12.137 13.287,12.147 13.291,12.047L13.294,11.693L13.652,11.677C13.846,11.677 13.929,11.608 13.999,11.541C14.067,11.478 14.089,11.405 14.114,11.307L14.174,10.994L13.681,10.994L13.619,11.215Z" style="fill:rgb(254,254,254);fill-rule:nonzero;"/>
    </g>
</svg>
