<?xml version="1.0" encoding="UTF-8" standalone="no"?>
<!DOCTYPE svg PUBLIC "-//W3C//DTD SVG 1.1//EN" "http://www.w3.org/Graphics/SVG/1.1/DTD/svg11.dtd">
<svg width="100%" height="100%" viewBox="0 0 24 16" version="1.1" xmlns="http://www.w3.org/2000/svg" xmlns:xlink="http://www.w3.org/1999/xlink" xml:space="preserve" xmlns:serif="http://www.serif.com/" style="fill-rule:evenodd;clip-rule:evenodd;">
    <g id="_319" serif:id="319">
        <g id="New-Icons">
            <g id="Card-Brands">
                <g id="Color">
                    <g id="Visa">
                        <path id="Container" d="M23.75,2.25C23.75,1.146 22.854,0.25 21.75,0.25L2.25,0.25C1.146,0.25 0.25,1.146 0.25,2.25L0.25,13.75C0.25,14.854 1.146,15.75 2.25,15.75L21.75,15.75C22.854,15.75 23.75,14.854 23.75,13.75L23.75,2.25Z" style="fill:white;stroke:black;stroke-opacity:0.2;stroke-width:0.5px;"/>
                        <path id="Shape" d="M2.788,5.914C2.265,5.628 1.668,5.397 1,5.237L1.028,5.112L3.765,5.112C4.136,5.125 4.437,5.237 4.535,5.631L5.13,8.467L5.312,9.321L6.978,5.112L8.777,5.112L6.103,11.278L4.304,11.278L2.788,5.914ZM10.1,11.284L8.399,11.284L9.463,5.112L11.164,5.112L10.1,11.284ZM16.267,5.263L16.035,6.596L15.882,6.53C15.574,6.405 15.167,6.281 14.614,6.294C13.943,6.294 13.642,6.563 13.635,6.825C13.635,7.114 13.999,7.305 14.594,7.587C15.574,8.027 16.029,8.566 16.022,9.268C16.008,10.549 14.846,11.376 13.061,11.376C12.298,11.369 11.563,11.218 11.164,11.048L11.402,9.662L11.626,9.761C12.179,9.991 12.543,10.089 13.222,10.089C13.712,10.089 14.237,9.898 14.244,9.485C14.244,9.216 14.02,9.019 13.362,8.716C12.718,8.421 11.857,7.928 11.871,7.042C11.878,5.84 13.061,5 14.741,5C15.399,5 15.931,5.138 16.267,5.263ZM18.528,9.097L19.942,9.097C19.872,8.789 19.55,7.311 19.55,7.311L19.431,6.78C19.347,7.009 19.2,7.384 19.207,7.371C19.207,7.371 18.668,8.743 18.528,9.097ZM20.628,5.112L22,11.284L20.425,11.284C20.425,11.284 20.271,10.575 20.222,10.358L18.038,10.358C17.975,10.522 17.681,11.284 17.681,11.284L15.896,11.284L18.423,5.624C18.598,5.223 18.906,5.112 19.312,5.112L20.628,5.112Z" style="fill:rgb(20,52,203);fill-rule:nonzero;"/>
                    </g>
                </g>
            </g>
        </g>
    </g>
</svg>
