<?xml version="1.0" encoding="UTF-8" standalone="no"?><!DOCTYPE svg PUBLIC "-//W3C//DTD SVG 1.1//EN" "http://www.w3.org/Graphics/SVG/1.1/DTD/svg11.dtd"><svg width="100%" height="100%" viewBox="0 0 2898 2241" version="1.1" xmlns="http://www.w3.org/2000/svg" xmlns:xlink="http://www.w3.org/1999/xlink" xml:space="preserve" xmlns:serif="http://www.serif.com/" style="fill-rule:evenodd;clip-rule:evenodd;stroke-linejoin:round;stroke-miterlimit:2;"><g><path d="M1196.83,405.824c-109.28,17.36 -216.971,39.611 -322.587,65.737c-147.083,36.383 -307.05,95.554 -345.505,239.823c-29.962,112.405 26.186,246.176 107.873,351.506c81.687,105.33 187.346,190.89 281.835,285.94c35.257,35.46 71.347,77.19 74.694,122.8c3.409,46.44 -29.758,83.22 -70.701,99.41c-40.943,16.19 -88.824,15.97 -135.35,16.78c-160.651,2.77 -318.507,20.07 -471.024,51.64c-60.42,12.5 -121.487,27.92 -168.04,63.77c-46.554,35.86 -76.289,96.49 -60.021,160.12c24.541,96 133.971,154.41 229.209,192.03c659.17,260.41 1432.05,230.93 2002.58,-12.96c61.54,-26.31 128.88,-69.5 119.61,-140.61c-7.02,-53.9 -55.72,-98.35 -90.1,-145.56c-82.01,-112.61 -85.39,-257.01 -40.29,-368.34c45.11,-111.33 131.52,-196.04 218.78,-275.59c61.42,-55.98 124.98,-111.73 165.34,-185.053c40.36,-73.322 54.68,-168.583 14.61,-255.691c-63.05,-137.057 -228.55,-202.574 -372.91,-236.531c-385.43,-90.669 -770.74,-87.561 -1138,-29.221Z" style="fill:#ccdcf1;fill-rule:nonzero;"/><path d="M2642.09,2241l-2576.06,0c-36.319,0 -66.033,-29.71 -66.033,-66.03c0,-36.32 29.714,-66.03 66.033,-66.03l2576.06,0c36.32,0 66.03,29.71 66.03,66.03c0,36.32 -29.71,66.03 -66.03,66.03Z" style="fill:#a9c3e6;fill-rule:nonzero;"/><path d="M2017.77,1839.98c-3.97,-136.43 -7.83,-272.95 -4.38,-409.43c3.41,-135.22 14.05,-270.59 39.13,-403.63c21.52,-114.129 54.13,-226.014 101.1,-332.337c43.48,-98.424 98.83,-191.932 167.04,-275.285c67.82,-82.878 148.82,-155.49 241.12,-210.136c11.23,-6.651 22.62,-13.017 34.15,-19.148c5.58,-2.968 1.39,-11.89 -4.23,-8.901c-94.47,50.253 -178.27,118.295 -249.53,197.944c-72.22,80.744 -131.27,172.755 -178.4,270.164c-49.09,101.481 -84.71,208.84 -109.15,318.802c-29.57,133.087 -43.59,269.127 -49.19,405.207c-5.67,138.08 -2.83,276.33 1.04,414.42c0.48,17.16 0.98,34.33 1.48,51.49c0.18,6.27 10,7.18 9.82,0.84Z" style="fill:#0b5e45;fill-rule:nonzero;"/><path d="M2897.37,460.915c-0.06,4.306 -5.99,8.275 -16.98,11.799c-2.75,0.894 -5.81,1.706 -9.18,2.586c-3.37,0.894 -7.05,1.765 -11.01,2.611c-3.97,0.851 -8.23,1.652 -12.77,2.472c-4.54,0.889 -9.37,1.755 -14.46,2.598c-5.09,0.823 -10.46,1.69 -16.09,2.6c-5.62,0.913 -11.51,1.797 -17.64,2.673c-6.13,0.996 -12.51,1.974 -19.14,2.931c-1.65,0.236 -3.32,0.476 -5.01,0.717c-1.68,0.268 -3.38,0.539 -5.09,0.812c-3.43,0.526 -6.92,1.06 -10.46,1.604c-28.34,4.34 -60.32,9.424 -95.23,15.863c-17.47,3.221 -35.96,6.632 -55.33,10.204c-4.83,0.947 -9.73,1.904 -14.67,2.871c-4.94,0.992 -9.98,1.846 -15,2.947c-10.07,2.117 -20.4,4.106 -30.84,6.483c-20.94,4.454 -42.49,9.709 -64.58,15.419c-5.51,1.483 -11.05,2.977 -16.63,4.478c-2.8,0.728 -5.57,1.542 -8.36,2.354c-2.8,0.809 -5.6,1.62 -8.4,2.433c-11.28,3.151 -22.51,6.822 -33.94,10.341c-22.71,7.427 -45.68,15.559 -68.62,24.617c-22.87,9.172 -45.76,19.153 -68.32,30.093c-22.5,11.046 -44.71,22.971 -66.34,35.79c-21.54,12.946 -42.5,26.764 -62.6,41.375c20.1,-14.61 40.52,-29.172 61.24,-43.496c20.81,-14.197 41.91,-28.135 63.24,-41.674c21.39,-13.432 43.03,-26.385 64.75,-38.815c21.78,-12.315 43.69,-23.99 65.53,-35.023c11,-5.321 21.85,-10.81 32.79,-15.765c2.73,-1.264 5.45,-2.525 8.17,-3.782c2.71,-1.261 5.42,-2.522 8.15,-3.696c5.45,-2.389 10.87,-4.764 16.26,-7.125c21.67,-9.198 43.03,-17.762 64.05,-25.095c10.47,-3.816 20.89,-7.137 31.12,-10.448c5.1,-1.696 10.22,-3.112 15.27,-4.627c5.05,-1.469 10.04,-2.972 15.02,-4.319c19.9,-5.352 39.09,-9.906 57.4,-13.21c36.6,-6.751 70.39,-10.552 100.3,-12.232c3.74,-0.184 7.42,-0.366 11.04,-0.544c1.8,-0.079 3.59,-0.157 5.37,-0.234c1.78,-0.037 3.54,-0.073 5.29,-0.109c6.98,-0.125 13.71,-0.189 20.16,-0.193c6.46,0.115 12.65,0.3 18.55,0.53c2.96,0.128 5.84,0.214 8.65,0.416c2.81,0.215 5.55,0.425 8.21,0.629c5.33,0.443 10.37,0.931 15.09,1.463c4.73,0.601 9.16,1.286 13.26,1.982c4.11,0.702 7.9,1.441 11.37,2.213c3.46,0.787 6.6,1.699 9.41,2.584c11.22,3.589 17.06,7.592 17,11.899Z" style="fill:#0b5e45;fill-rule:nonzero;"/><path d="M1921.04,41.941c2.36,-3.604 8.52,-4.233 18.18,-1.956c2.4,0.583 5.07,1.287 7.86,2.281c2.79,1.011 5.78,2.209 8.97,3.593c3.18,1.389 6.58,2.936 10.14,4.715c3.49,1.856 7.17,3.901 11.03,6.132c1.92,1.131 3.9,2.293 5.92,3.485c2.02,1.203 3.99,2.566 6.05,3.914c4.09,2.727 8.36,5.635 12.76,8.741c4.3,3.23 8.74,6.649 13.32,10.252c1.14,0.906 2.29,1.82 3.46,2.742c1.12,0.962 2.26,1.932 3.41,2.911c2.28,1.977 4.6,3.988 6.96,6.032c18.72,16.54 38.4,37.069 57.39,61.621c9.57,12.217 18.66,25.928 27.54,40.616c2.2,3.681 4.28,7.499 6.43,11.315c1.07,1.915 2.14,3.84 3.21,5.775c0.53,0.97 1.07,1.942 1.6,2.916c0.5,0.992 1.01,1.986 1.52,2.983c4.03,7.984 8.2,16.066 11.91,24.553c7.79,16.777 14.6,34.65 20.95,53.071c1.51,4.633 3.02,9.295 4.55,13.984c0.78,2.329 1.46,4.707 2.14,7.089c0.69,2.377 1.37,4.761 2.06,7.151c0.69,2.386 1.37,4.778 2.06,7.176c0.71,2.387 1.26,4.84 1.89,7.262c1.23,4.852 2.46,9.726 3.7,14.622c4.5,19.689 8.35,39.775 11.32,60.122c2.8,20.383 4.91,40.962 6.18,61.595c1.1,20.653 1.49,41.315 1.2,61.861c-0.5,20.551 -1.66,40.95 -3.32,61.127c1.66,-20.179 1.9,-40.65 0.8,-61.077c-1.31,-20.425 -3.98,-40.773 -7.77,-60.768c-3.96,-19.98 -9.16,-39.565 -15.18,-58.58c-6.18,-18.985 -13.35,-37.336 -21.04,-54.989c-2.03,-4.367 -4.05,-8.715 -6.05,-13.043c-1.03,-2.151 -1.96,-4.328 -3.05,-6.436c-1.06,-2.114 -2.13,-4.224 -3.19,-6.327c-1.06,-2.099 -2.11,-4.193 -3.16,-6.281c-1.05,-2.088 -2.09,-4.169 -3.23,-6.199c-2.21,-4.076 -4.42,-8.128 -6.6,-12.154c-9.02,-15.947 -18.13,-31.201 -27.65,-45.435c-4.59,-7.218 -9.49,-14.049 -14.11,-20.837c-0.58,-0.848 -1.15,-1.693 -1.73,-2.537c-0.6,-0.826 -1.2,-1.651 -1.791,-2.474c-1.189,-1.646 -2.379,-3.283 -3.559,-4.911c-2.37,-3.249 -4.62,-6.517 -6.951,-9.67c-9.409,-12.575 -18.369,-24.528 -27.069,-35.628c-17.27,-22.316 -34,-41.851 -49.19,-58.857c-1.9,-2.126 -3.78,-4.216 -5.62,-6.272c-0.91,-1.036 -1.82,-2.064 -2.71,-3.082c-0.93,-0.99 -1.85,-1.971 -2.76,-2.943c-3.63,-3.896 -7.1,-7.699 -10.4,-11.402c-3.41,-3.576 -6.66,-7.043 -9.72,-10.416c-1.55,-1.672 -3,-3.38 -4.5,-4.949c-1.48,-1.588 -2.93,-3.136 -4.34,-4.645c-2.81,-3.046 -5.43,-5.99 -7.86,-8.825c-2.48,-2.756 -4.81,-5.361 -6.92,-7.882c-2.11,-2.516 -4.02,-4.921 -5.72,-7.209c-1.72,-2.27 -3.3,-4.319 -4.61,-6.31c-5.3,-7.909 -7.06,-13.938 -4.71,-17.543Z" style="fill:#0b5e45;fill-rule:nonzero;"/><path d="M2458.49,611.69c2.61,3.424 1.86,9.043 -1.94,16.467c-1.9,3.712 -4.56,7.876 -7.94,12.444c-1.69,2.286 -3.56,4.665 -5.61,7.153c-2.02,2.508 -4.22,5.114 -6.59,7.81c-4.74,5.394 -10.16,11.149 -16.22,17.229c-6,6.152 -12.65,12.629 -19.89,19.388c-14.44,13.585 -31.19,28.435 -49.88,44.333c-37.41,31.717 -87.43,66.581 -139.86,106.411c-26.12,19.99 -52.84,41.175 -78.75,63.649c-25.85,22.541 -50.911,46.347 -73.82,71.281c22.909,-24.931 45.28,-51.228 67.27,-77.692c22.01,-26.548 43.89,-52.928 65.04,-78.434c42.71,-50.825 83.93,-97.508 122.11,-129.869c19.05,-16.207 37.1,-30.178 53.59,-41.81c8.27,-5.782 16.12,-11.015 23.5,-15.674c7.43,-4.585 14.38,-8.597 20.8,-12.017c3.2,-1.709 6.28,-3.27 9.21,-4.679c2.95,-1.389 5.77,-2.615 8.44,-3.695c5.33,-2.157 10.06,-3.702 14.15,-4.613c8.18,-1.823 13.78,-1.106 16.39,2.318Z" style="fill:#0b5e45;fill-rule:nonzero;"/><path d="M2229.63,173.153c3.77,2.091 4.37,9.338 2.11,20.966c-0.56,2.913 -1.34,6.076 -2.21,9.546c-0.86,3.475 -1.9,7.216 -3.1,11.212c-1.19,3.998 -2.57,8.241 -4.08,12.747c-1.45,4.534 -3.05,9.315 -4.81,14.332c-1.79,5.003 -3.66,10.274 -5.63,15.806c-1.97,5.528 -4.09,11.279 -6.34,17.255c-2.15,6.023 -4.44,12.266 -6.87,18.718c-0.61,1.613 -1.23,3.24 -1.85,4.881c-0.6,1.651 -1.2,3.317 -1.81,4.997c-1.23,3.352 -2.49,6.761 -3.77,10.228c-10.22,27.717 -21.65,59.067 -33.46,93.701c-5.93,17.319 -12.21,35.653 -18.78,54.854c-1.61,4.819 -3.23,9.693 -4.87,14.619c-1.62,4.934 -3.39,9.883 -4.97,14.945c-3.22,10.103 -6.68,20.372 -9.88,30.919c-6.67,21.023 -13,42.967 -19.23,65.613c-1.51,5.677 -3.02,11.39 -4.55,17.136c-1.55,5.746 -2.891,11.571 -4.361,17.41c-2.99,11.672 -5.54,23.566 -8.309,35.557c-5.15,24.039 -9.85,48.664 -13.79,73.721c-3.81,25.065 -6.97,50.541 -9.191,76.227c-2.109,25.688 -3.349,51.572 -3.579,77.413c-0.08,25.835 0.829,51.617 2.829,77.079c-2,-25.461 -3.829,-51.172 -5.349,-77.017c-1.381,-25.847 -2.42,-51.816 -3.06,-77.761c-0.52,-25.941 -0.551,-51.843 -0.13,-77.541c0.539,-25.688 1.65,-51.151 3.23,-76.213c0.99,-12.501 1.77,-24.951 3.03,-37.216c0.61,-6.136 1.1,-12.267 1.809,-18.328c0.691,-6.069 1.381,-12.104 2.061,-18.101c2.99,-23.961 6.35,-47.33 10.54,-69.77c1.95,-11.254 4.29,-22.229 6.55,-33.016c1.079,-5.404 2.41,-10.69 3.619,-15.953c1.25,-5.251 2.45,-10.463 3.761,-15.58c5.29,-20.461 10.89,-39.881 17.11,-57.916c12.31,-36.115 25.7,-68.294 38.96,-95.996c1.68,-3.452 3.34,-6.847 4.96,-10.184c0.82,-1.663 1.64,-3.312 2.44,-4.946c0.84,-1.618 1.68,-3.222 2.51,-4.81c3.32,-6.346 6.57,-12.429 9.73,-18.238c3.27,-5.763 6.47,-11.248 9.56,-16.456c1.56,-2.598 3.05,-5.149 4.6,-7.587c1.57,-2.43 3.09,-4.799 4.58,-7.105c2.99,-4.593 5.88,-8.899 8.66,-12.908c2.84,-3.981 5.6,-7.648 8.22,-11.024c2.62,-3.374 5.12,-6.445 7.49,-9.206c2.38,-2.756 4.71,-5.161 6.86,-7.275c8.62,-8.435 15,-11.826 18.76,-9.735Z" style="fill:#0b5e45;fill-rule:nonzero;"/><path d="M1613.14,678.287c1.44,-4.06 7.29,-6.132 17.22,-6.219c2.47,-0.006 5.23,0.047 8.18,0.34c2.95,0.312 6.14,0.756 9.57,1.33c3.43,0.582 7.1,1.265 10.98,2.131c3.84,0.95 7.91,2.037 12.2,3.26c2.14,0.629 4.33,1.274 6.58,1.936c2.26,0.676 4.5,1.507 6.83,2.308c4.64,1.634 9.48,3.4 14.52,5.323c4.96,2.06 10.11,4.265 15.44,6.614c1.33,0.591 2.67,1.189 4.02,1.792c1.33,0.647 2.68,1.301 4.03,1.96c2.71,1.339 5.46,2.701 8.25,4.086c22.27,11.289 46.51,26.09 71.23,44.831c12.41,9.298 24.79,20.119 37.24,31.924c3.11,2.962 6.13,6.084 9.22,9.188c1.53,1.561 3.08,3.131 4.63,4.709c0.77,0.792 1.54,1.587 2.32,2.383c0.75,0.819 1.5,1.64 2.26,2.464c6.03,6.604 12.22,13.272 18.09,20.432c12.03,14.049 23.49,29.371 34.68,45.334c2.74,4.037 5.48,8.1 8.25,12.186c1.4,2.023 2.71,4.118 4.03,6.216c1.32,2.094 2.65,4.193 3.98,6.298c1.32,2.101 2.65,4.208 3.99,6.321c1.34,2.097 2.56,4.297 3.85,6.446c2.54,4.316 5.1,8.652 7.66,13.007c9.9,17.632 19.31,35.814 28.04,54.469c8.58,18.733 16.61,37.844 23.92,57.214c7.18,19.45 13.73,39.1 19.68,58.81c5.77,19.79 10.93,39.61 15.63,59.36c-4.7,-19.75 -10.76,-39.36 -18.01,-58.55c-7.45,-19.12 -16.09,-37.8 -25.65,-55.84c-9.7,-17.98 -20.4,-35.266 -31.69,-51.8c-11.43,-16.461 -23.57,-32.076 -35.98,-46.906c-3.18,-3.639 -6.35,-7.262 -9.51,-10.868c-1.59,-1.786 -3.1,-3.62 -4.74,-5.35c-1.62,-1.741 -3.24,-3.478 -4.85,-5.211c-1.61,-1.729 -3.21,-3.454 -4.81,-5.174c-1.6,-1.722 -3.18,-3.439 -4.84,-5.083c-3.28,-3.32 -6.53,-6.621 -9.76,-9.901c-13.12,-12.908 -26.12,-25.148 -39.2,-36.344c-6.41,-5.733 -13,-11.031 -19.3,-16.36c-0.79,-0.665 -1.58,-1.328 -2.36,-1.99c-0.81,-0.64 -1.61,-1.28 -2.41,-1.917c-1.59,-1.276 -3.18,-2.545 -4.76,-3.807c-3.16,-2.516 -6.22,-5.079 -9.33,-7.513c-12.47,-9.692 -24.34,-18.916 -35.7,-27.419c-22.63,-17.149 -43.93,-31.849 -63.04,-44.556c-2.39,-1.588 -4.74,-3.15 -7.05,-4.685c-1.15,-0.778 -2.3,-1.549 -3.43,-2.313c-1.15,-0.733 -2.29,-1.459 -3.42,-2.178c-4.52,-2.886 -8.85,-5.72 -12.99,-8.499c-4.22,-2.64 -8.24,-5.212 -12.07,-7.738c-1.92,-1.247 -3.76,-2.546 -5.61,-3.709c-1.84,-1.183 -3.63,-2.337 -5.38,-3.461c-3.48,-2.281 -6.76,-4.507 -9.82,-6.673c-3.1,-2.081 -6.01,-4.056 -8.68,-6.001c-2.67,-1.939 -5.11,-3.819 -7.33,-5.634c-2.22,-1.796 -4.25,-3.418 -6.01,-5.042c-7.06,-6.434 -10.22,-11.872 -8.79,-15.931Z" style="fill:#0b5e45;fill-rule:nonzero;"/><path d="M2529.98,897.881c0.97,4.197 -2.67,9.188 -10.26,14.699c-1.9,1.389 -4.05,2.762 -6.42,4.252c-2.37,1.502 -4.97,3.039 -7.81,4.605c-2.83,1.571 -5.89,3.15 -9.17,4.796c-3.26,1.707 -6.73,3.445 -10.42,5.21c-3.69,1.74 -7.58,3.573 -11.66,5.496c-4.07,1.919 -8.35,3.859 -12.82,5.835c-4.43,2.081 -9.06,4.189 -13.88,6.321c-1.21,0.53 -2.43,1.066 -3.65,1.606c-1.22,0.563 -2.45,1.131 -3.69,1.704c-2.49,1.126 -5.02,2.271 -7.59,3.436c-20.56,9.295 -43.7,19.865 -68.78,32.106c-12.57,6.094 -25.87,12.543 -39.81,19.303c-3.47,1.72 -6.98,3.47 -10.54,5.24c-3.54,1.78 -7.19,3.46 -10.77,5.36c-7.21,3.71 -14.65,7.36 -22.08,11.37c-15,7.76 -30.26,16.32 -45.85,25.39c-3.87,2.31 -7.77,4.64 -11.69,6.98c-3.94,2.32 -7.77,4.83 -11.71,7.27c-7.91,4.83 -15.63,10.1 -23.56,15.29c-15.61,10.67 -31.25,22.01 -46.59,34.14c-15.25,12.22 -30.28,25.15 -44.73,38.84c-14.371,13.77 -28.23,28.23 -41.3,43.34c-12.96,15.19 -25.13,31 -36.31,47.28c11.18,-16.28 22.59,-32.61 34.33,-48.85c11.85,-16.14 24.03,-32.17 36.52,-47.96c12.57,-15.7 25.52,-31.1 38.71,-46.1c13.28,-14.92 26.89,-29.37 40.67,-43.27c7.01,-6.81 13.86,-13.73 20.96,-20.22c3.53,-3.26 6.98,-6.61 10.55,-9.76c3.57,-3.17 7.12,-6.32 10.64,-9.45c14.26,-12.34 28.51,-24.096 42.87,-34.712c7.1,-5.429 14.32,-10.421 21.4,-15.359c3.51,-2.503 7.13,-4.767 10.65,-7.1c3.55,-2.295 7.04,-4.606 10.57,-6.777c14.1,-8.652 27.88,-16.447 41.34,-22.943c26.85,-13.109 52.32,-23.014 75.27,-30.212c2.88,-0.876 5.71,-1.738 8.49,-2.585c1.39,-0.414 2.77,-0.824 4.14,-1.229c1.38,-0.37 2.75,-0.737 4.1,-1.1c5.43,-1.434 10.66,-2.759 15.7,-3.975c5.07,-1.11 9.95,-2.103 14.61,-2.996c2.34,-0.434 4.6,-0.892 6.84,-1.232c2.25,-0.326 4.43,-0.644 6.56,-0.954c4.26,-0.585 8.3,-1.068 12.11,-1.45c3.83,-0.321 7.44,-0.504 10.8,-0.614c3.36,-0.104 6.49,-0.111 9.36,-0.023c2.88,0.101 5.54,0.38 7.92,0.702c9.56,1.33 15.01,4.104 15.98,8.3Z" style="fill:#0b5e45;fill-rule:nonzero;"/><path d="M2370.51,494.437c15.15,8.2 -13.92,87.306 -75.21,200.55c-61.3,113.245 -177.12,265.623 -260.89,420.403c83.77,-154.78 148.02,-335.073 209.31,-448.318c61.3,-113.244 111.64,-180.836 126.79,-172.635Z" style="fill:#0b5e45;fill-rule:nonzero;"/><path d="M1838.97,848.323c4.08,1.363 6.41,7.336 7.11,17.076c0.19,2.441 0.2,5.095 0.26,8.018c0.08,2.93 0.07,6.088 -0.03,9.463c-0.09,3.378 -0.3,6.963 -0.54,10.773c-0.13,3.839 -0.35,7.888 -0.64,12.136c-0.16,2.118 -0.33,4.293 -0.5,6.523c-0.19,2.222 -0.24,4.529 -0.4,6.865c-0.27,4.683 -0.63,9.557 -1.04,14.622c-0.22,5.098 -0.51,10.385 -0.87,15.852c-0.09,1.367 -0.18,2.745 -0.27,4.136c-0.05,1.397 -0.1,2.805 -0.15,4.226c-0.11,2.835 -0.23,5.72 -0.36,8.653c-0.93,23.44 -1.25,49.914 0.07,78.914c0.56,14.51 1.57,29.85 2.69,45.98c0.3,4.03 0.76,8.09 1.11,12.21c0.18,2.06 0.36,4.13 0.54,6.22c0.1,1.04 0.19,2.09 0.28,3.13c0.12,1.05 0.25,2.09 0.37,3.14c1.02,8.39 1.82,17.01 3.19,25.71c2.29,17.49 5.69,35.47 9.68,53.92c1.08,4.59 2.17,9.22 3.27,13.87c0.51,2.34 1.15,4.65 1.79,6.97c0.63,2.33 1.26,4.66 1.9,6.99c0.63,2.35 1.27,4.7 1.91,7.05c0.61,2.37 1.41,4.67 2.11,7.02c1.46,4.7 2.92,9.42 4.39,14.16c6.36,18.79 13.65,37.75 22.23,56.46c8.74,18.62 18.57,37.06 29.7,54.88c11.28,17.71 23.73,34.84 37.32,51c13.78,16 28.66,31.01 44.44,44.71c-15.78,-13.7 -31.27,-28.01 -46.29,-43c-14.85,-15.15 -29.18,-30.95 -42.89,-47.33c-13.56,-16.49 -26.36,-33.6 -38.41,-51.1c-11.9,-17.59 -22.86,-35.66 -32.98,-53.91c-2.41,-4.62 -4.82,-9.22 -7.22,-13.8c-1.17,-2.31 -2.45,-4.57 -3.53,-6.91c-1.12,-2.32 -2.23,-4.64 -3.34,-6.95c-1.11,-2.32 -2.21,-4.64 -3.31,-6.94c-1.11,-2.31 -2.22,-4.61 -3.2,-6.96c-2.03,-4.67 -4.05,-9.32 -6.05,-13.94c-7.66,-18.62 -14.54,-37.16 -19.84,-55.54c-2.87,-9.14 -5.07,-18.28 -7.32,-27.26c-0.27,-1.12 -0.55,-2.24 -0.83,-3.36c-0.23,-1.12 -0.47,-2.24 -0.71,-3.36c-0.46,-2.24 -0.93,-4.48 -1.38,-6.69c-0.89,-4.45 -1.84,-8.84 -2.59,-13.22c-2.92,-17.51 -4.98,-34.41 -5.61,-50.46c-1.47,-32.09 0.5,-61.48 4.46,-87.027c0.53,-3.188 1.05,-6.324 1.56,-9.407c0.26,-1.537 0.53,-3.061 0.79,-4.572c0.32,-1.502 0.64,-2.991 0.95,-4.466c1.29,-5.894 2.58,-11.549 3.88,-16.954c1.48,-5.378 2.99,-10.503 4.47,-15.371c0.77,-2.43 1.44,-4.812 2.27,-7.098c0.84,-2.278 1.67,-4.5 2.47,-6.663c1.63,-4.311 3.24,-8.355 4.82,-12.126c1.69,-3.745 3.41,-7.203 5.06,-10.392c1.65,-3.186 3.26,-6.093 4.82,-8.717c1.59,-2.616 3.27,-4.909 4.81,-6.937c6.24,-8.096 11.49,-11.579 15.58,-10.217Z" style="fill:#0b5e45;fill-rule:nonzero;"/><path d="M2880.39,294.224c-0.67,4.253 -5.43,7.625 -13.62,10.094c-4.1,1.234 -9.05,2.242 -14.8,3.017c-2.88,0.396 -5.95,0.698 -9.22,1.007c-3.28,0.409 -6.75,0.768 -10.4,1.075c-7.31,0.617 -15.35,1.015 -24.07,1.218c-8.75,0.564 -18.18,0.941 -28.24,1.116c-1.26,0.019 -2.52,0.037 -3.8,0.056c-1.28,0.006 -2.56,0.025 -3.86,0.11c-2.6,0.117 -5.24,0.235 -7.91,0.355c-5.35,0.215 -10.85,0.384 -16.5,0.505c-2.82,0.056 -5.68,0.112 -8.58,0.168c-2.9,0.148 -5.83,0.298 -8.8,0.45c-5.94,0.277 -12.02,0.512 -18.24,0.701c-6.23,0.071 -12.62,0.543 -19.2,0.782c-6.57,0.259 -13.33,0.427 -20.26,0.519c-6.91,0.276 -13.97,0.664 -21.21,0.895c-7.24,0.278 -14.66,0.333 -22.15,0.933c-7.52,0.467 -15.18,0.897 -22.99,1.302c-3.92,0.13 -7.81,0.595 -11.76,0.923c-3.95,0.349 -7.93,0.7 -11.93,1.054c-4.02,0.346 -8.06,0.694 -12.13,1.044c-2.04,0.14 -4.07,0.408 -6.1,0.67c-2.03,0.257 -4.08,0.514 -6.12,0.772c-8.22,1.035 -16.52,2.081 -24.9,3.136c-33.36,5.175 -67.87,12.398 -101.9,22.733c-33.87,10.69 -67.21,24.385 -98.18,41.204c30.96,-16.806 62.59,-33.768 94.8,-49.723c32.35,-15.58 65.23,-30.022 97.89,-42.589c8.24,-2.917 16.42,-5.809 24.5,-8.67c2.04,-0.716 4.06,-1.43 6.08,-2.142c2.02,-0.717 4.04,-1.438 6.07,-2.03c4.07,-1.246 8.12,-2.486 12.14,-3.718c4.03,-1.224 8.04,-2.44 12.02,-3.648c4,-1.177 7.95,-2.475 11.94,-3.415c7.95,-2.027 15.81,-3.995 23.56,-5.885c7.73,-2.023 15.44,-3.386 23,-4.825c7.56,-1.394 14.99,-2.798 22.29,-3.915c7.32,-0.932 14.49,-1.764 21.49,-2.482c7.01,-0.698 13.83,-1.423 20.5,-1.514c6.66,-0.208 13.17,-0.361 19.53,-0.463c3.18,-0.038 6.32,-0.075 9.42,-0.112c3.11,0.054 6.17,0.196 9.19,0.308c6.04,0.243 11.92,0.53 17.62,0.859c2.85,0.177 5.66,0.353 8.42,0.525c1.38,0.072 2.75,0.216 4.11,0.377c1.35,0.156 2.7,0.311 4.03,0.464c10.67,1.252 20.6,2.635 29.72,4.126c9.1,1.853 17.39,3.806 24.8,5.802c3.71,1 7.2,2.013 10.47,3.037c3.25,1.125 6.27,2.318 9.07,3.473c5.6,2.329 10.27,4.656 13.97,6.958c7.4,4.604 10.92,9.109 10.24,13.363Z" style="fill:#0b5e45;fill-rule:nonzero;"/><path d="M2665.32,7.081c1.47,4.049 -1.01,9.267 -6.81,15.294c-1.44,1.52 -3.12,3.035 -4.95,4.697c-1.83,1.679 -3.86,3.41 -6.08,5.188c-2.22,1.784 -4.63,3.589 -7.21,5.483c-2.56,1.966 -5.29,3.981 -8.19,6.038c-1.46,1.028 -2.96,2.068 -4.5,3.116c-1.54,1.046 -3.08,2.209 -4.68,3.324c-3.2,2.261 -6.57,4.556 -10.09,6.904c-3.47,2.469 -7.09,4.982 -10.88,7.532c-0.94,0.636 -1.9,1.277 -2.86,1.924c-0.95,0.674 -1.9,1.354 -2.87,2.039c-1.94,1.352 -3.91,2.727 -5.91,4.124c-16.01,11.17 -33.89,23.978 -52.91,38.816c-9.55,7.358 -19.56,15.292 -30.13,23.601c-2.63,2.087 -5.22,4.283 -7.9,6.437c-1.34,1.081 -2.69,2.168 -4.04,3.26l-2.04,1.641l-2,1.703c-5.35,4.559 -10.95,9.089 -16.39,13.99c-11.13,9.569 -22.2,20.03 -33.38,31.071c-2.76,2.807 -5.53,5.631 -8.32,8.472c-1.42,1.407 -2.77,2.877 -4.13,4.351c-1.36,1.473 -2.73,2.95 -4.1,4.431c-2.75,2.961 -5.53,5.933 -8.17,9.046c-2.69,3.092 -5.39,6.198 -8.1,9.318c-10.57,12.717 -20.9,26.126 -30.59,40.285c-9.57,14.22 -18.61,29.105 -26.75,44.609c-8,15.554 -15.18,31.67 -21.26,48.181c-5.91,16.559 -10.74,33.484 -14.3,50.518c3.56,-17.032 7.49,-34.149 11.9,-51.269c4.57,-17.067 9.64,-34.108 15.23,-51.012c5.72,-16.852 12.04,-33.508 18.87,-49.878c6.94,-16.305 14.51,-32.237 22.51,-47.719c2.09,-3.827 4.16,-7.638 6.22,-11.43c2.03,-3.831 4.22,-7.532 6.39,-11.231c1.09,-1.852 2.17,-3.7 3.25,-5.543c1.08,-1.847 2.16,-3.692 3.31,-5.475c2.27,-3.601 4.52,-7.182 6.77,-10.74c9.21,-14.077 18.7,-27.609 28.74,-40.031c4.9,-6.327 10.09,-12.228 15.15,-18.067c0.63,-0.728 1.27,-1.454 1.9,-2.179c0.65,-0.704 1.3,-1.407 1.95,-2.108c1.31,-1.396 2.61,-2.784 3.9,-4.166c2.6,-2.744 5.15,-5.503 7.77,-8.122c10.53,-10.439 21.05,-19.993 31.66,-28.176c21.14,-16.489 41.99,-29.461 61.21,-39.271c2.42,-1.201 4.79,-2.383 7.13,-3.544c1.17,-0.571 2.33,-1.137 3.48,-1.698c1.17,-0.52 2.33,-1.037 3.48,-1.548c4.61,-2.027 9.07,-3.923 13.36,-5.686c4.36,-1.643 8.56,-3.144 12.59,-4.524c2.02,-0.675 3.97,-1.376 5.92,-1.939c1.95,-0.567 3.86,-1.103 5.72,-1.608c3.73,-1.01 7.27,-1.895 10.61,-2.655c3.38,-0.687 6.58,-1.209 9.57,-1.637c2.99,-0.422 5.78,-0.724 8.36,-0.908c2.59,-0.167 5,-0.12 7.18,-0.016c8.72,0.469 13.95,2.739 15.41,6.787Z" style="fill:#0b5e45;fill-rule:nonzero;"/><path d="M2470.09,560.927c3.43,2.607 4.56,7.597 3.44,14.726c-0.56,3.563 -1.68,7.66 -3.35,12.25c-0.84,2.29 -1.79,4.722 -2.92,7.24c-1.19,2.467 -2.52,5.048 -3.98,7.737c-2.94,5.377 -6.42,11.191 -10.45,17.376c-4.23,5.998 -9.01,12.361 -14.31,19.036c-1.34,1.651 -2.64,3.396 -4.11,5.024c-1.47,1.639 -2.95,3.303 -4.46,4.992c-3.03,3.362 -6.19,6.791 -9.48,10.28c-1.65,1.739 -3.31,3.516 -5.04,5.264c-1.78,1.695 -3.59,3.412 -5.41,5.15c-3.67,3.458 -7.47,6.965 -11.38,10.513c-3.85,3.616 -8.15,6.951 -12.56,10.379c-4.41,3.417 -9,6.843 -13.73,10.279c-4.82,3.324 -9.88,6.545 -15.02,9.83c-5.17,3.257 -10.38,6.623 -15.97,9.628c-5.53,3.089 -11.17,6.181 -16.89,9.277c-2.83,1.595 -5.83,2.972 -8.8,4.436c-2.97,1.439 -5.96,2.888 -8.97,4.346c-3,1.442 -6.03,2.894 -9.07,4.355c-1.51,0.749 -3.07,1.413 -4.63,2.083c-1.56,0.671 -3.13,1.345 -4.7,2.02c-6.25,2.68 -12.56,5.388 -18.93,8.119c-25.76,10.25 -52.59,19.553 -79.59,28.112c-27.13,8.285 -54.33,15.874 -80.94,23.593c26.63,-7.72 52.74,-18.833 77.37,-32.035c24.54,-13.486 47.5,-29.087 68.63,-45.138c5.17,-4.159 10.29,-8.283 15.37,-12.364c1.26,-1.016 2.52,-2.028 3.77,-3.038c1.26,-1.005 2.51,-2.002 3.71,-3.079c2.42,-2.103 4.82,-4.194 7.21,-6.271c2.39,-2.063 4.76,-4.113 7.11,-6.149c2.34,-2.044 4.73,-3.98 6.94,-6.11c4.5,-4.167 8.94,-8.232 13.31,-12.181c4.44,-3.865 8.55,-7.976 12.68,-11.849c4.11,-3.9 8.21,-7.606 12.18,-11.272c3.88,-3.776 7.71,-7.4 11.51,-10.857c3.78,-3.468 7.6,-6.688 11.14,-10.02c3.59,-3.264 7.13,-6.42 10.63,-9.465c1.76,-1.514 3.49,-3.01 5.21,-4.487c1.67,-1.524 3.32,-3.028 4.95,-4.513c3.26,-2.96 6.48,-5.807 9.64,-8.54c1.59,-1.357 3.16,-2.695 4.71,-4.013c1.57,-1.291 2.99,-2.685 4.47,-3.977c5.87,-5.235 11.52,-9.993 16.91,-14.262c5.19,-4.452 10.13,-8.409 14.8,-11.833c2.34,-1.713 4.6,-3.293 6.8,-4.739c2.13,-1.494 4.15,-2.882 6.12,-4.108c3.94,-2.462 7.57,-4.351 10.86,-5.635c6.59,-2.567 11.79,-2.717 15.22,-0.11Z" style="fill:#1e7560;fill-rule:nonzero;"/><path d="M2323.8,161.693c3.29,2.782 4.06,8.114 2.62,15.468c-0.36,1.845 -0.89,3.791 -1.49,5.903c-0.6,2.119 -1.32,4.361 -2.18,6.719c-0.85,2.36 -1.85,4.824 -2.94,7.418c-1.06,2.626 -2.23,5.363 -3.53,8.206c-2.66,5.638 -5.49,11.927 -8.9,18.504c-1.61,3.354 -3.33,6.806 -5.17,10.35c-0.46,0.885 -0.92,1.777 -1.39,2.677c-0.45,0.911 -0.91,1.829 -1.37,2.755c-0.94,1.84 -1.89,3.711 -2.86,5.614c-7.78,15.189 -16.59,32.244 -25.88,51.144c-4.69,9.426 -9.67,19.399 -15.03,29.835c-2.63,5.253 -5.32,10.625 -8.06,16.106c-2.67,5.525 -5.54,11.122 -8.22,16.926c-5.59,11.528 -10.98,23.677 -16.35,36.304c-5.32,12.643 -10.33,25.846 -15.08,39.488c-4.59,13.675 -8.86,27.801 -12.51,42.301c-3.54,14.508 -6.56,29.369 -8.78,44.443c-2.12,15.077 -3.52,30.352 -4.01,45.637c-0.38,15.28 0.13,30.557 1.61,45.602c-1.48,-15.044 -2.9,-30.233 -4.13,-45.542c-1.11,-15.311 -2.01,-30.729 -2.62,-46.188c-0.51,-15.452 -0.67,-30.93 -0.47,-46.337c0.3,-15.395 1.04,-30.695 2.18,-45.789c1.3,-15.058 2.93,-29.921 5.19,-44.362c2.3,-14.424 4.94,-28.507 8.28,-41.946c1.56,-6.759 3.44,-13.303 5.26,-19.744c0.89,-3.233 1.96,-6.362 2.94,-9.492c1.02,-3.116 2,-6.216 3.07,-9.241c4.31,-12.088 8.94,-23.479 14.1,-33.859c10.22,-20.808 21.35,-38.877 32.36,-53.954c1.4,-1.871 2.77,-3.711 4.12,-5.52c0.68,-0.898 1.36,-1.788 2.03,-2.67c0.7,-0.863 1.39,-1.719 2.07,-2.566c2.75,-3.38 5.45,-6.595 8.08,-9.643c5.44,-5.969 10.47,-11.362 15.49,-15.837c2.48,-2.261 4.87,-4.349 7.17,-6.26c2.34,-1.88 4.62,-3.565 6.78,-5.084c2.17,-1.517 4.23,-2.856 6.2,-4.015c1.97,-1.152 3.89,-2.082 5.67,-2.856c7.13,-3.078 12.46,-3.277 15.75,-0.495Z" style="fill:#1e7560;fill-rule:nonzero;"/><path d="M2769.56,128.913c2.69,3.363 1.92,9.056 -2.04,16.719c-1.97,3.831 -4.74,8.154 -8.27,12.924c-1.77,2.383 -3.72,4.884 -5.87,7.48c-2.16,2.577 -4.5,5.257 -7.03,8.037c-5.05,5.558 -10.83,11.511 -17.3,17.805c-6.52,6.227 -13.73,12.795 -21.59,19.653c-15.78,13.652 -34.25,28.337 -55.18,43.53c-41.82,30.461 -98.51,60.881 -159.68,92.09c-30.65,15.524 -62.42,31.286 -94.11,47.489c-31.75,16.126 -63.42,32.714 -93.82,50.163c30.41,-17.451 60.24,-37.213 89.04,-57.981c28.75,-20.85 56.47,-42.724 82.89,-64.238c52.74,-43.225 100.13,-85.04 141.24,-114.988c20.59,-14.95 39.66,-28.188 56.87,-39.415c8.59,-5.646 16.73,-10.755 24.39,-15.305c7.61,-4.616 14.72,-8.671 21.3,-12.134c3.29,-1.731 6.44,-3.316 9.45,-4.749c3,-1.452 5.85,-2.763 8.55,-3.912c5.41,-2.302 10.22,-3.981 14.39,-5.011c8.33,-2.059 14.08,-1.522 16.77,1.843Z" style="fill:#1e7560;fill-rule:nonzero;"/><path d="M2729.63,119.554c1.34,4.093 0.24,8.682 -2.98,13.54c-1.61,2.43 -3.75,4.927 -6.39,7.466c-1.31,1.272 -2.76,2.542 -4.32,3.841c-1.55,1.335 -3.21,2.68 -4.99,4.032c-3.57,2.704 -7.59,5.431 -12.05,8.169c-4.42,2.861 -9.27,5.735 -14.53,8.599c-10.47,5.843 -22.49,11.883 -35.83,18.166c-3.37,1.507 -6.8,3.126 -10.39,4.653c-3.59,1.533 -7.32,3.02 -11.17,4.474c-3.82,1.515 -7.73,3.059 -11.78,4.549c-4.05,1.505 -8.23,2.934 -12.42,4.547c-4.21,1.57 -8.53,3.131 -12.93,4.693c-4.41,1.568 -8.81,3.311 -13.34,4.972c-2.26,0.84 -4.54,1.685 -6.83,2.536c-2.31,0.838 -4.56,1.792 -6.87,2.691c-4.61,1.835 -9.27,3.69 -13.97,5.56c-18.67,7.825 -37.81,16.718 -56.25,27.226c-18.34,10.615 -35.97,22.804 -51.62,36.682c15.65,-13.87 30.86,-28.829 46.07,-43.971c15.29,-15.019 30.57,-30.172 45.87,-44.554c3.88,-3.531 7.73,-7.031 11.54,-10.495c1.92,-1.722 3.8,-3.495 5.74,-5.148c1.94,-1.662 3.87,-3.315 5.79,-4.956c3.85,-3.26 7.63,-6.563 11.48,-9.627c3.85,-3.059 7.67,-6.051 11.46,-8.959c3.77,-2.951 7.61,-5.625 11.39,-8.252c3.78,-2.611 7.51,-5.155 11.22,-7.516c3.75,-2.301 7.46,-4.483 11.12,-6.528c3.66,-2.039 7.24,-3.988 10.86,-5.612c14.34,-6.754 27.92,-11.823 40.22,-15.383c6.18,-1.723 12.01,-3.13 17.46,-4.22c5.49,-0.967 10.59,-1.621 15.26,-1.973c2.33,-0.175 4.56,-0.274 6.67,-0.298c2.12,0.012 4.14,0.12 6.04,0.287c3.79,0.341 7.11,0.973 9.92,1.892c5.63,1.837 9.21,4.823 10.55,8.917Z" style="fill:#1e7560;fill-rule:nonzero;"/><path d="M2331.67,416.887c3.25,2.82 4.45,7.562 3.77,13.863c-0.35,3.15 -1.16,6.691 -2.43,10.579c-0.63,1.946 -1.39,3.972 -2.24,6.092c-0.83,2.14 -1.77,4.363 -2.81,6.664c-2.1,4.604 -4.62,9.519 -7.56,14.714c-2.86,5.263 -6.12,10.807 -9.79,16.596c-7.25,11.643 -15.93,24.394 -25.82,38.11c-19.84,27.341 -48.94,58.059 -78.27,93.54c-14.53,17.787 -29.11,36.699 -42.46,56.645c-13.24,19.993 -25.28,40.993 -34.92,62.598c9.64,-21.598 18.33,-44.115 26.76,-66.771c8.53,-22.596 16.83,-45.305 25.29,-67.246c17.14,-43.697 35.19,-84.349 56.01,-113.038c10.35,-14.36 20.7,-26.799 30.53,-37.186c4.95,-5.162 9.74,-9.844 14.32,-14.022c4.66,-4.109 9.11,-7.715 13.3,-10.8c2.1,-1.542 4.13,-2.953 6.1,-4.231c1.99,-1.259 3.93,-2.373 5.78,-3.361c3.7,-1.97 7.11,-3.403 10.19,-4.281c6.16,-1.755 10.99,-1.284 14.25,1.535Z" style="fill:#1e7560;fill-rule:nonzero;"/><path d="M2066.91,601.942c3.201,2.883 4.031,8.088 2.921,14.907c-0.25,1.72 -0.71,3.481 -1.151,5.445c-0.429,1.976 -0.969,4.053 -1.609,6.22c-0.641,2.175 -1.431,4.406 -2.24,6.783c-0.74,2.436 -1.58,4.961 -2.51,7.568c-0.47,1.303 -0.96,2.627 -1.48,3.971c-0.5,1.358 -0.931,2.801 -1.431,4.229c-0.98,2.88 -2.089,5.813 -3.219,8.873c-1,3.138 -2.1,6.356 -3.291,9.651c-0.629,1.627 -1.149,3.353 -1.689,5.096c-0.561,1.73 -1.13,3.489 -1.71,5.277c-4.59,14.31 -9.26,30.619 -13.31,48.952c-1.15,4.544 -1.98,9.332 -3.13,14.182c-0.6,2.42 -1.05,4.912 -1.56,7.43c-0.51,2.517 -1.05,5.064 -1.62,7.643c-0.48,2.6 -0.97,5.229 -1.47,7.887c-0.49,2.666 -1.11,5.348 -1.5,8.097c-0.88,5.484 -1.95,11.089 -2.67,16.859c-1.77,11.508 -2.91,23.592 -3.83,36.244c-0.19,3.167 -0.37,6.353 -0.55,9.559c-0.2,3.215 -0.22,6.455 -0.34,9.723c-0.1,3.269 -0.2,6.564 -0.17,9.877l-0,10.017c0.24,13.435 0.95,27.2 2.24,41.125c1.37,13.91 3.24,27.98 5.68,42.029c2.48,14.036 5.48,28.057 8.98,41.902c3.54,13.832 7.55,27.502 12.03,40.862c-4.48,-13.36 -9.36,-26.73 -14.44,-40.105c-5.04,-13.387 -10.23,-26.788 -15.41,-40.218c-5.12,-13.447 -10.15,-26.937 -14.96,-40.462c-4.72,-13.546 -9.14,-27.141 -13.11,-40.74c-0.94,-3.42 -1.87,-6.826 -2.8,-10.216c-0.97,-3.392 -1.79,-6.803 -2.61,-10.207c-0.8,-3.406 -1.7,-6.785 -2.41,-10.188c-0.71,-3.41 -1.42,-6.8 -2.13,-10.17c-0.36,-1.686 -0.68,-3.378 -0.96,-5.07c-0.29,-1.693 -0.58,-3.381 -0.87,-5.063c-0.56,-3.373 -1.21,-6.709 -1.6,-10.088c-0.43,-3.376 -0.86,-6.728 -1.29,-10.052c-0.43,-3.334 -0.62,-6.656 -0.92,-9.956c-0.63,-6.6 -0.78,-13.119 -0.95,-19.536c-0.14,-3.209 0.01,-6.385 0.05,-9.536c0.08,-3.15 0.14,-6.273 0.3,-9.358c0.23,-3.082 0.47,-6.132 0.74,-9.146c0.26,-3.014 0.53,-5.994 1,-8.919c0.88,-5.853 1.66,-11.571 3.01,-17.043c4.84,-21.963 12.17,-41.484 20.64,-57.711c1.1,-2.013 2.17,-3.992 3.23,-5.939c1.06,-1.938 2.1,-3.834 3.29,-5.629c2.3,-3.62 4.57,-7.061 6.79,-10.317c2.35,-3.198 4.73,-6.174 7.01,-8.984c1.15,-1.395 2.24,-2.773 3.41,-4.05c1.19,-1.266 2.36,-2.485 3.52,-3.657c2.3,-2.345 4.53,-4.502 6.68,-6.468c2.23,-1.915 4.45,-3.588 6.53,-5.106c2.09,-1.509 4.08,-2.833 5.96,-3.968c1.91,-1.123 3.84,-1.963 5.57,-2.678c7.03,-2.81 12.16,-2.71 15.359,0.172Z" style="fill:#1e7560;fill-rule:nonzero;"/><path d="M2261.18,789.062c4.21,0.901 7.32,5.07 9.28,12.248c0.98,3.587 1.67,7.925 2.06,12.971c0.19,2.522 0.34,5.227 0.36,8.09c-0.06,2.842 -0.2,5.853 -0.42,9.026c-0.44,6.346 -1.21,13.347 -2.31,20.938c-1.39,7.503 -3.12,15.593 -5.21,24.209c-0.55,2.145 -1.01,4.361 -1.69,6.539c-0.66,2.186 -1.34,4.405 -2.02,6.657c-1.39,4.498 -2.88,9.118 -4.46,13.849c-0.79,2.363 -1.58,4.767 -2.45,7.174c-0.93,2.379 -1.89,4.788 -2.85,7.227c-1.95,4.869 -3.99,9.839 -6.12,14.901c-2.05,5.101 -4.65,10.131 -7.3,15.296c-2.66,5.159 -5.47,10.404 -8.42,15.725c-3.09,5.252 -6.44,10.511 -9.84,15.869c-3.43,5.341 -6.86,10.809 -10.81,16.098c-3.85,5.341 -7.8,10.731 -11.83,16.171c-1.96,2.75 -4.19,5.36 -6.33,8.05c-2.17,2.66 -4.35,5.34 -6.55,8.03c-2.19,2.69 -4.41,5.38 -6.63,8.1c-1.09,1.37 -2.27,2.68 -3.45,4c-1.17,1.31 -2.35,2.63 -3.53,3.96c-4.72,5.27 -9.48,10.59 -14.28,15.96c-19.8,20.97 -41.05,41.49 -62.83,61.33c-22.04,19.63 -44.49,38.59 -66.41,57.34c21.93,-18.76 41.95,-40.48 59.66,-63.54c17.5,-23.3 32.59,-47.92 45.74,-72.21c3.12,-6.16 6.2,-12.27 9.26,-18.32c0.76,-1.5 1.52,-3 2.27,-4.5c0.76,-1.49 1.52,-2.97 2.19,-4.51c1.39,-3.03 2.77,-6.05 4.14,-9.04c1.37,-2.99 2.73,-5.95 4.09,-8.89c1.34,-2.946 2.77,-5.806 3.95,-8.781c2.46,-5.888 4.91,-11.654 7.34,-17.284c2.54,-5.578 4.64,-11.249 6.88,-16.706c2.2,-5.475 4.47,-10.764 6.63,-15.958c2.03,-5.262 4.08,-10.361 6.16,-15.288c2.06,-4.934 4.27,-9.648 6.14,-14.348c1.96,-4.661 3.93,-9.199 5.89,-13.614c0.99,-2.203 1.97,-4.379 2.94,-6.528c0.91,-2.175 1.8,-4.323 2.68,-6.442c1.78,-4.234 3.55,-8.341 5.33,-12.317c0.9,-1.983 1.78,-3.939 2.65,-5.864c0.92,-1.913 1.64,-3.858 2.46,-5.734c3.2,-7.534 6.4,-14.526 9.57,-20.945c2.89,-6.502 5.76,-12.43 8.6,-17.737c1.42,-2.653 2.84,-5.153 4.24,-7.492c1.32,-2.359 2.58,-4.569 3.87,-6.606c2.56,-4.075 5.08,-7.479 7.54,-10.163c4.93,-5.363 9.61,-7.843 13.82,-6.941Z" style="fill:#1e7560;fill-rule:nonzero;"/><path d="M2465.07,918.257c3.74,2.143 4.78,8.175 3.23,17.686c-0.77,4.755 -2.19,10.378 -4.24,16.812c-1.03,3.212 -2.18,6.645 -3.55,10.239c-1.44,3.543 -3.05,7.276 -4.82,11.192c-3.53,7.829 -7.69,16.392 -12.47,25.605c-5.07,9.019 -10.78,18.679 -17.08,28.909c-0.79,1.28 -1.59,2.57 -2.4,3.86c-0.8,1.31 -1.62,2.61 -2.5,3.88c-1.75,2.56 -3.53,5.16 -5.33,7.79c-3.63,5.27 -7.41,10.66 -11.33,16.17c-1.98,2.75 -3.95,5.55 -6.02,8.34c-2.14,2.73 -4.31,5.5 -6.5,8.3c-4.41,5.59 -8.96,11.29 -13.66,17.08c-4.61,5.87 -9.82,11.51 -15.13,17.33c-5.33,5.8 -10.86,11.68 -16.58,17.64c-5.85,5.84 -12.02,11.63 -18.27,17.55c-6.29,5.89 -12.62,11.96 -19.49,17.68c-6.79,5.81 -13.71,11.68 -20.74,17.6c-3.47,3.01 -7.2,5.8 -10.86,8.69c-3.68,2.86 -7.39,5.74 -11.12,8.64c-3.73,2.89 -7.48,5.79 -11.25,8.71c-1.87,1.48 -3.82,2.87 -5.77,4.27c-1.95,1.4 -3.91,2.8 -5.87,4.21c-7.82,5.61 -15.73,11.28 -23.71,17c-32.43,22.12 -66.64,43.55 -101.51,64.01c-35.1,20.15 -70.73,39.39 -105.74,58.18c35.02,-18.8 68.87,-41.25 100.6,-65.77c31.54,-24.85 60.85,-51.78 87.8,-78.88c6.57,-6.93 13.08,-13.81 19.53,-20.61c1.6,-1.7 3.21,-3.39 4.8,-5.08c1.6,-1.68 3.2,-3.35 4.71,-5.11c3.07,-3.46 6.12,-6.9 9.14,-10.32c3.03,-3.4 6.04,-6.78 9.03,-10.15c2.97,-3.37 6.01,-6.61 8.8,-10.06c5.69,-6.81 11.3,-13.47 16.84,-19.98c5.63,-6.42 10.78,-13.08 15.99,-19.45c5.17,-6.4 10.35,-12.55 15.34,-18.63c4.85,-6.2 9.65,-12.21 14.4,-17.99c4.74,-5.8 9.53,-11.3 13.9,-16.88c4.45,-5.5 8.85,-10.85 13.18,-16.05c2.17,-2.59 4.32,-5.15 6.44,-7.68c2.06,-2.58 4.09,-5.13 6.09,-7.64c4.01,-5.03 7.95,-9.89 11.83,-14.58c1.95,-2.34 3.87,-4.65 5.76,-6.92c0.96,-1.12 1.87,-2.27 2.76,-3.41c0.9,-1.142 1.8,-2.272 2.69,-3.394c7.11,-8.955 13.95,-17.213 20.45,-24.735c6.21,-7.713 12.1,-14.687 17.65,-20.857c2.77,-3.086 5.45,-5.973 8.04,-8.655c2.51,-2.731 4.87,-5.287 7.18,-7.608c4.58,-4.65 8.8,-8.436 12.58,-11.301c7.58,-5.727 13.45,-7.777 17.18,-5.633Z" style="fill:#1e7560;fill-rule:nonzero;"/><path d="M1993.81,968.849c3.79,2.048 5.49,7.508 5.36,15.609c-0.01,2.036 -0.22,4.197 -0.4,6.587c-0.16,2.4 -0.43,4.96 -0.8,7.672c-0.35,2.713 -0.86,5.563 -1.39,8.593c-0.44,3.07 -0.97,6.28 -1.6,9.64c-0.31,1.67 -0.65,3.39 -1.01,5.13c-0.35,1.75 -0.61,3.59 -0.95,5.43c-0.65,3.7 -1.41,7.52 -2.21,11.5c-0.66,4.03 -1.4,8.19 -2.22,12.48c-0.2,1.08 -0.44,2.15 -0.62,3.25c-0.17,1.1 -0.34,2.22 -0.52,3.34c-0.37,2.23 -0.75,4.51 -1.14,6.82c-3.05,18.49 -5.98,39.45 -8.13,62.71c-1.14,11.61 -2.17,23.98 -3.31,37c-0.23,3.27 -0.46,6.57 -0.69,9.91c-0.22,3.34 -0.58,6.72 -0.71,10.15c-0.34,6.85 -0.86,13.86 -1.05,21.02c-0.68,14.32 -0.76,29.23 -0.62,44.69c0.2,15.43 0.93,31.34 2.02,47.6c1.22,16.24 2.87,32.81 5.03,49.54c2.23,16.71 4.91,33.59 8.09,50.44c3.21,16.85 6.86,33.69 10.96,50.37c4.12,16.67 8.65,33.18 13.59,49.39c-4.94,-16.22 -10.34,-32.45 -16,-48.68c-5.64,-16.23 -11.5,-32.45 -17.39,-48.66c-5.85,-16.21 -11.67,-32.42 -17.3,-48.59c-5.57,-16.19 -10.89,-32.35 -15.81,-48.43c-4.78,-16.11 -9.25,-32.11 -12.97,-47.97c-3.65,-15.85 -6.87,-31.54 -9.01,-46.93c-1.21,-7.67 -1.98,-15.28 -2.76,-22.75c-0.44,-3.74 -0.6,-7.46 -0.87,-11.14c-0.23,-3.68 -0.49,-7.33 -0.62,-10.94c-0.44,-14.45 -0.25,-28.34 1.03,-41.41c2.4,-26.14 7.35,-49.85 13.74,-70.17c0.83,-2.53 1.64,-5.02 2.45,-7.47c0.41,-1.22 0.82,-2.43 1.22,-3.63c0.42,-1.19 0.9,-2.36 1.34,-3.52c1.82,-4.64 3.62,-9.08 5.4,-13.31c1.93,-4.19 3.89,-8.15 5.79,-11.91c0.96,-1.87 1.86,-3.71 2.86,-5.46c1.01,-1.74 2.01,-3.43 3,-5.07c1.99,-3.262 3.92,-6.307 5.8,-9.126c1.97,-2.784 3.96,-5.314 5.84,-7.633c1.89,-2.314 3.71,-4.401 5.46,-6.255c1.77,-1.846 3.6,-3.4 5.26,-4.759c6.74,-5.405 12.08,-7.106 15.86,-5.058Z" style="fill:#1e7560;fill-rule:nonzero;"/><path d="M2164.68,1029.51c4.3,0.16 8.07,4.41 11.21,12.4c1.57,4 2.98,8.93 4.23,14.74c0.62,2.9 1.22,6.03 1.72,9.36c0.44,3.33 0.82,6.87 1.15,10.62c0.66,7.5 1.13,15.82 1.36,24.89c-0.04,9.04 -0.32,18.84 -0.85,29.33c-0.15,2.62 -0.22,5.3 -0.49,7.99c-0.26,2.69 -0.52,5.43 -0.79,8.21c-0.56,5.55 -1.18,11.27 -1.88,17.14c-0.35,2.93 -0.69,5.91 -1.11,8.91c-0.48,2.99 -0.97,6.02 -1.47,9.09c-1.02,6.13 -2.12,12.4 -3.28,18.81c-1.08,6.42 -2.69,12.94 -4.33,19.62c-1.65,6.67 -3.44,13.5 -5.35,20.46c-2.04,6.92 -4.34,13.94 -6.67,21.1c-2.37,7.14 -4.71,14.43 -7.58,21.71c-2.76,7.3 -5.62,14.7 -8.54,22.19c-1.41,3.75 -3.09,7.46 -4.69,11.21c-1.62,3.74 -3.25,7.51 -4.89,11.3c-1.64,3.78 -3.3,7.58 -4.97,11.4c-0.81,1.92 -1.72,3.81 -2.62,5.7c-0.9,1.9 -1.8,3.8 -2.71,5.71c-3.62,7.59 -7.28,15.27 -10.97,23.01c-15.4,30.66 -32.32,61.61 -49.89,92.24c-17.84,30.5 -36.23,60.67 -54,90.45c17.78,-29.79 32.99,-61.81 45.74,-94.41c12.48,-32.75 22.43,-66.06 30.639,-98.41c1.871,-8.13 3.73,-16.19 5.571,-24.17c0.459,-1.98 0.909,-3.97 1.37,-5.94c0.46,-1.98 0.92,-3.94 1.289,-5.93c0.79,-3.96 1.571,-7.9 2.351,-11.81c0.79,-3.9 1.57,-7.78 2.34,-11.62c0.76,-3.85 1.62,-7.64 2.23,-11.47c1.33,-7.62 2.66,-15.11 4.01,-22.44c1.45,-7.31 2.49,-14.59 3.68,-21.66c1.16,-7.08 2.43,-13.99 3.62,-20.74c1.04,-6.79 2.14,-13.4 3.3,-19.83c1.14,-6.42 2.46,-12.64 3.48,-18.73c1.1,-6.07 2.23,-12.01 3.37,-17.79c0.59,-2.89 1.17,-5.75 1.74,-8.56c0.51,-2.83 1.02,-5.63 1.51,-8.39c1.01,-5.51 2.04,-10.87 3.09,-16.08c0.54,-2.6 1.07,-5.16 1.59,-7.68c0.56,-2.52 0.94,-5.02 1.43,-7.47c1.85,-9.81 3.79,-18.96 5.8,-27.4c1.75,-8.48 3.56,-16.25 5.46,-23.26c0.95,-3.5 1.91,-6.82 2.89,-9.94c0.91,-3.12 1.79,-6.05 2.72,-8.77c1.83,-5.45 3.75,-10.07 5.73,-13.81c3.95,-7.48 8.15,-11.43 12.46,-11.28Z" style="fill:#1e7560;fill-rule:nonzero;"/><path d="M2203.56,2125.27l-341.57,-0l51.68,-476.03l238.2,-0l51.69,476.03Z" style="fill:#959ba4;fill-rule:nonzero;"/><path d="M2064.81,2068.03c-16.26,-7.331 -31.48,-17.371 -45.59,-31.751c-29.83,-30.4 -47.51,-70.41 -57.6,-111.31c-6.51,-26.41 -10.03,-53.5 -11.7,-80.62c-1.21,-19.55 -7.27,-195.11 -6.5,-195.11l-29.75,-0l-51.68,476.03l341.57,-0l-3.92,-36.12c-0,-0 -31.53,2.131 -53.67,-0.74c-29.35,-3.8 -56.41,-9.22 -81.16,-20.379Z" style="fill:#848890;fill-rule:nonzero;"/><path d="M1695.09,2141.05l23.94,0l-15.85,-211.56l-79.22,-0l71.13,211.56Z" style="fill:#c6ccda;fill-rule:nonzero;"/><path d="M1695.09,2141.05l9.87,0l-41.39,-211.56l-39.61,-0l71.13,211.56Z" style="fill:#959ba4;fill-rule:nonzero;"/><path d="M1468.53,2121.24l21.7,-0l-14.36,-191.75l-71.8,-0l64.46,191.75Z" style="fill:#c6ccda;fill-rule:nonzero;"/><path d="M1468.53,2121.24l8.95,-0l-37.51,-191.75l-35.9,-0l64.46,191.75Z" style="fill:#959ba4;fill-rule:nonzero;"/><path d="M795.203,2141.05l-23.944,0l15.85,-211.56l79.217,-0l-71.123,211.56Z" style="fill:#c6ccda;fill-rule:nonzero;"/><path d="M795.203,2141.05l-9.869,0l41.383,-211.56l39.609,-0l-71.123,211.56Z" style="fill:#959ba4;fill-rule:nonzero;"/><path d="M1021.76,2121.24l-21.7,-0l14.36,-191.75l71.8,-0l-64.46,191.75Z" style="fill:#c6ccda;fill-rule:nonzero;"/><path d="M1021.76,2121.24l-8.95,-0l37.51,-191.75l35.9,-0l-64.46,191.75Z" style="fill:#959ba4;fill-rule:nonzero;"/><path d="M1755.35,1670.19c-254.73,-36.66 -513.13,-43.43 -769.951,-20.11c-44.391,3.95 -88.614,-28.61 -98.346,-73.65c-46.236,-221.37 -92.471,-442.74 -138.707,-664.102c-9.728,-45.007 32.454,-109.623 93.96,-118.169c351.594,-48.735 707.974,-56.214 1061.88,-22.232c61.92,5.885 104.19,70.694 94.04,118.581c-48.18,235.062 -96.37,470.122 -144.55,705.172c-10.15,47.93 -54.32,80.88 -98.33,74.51Z" style="fill:#bc842b;fill-rule:nonzero;"/><path d="M1663.73,1506.4c-228.07,-32.25 -459.35,-37.74 -689.116,-16.31c-39.709,3.63 -79.478,-25.43 -88.443,-65.75c-37.609,-174.93 -75.22,-349.86 -112.829,-524.792c-8.963,-40.28 27.766,-80.601 81.818,-88.02c308.89,-42.309 621.91,-48.374 932.68,-18.031c54.39,5.257 91.17,45.924 81.83,88.781c-39.15,185.752 -78.3,371.502 -117.45,557.262c-9.34,42.89 -49.09,72.46 -88.49,66.86Z" style="fill:#fbb03a;fill-rule:nonzero;"/><path d="M634.894,1731.88l-0,-382.11c-0,-45.25 37.022,-82.27 82.27,-82.27l99.254,0c45.248,0 82.27,37.02 82.27,82.27l-0,382.11c-0,45.25 -37.022,82.27 -82.27,82.27l-99.254,-0c-45.248,-0 -82.27,-37.02 -82.27,-82.27Z" style="fill:#bc842b;fill-rule:nonzero;"/><path d="M553.637,1731.88l0,-382.11c0,-45.25 37.021,-82.27 82.269,-82.27l99.255,0c45.248,0 82.269,37.02 82.269,82.27l-0,382.11c-0,45.25 -37.021,82.27 -82.269,82.27l-99.255,-0c-45.248,-0 -82.269,-37.02 -82.269,-82.27Z" style="fill:#fbb03a;fill-rule:nonzero;"/><path d="M1658.45,1695.64l-809.827,0c-46.984,0 -74.672,-32.56 -61.53,-72.36c0,0 115.892,-154.87 215.717,-151.1l818.23,0.21c62.22,-0.07 66.26,32.36 53.12,72.16c0,-0 -64.07,78.97 -94.73,110.86c-25.22,26.25 -74,40.23 -120.98,40.23Z" style="fill:#fcc062;fill-rule:nonzero;"/><path d="M1834.54,1713.3l-109.52,81.06c0,-0 -69.11,-166.74 -35.34,-203.67c18.28,-19.99 145.51,-117.68 145.51,-117.68c57.3,-0.89 56.67,23.76 56.67,63.56l3.33,72.16c-0,39.8 -5.29,55.88 -60.65,104.57Z" style="fill:#bc842b;fill-rule:nonzero;"/><path d="M1673.31,1814.15l-823.428,-0c-43.243,-0 -78.623,-35.38 -78.623,-78.62l-0,-66.22c-0,-43.24 35.38,-78.62 78.623,-78.62l823.428,0c43.24,0 78.62,35.38 78.62,78.62l0,66.22c0,43.24 -35.38,78.62 -78.62,78.62Z" style="fill:#fbb03a;fill-rule:nonzero;"/><path d="M1760.25,1950.13l-1052.91,0c-23.9,0 -43.454,-19.56 -43.454,-43.46l0,-159.3c0,-23.9 19.554,-43.46 43.454,-43.46l1052.91,-0c23.9,-0 43.46,19.56 43.46,43.46l-0,159.3c-0,23.9 -19.56,43.46 -43.46,43.46Z" style="fill:#fbb03a;fill-rule:nonzero;"/><path d="M975.389,1474.83l0.015,0l-0.015,0Zm0.19,-0.04c0.011,-0 0.029,-0.01 0.04,-0.01c-0.012,0 -0.028,0.01 -0.04,0.01Zm0.221,-0.05c0.02,-0 0.04,-0.01 0.06,-0.01c-0.018,-0 -0.041,0.01 -0.06,0.01Zm0.179,-0.04c0.032,-0.01 0.059,-0.01 0.091,-0.02c-0.031,0.01 -0.06,0.01 -0.091,0.02Zm0.169,-0.04c0.075,-0.01 0.146,-0.03 0.221,-0.04c-0.075,0.01 -0.146,0.03 -0.221,0.04Zm0.239,-0.05c0.043,-0.01 0.089,-0.01 0.132,-0.02c-0.043,0.01 -0.088,0.01 -0.132,0.02Zm0.163,-0.03c7.592,-1.6 15.16,-2.46 22.645,-2.46c1.205,-0 2.415,0.02 3.615,0.06l563.45,0.14l-563.45,-0.14c-1.21,-0.04 -2.41,-0.06 -3.617,-0.06c-7.485,-0 -15.051,0.86 -22.643,2.46Z" style="fill:#c3892e;"/><path d="M1551.83,1590.69l-209.62,0c-19.39,-22.63 -41.81,-49.57 -61.93,-69.04c-35.45,17.73 -92.86,46.02 -139.69,69.04l-253.88,0c2.821,-24.8 5.191,-49.64 6.891,-74.55c25.764,-19.25 53.926,-35.17 81.788,-41.31l0.015,0c0.059,-0.02 0.116,-0.03 0.175,-0.04c0.012,-0 0.028,-0.01 0.04,-0.01c0.061,-0.01 0.12,-0.03 0.181,-0.04c0.019,-0 0.042,-0.01 0.06,-0.01c0.039,-0.01 0.08,-0.02 0.119,-0.03c0.031,-0.01 0.06,-0.01 0.091,-0.02c0.024,-0 0.053,-0.01 0.078,-0.02c0.075,-0.01 0.146,-0.03 0.221,-0.04c0.006,-0 0.011,-0 0.018,-0.01c0.044,-0.01 0.089,-0.01 0.132,-0.02c0.012,-0.01 0.02,-0.01 0.031,-0.01c7.592,-1.6 15.158,-2.46 22.643,-2.46c1.207,-0 2.407,0.02 3.617,0.06l563.45,0.14c-4.07,39.57 -8.95,79.03 -14.43,118.37Z" style="fill:#c39550;fill-rule:nonzero;"/><path d="M1534.48,1703.91l-175.2,-0c3.86,-27.31 7.53,-54.67 10.89,-82.11c-7.87,-7.87 -17.48,-18.86 -27.96,-31.11l209.62,0c-5.27,37.83 -11.11,75.55 -17.35,113.22Zm-464.89,-0l-198.1,-0c5.6,-37.82 10.931,-75.49 15.22,-113.22l253.88,0c-43,21.14 -77.08,37.83 -77.08,37.83l6.08,75.39Z" style="fill:#c3892e;fill-rule:nonzero;"/><path d="M1489.53,1950.13l-167.4,0c12.06,-82 25.5,-163.86 37.15,-246.22l175.2,-0c-13.63,82.27 -29.18,164.24 -44.95,246.22Zm-477.86,0l-179.241,0c8.284,-39.68 15.156,-79.73 20.736,-121.33c5.758,-42 12.203,-83.54 18.325,-124.89l198.1,-0l5.4,67.03c-17.37,39.61 -63.32,179.19 -63.32,179.19Z" style="fill:#c3892e;fill-rule:nonzero;"/><path d="M701.361,2098.46c0,0 40.015,-24.939 58.683,-38.48l51.464,-57.52l67.257,-5.85c0,0 -20.81,81.47 -20.804,89.671c0.022,29.459 -18.093,57.409 -61.374,53.989c-43.281,-3.42 -95.226,-41.81 -95.226,-41.81Z" style="fill:#ccc;fill-rule:nonzero;"/><path d="M609.922,2150.69c8.511,-11.28 37.659,-19.11 42.878,-21.57c15.801,-7.44 43.209,-50.02 43.209,-50.02c30.936,-16.73 46.551,-16.67 77.329,0.81c14.2,8.07 24.899,26.57 30.018,37.79c11.694,-8.38 38.603,-21.909 44.337,-32.45c8.375,-15.39 11.262,-19.9 20.344,-8.29c2.146,2.74 3.57,119.59 3.57,119.59l-253.249,3.32c-0,-0 -22.214,-30.91 -8.436,-49.18Z" style="fill:#1f1f2c;fill-rule:nonzero;"/><path d="M1281.08,2098.8c-0,0 35.2,-24.88 51.62,-38.39l45.24,-57.44l53.23,0.25c0,0 -12.21,75.44 -12.19,83.65c0.06,29.46 -15.85,57.37 -53.97,53.89c-38.12,-3.49 -83.93,-41.96 -83.93,-41.96Z" style="fill:#ccc;fill-rule:nonzero;"/><path d="M1200.63,2150.89c7.48,-11.27 33.14,-19.05 37.73,-21.5c13.91,-7.42 37.98,-49.96 37.98,-49.96c27.22,-16.67 40.97,-16.6 68.1,0.94c12.52,8.09 21.97,26.6 26.5,37.83c10.28,-8.36 33.96,-21.84 38.99,-32.379c7.36,-15.381 9.89,-19.881 17.91,-8.26c1.89,2.75 3.33,119.589 3.33,119.589l-223.03,2.93c0,0 -19.61,-30.95 -7.51,-49.19Z" style="fill:#1f1f2c;fill-rule:nonzero;"/><path d="M1458.32,1283.68c66.81,93.43 107.73,91.02 126.4,162.9c6.85,26.35 -33.71,54.7 -40.23,111.12c-7.23,62.53 28.26,129.09 -106.34,504.79l-126.21,0c39.31,-283.74 39.79,-511.25 39.31,-535.58c-35.76,-21.15 -51.02,-43.59 -86.79,-64.74c-35.82,-3.28 -187.56,55.15 -206.64,71.51c-21.66,18.56 -11.64,144.44 -23.04,170.47c-59.694,136.3 -160.205,347.901 -160.205,347.901l-117.095,-0.49c-0,0 94.967,-509.981 117.388,-570.011c20.505,-54.89 113.21,-95.3 184.222,-114.42c10.37,-27.46 14.78,-55.98 25.15,-83.45l374.08,-0Z" style="fill:#2a2b3b;fill-rule:nonzero;"/><path d="M1584.72,1446.58c-18.67,-71.88 -59.59,-69.47 -126.4,-162.9l-374.08,-0c-10.37,27.47 -14.78,55.99 -25.15,83.45c-53.16,14.31 -118.467,40.55 -156.551,75.87c27.28,1.2 54.406,4.78 81.9,12.04c18.981,5.11 37.971,5.11 56.221,12.41c13.14,5.11 20.44,17.53 16.79,31.4c-3.65,16.06 -21.17,24.82 -32.121,37.23c-3.649,4.39 -8.769,7.31 -10.959,12.42c-17.519,39.42 -13.87,82.5 -15.329,124.85c0,10.22 -2.92,21.18 -6.571,31.4c-24.095,67.9 -59.872,129.23 -86.157,197.14c-18.253,48.92 -45.269,91.99 -57.681,144.56c-0.534,1.871 -1.167,3.69 -1.856,5.48l27.799,0.121c0,-0 100.511,-211.601 160.205,-347.901c11.4,-26.03 1.38,-151.91 23.04,-170.47c19.08,-16.36 170.82,-74.79 206.64,-71.51c35.77,21.15 51.03,43.59 86.79,64.74c0.48,24.33 0,251.84 -39.31,535.58l44.7,0c13.7,-102.93 27.19,-451.2 34.49,-511.07c0.73,-5.11 0.73,-10.95 -0.73,-16.06c-1.46,-8.04 -37.73,-44.64 -17.98,-76.35c19.75,-31.71 161.82,-44.13 195.4,-41.21c6.57,-0 6.57,12.41 8.03,20.45c1.46,6.57 0.73,13.14 2.19,20.44c1.38,5.52 2.11,11.69 0.34,16.66c5.49,-10.52 8.69,-19.76 6.34,-28.77Z" style="fill:#1a1b26;fill-rule:nonzero;"/><path d="M1618.59,517.104c1.24,4.652 2.24,9.356 3.03,14.064c13.19,78.838 -34.17,163.698 -108.18,193.875c-38.25,15.593 -80.56,17.392 -121.86,17.624c-49.38,0.278 -99.63,-1.535 -146.43,-17.309c-46.8,-15.775 -101.77,-13.634 -123.32,-48.255c-17.03,-27.374 -39.95,-71.606 -23.44,-108.951c12.81,-28.974 50.54,-67.357 81.97,-71.264c105.08,-13.061 221.64,-62.111 327.52,-61.258c24.89,0.201 50.64,4.902 70.93,19.323c20.49,14.562 33.29,37.643 39.78,62.151Z" style="fill:#2a2b3b;fill-rule:nonzero;"/><path d="M1443.69,617.659c-19.83,69.508 -88.38,133.881 -157.53,133.881c-69.16,0 -135.42,-66.35 -158.31,-134.25c-28.35,-84.091 80.94,-22.276 161.04,-67.863c108.87,-61.962 175.01,-2.582 154.8,68.232Z" style="fill:#16161e;fill-rule:nonzero;"/><path d="M1486.88,681.345c-42.64,-10.013 -74.44,-47.788 -89.06,-89.076c-14.62,-41.289 -25.18,-260.329 -25.18,-260.329l-133.45,-0.001c-0,-0 -10.57,219.041 -25.19,260.33c-14.62,41.288 -46.42,79.062 -89.06,89.076c-0,-0 77.58,60.742 180.97,60.742c103.39,0 180.97,-60.742 180.97,-60.742Z" style="fill:#f9b4ab;fill-rule:nonzero;"/><path d="M1272.23,585.232c44.18,-9.016 82.41,-32.405 114.16,-63.066c-8.38,-78.883 -13.75,-190.226 -13.75,-190.226l-133.45,-0.001c-0,-0 -8.29,171.733 -20.34,239.731c15.48,12.173 35.7,17.099 53.38,13.562Z" style="fill:#f39b92;fill-rule:nonzero;"/><path d="M1041.63,1375.05c21.7,-164.89 12.76,-229.47 0,-395.412c-51.393,-302.388 19.14,-337.75 86.22,-362.349c10.76,61.909 38.04,100.489 118.23,97.251c74.44,-3.006 151.4,-53.761 201.24,-109.043c65.24,15.75 148.7,35.793 209.76,63.724c-28.28,86.376 -44.59,181.3 -90.97,259.465c-8.26,184.414 -25.36,245.804 19.14,424.954c-25.35,7.83 -378.04,88.66 -543.62,21.41Z" style="fill:#2a2b3b;fill-rule:nonzero;"/><path d="M1557.63,904.537c-3.44,6.014 -8.38,182.993 -29.21,192.983c-20.83,9.99 -343.46,-1.4 -453.43,-2.26c-1.72,0 -29.68,-206.512 -49.19,-241.591c2.48,35.825 7.58,77.455 15.83,125.969c12.76,165.942 21.7,230.522 0,395.412c165.58,67.25 518.27,-13.58 543.62,-21.41c-44.5,-179.15 -27.4,-240.54 -19.14,-424.954c14.93,-25.165 26.74,-52.072 36.84,-79.867c-3.6,2.465 -41.03,47.986 -45.32,55.718Z" style="fill:#1a1b26;fill-rule:nonzero;"/><path d="M826.935,1150.49c18.513,-57.94 80.231,-220.01 115.697,-319.834c15.02,-42.278 32.131,-87.495 66.858,-113.098c57.78,-42.591 152.37,-4.752 143.34,84.56c-42.75,119.503 -138.66,327.652 -173.376,380.882c-32.096,49.21 -180.617,55.42 -152.519,-32.51Z" style="fill:#2a2b3b;fill-rule:nonzero;"/><path d="M939.5,1137.6c-37.317,-20.52 -107.371,3.88 -107.812,30.4c-0.442,26.51 30.045,59.76 77.698,35.96c17.845,-8.92 95.234,-24.49 82.442,-37.29c-5.868,-5.87 -26.014,-14.6 -52.328,-29.07Z" style="fill:#f9b4ab;fill-rule:nonzero;"/><path d="M935.831,1140.24c-0,-0 56.694,18.77 65.519,23.94c8.82,5.18 43.4,75.54 52.58,92.4c9.18,16.85 -11.26,32.77 -23.77,10.79c-12.51,-21.97 -45.334,-73.56 -45.334,-73.56c-0,0 -41.29,-6.87 -51.812,-8.74c-10.521,-1.87 -19.885,-43.44 2.817,-44.83Z" style="fill:#f9b4ab;fill-rule:nonzero;"/><path d="M938.284,1157.25l49.135,44.5c0,0 26.131,51.25 32.871,66.91c6.75,15.65 -13.04,26.23 -22.354,8.05c-9.31,-18.17 -35.263,-54.02 -35.263,-54.02c-0,0 -52.31,-38.65 -58.696,-40.59c-6.386,-1.94 34.307,-24.85 34.307,-24.85Z" style="fill:#f9b4ab;fill-rule:nonzero;"/><path d="M893.803,1165.99l47.769,30.09c0,-0 27.08,50.32 34.114,65.73c7.035,15.41 -12.636,26.51 -22.284,8.67c-9.648,-17.85 -36.289,-52.83 -36.289,-52.83c-0,0 -46.322,-26.9 -52.76,-28.65c-6.438,-1.75 29.45,-23.01 29.45,-23.01Z" style="fill:#f9b4ab;fill-rule:nonzero;"/><path d="M874.302,1165.87l38.159,30.11c-0,-0 18.02,45.92 22.448,59.87c4.427,13.96 -13.837,21.93 -20.266,5.65c-6.43,-16.29 -25.735,-48.87 -25.735,-48.87c0,0 -37.25,-27.23 -42.642,-29.29c-5.393,-2.06 28.036,-17.47 28.036,-17.47Z" style="fill:#f9b4ab;fill-rule:nonzero;"/><path d="M1112.21,656.656c3.75,27.26 19.45,52.273 41.68,68.325c6.27,4.525 13.04,8.232 20.18,11.169c2.5,1.024 3.58,-3.03 1.12,-4.043c-24.27,-9.974 -43.9,-30.602 -53.36,-55.004c-2.69,-6.945 -4.56,-14.183 -5.58,-21.562c-0.15,-1.13 -1.59,-1.725 -2.58,-1.463c-1.21,0.319 -1.61,1.462 -1.46,2.578Z" style="fill:#1f1f2c;fill-rule:nonzero;"/><path d="M1214.06,752.575c24.99,0.72 50.01,0.023 74.91,-2.091c24.77,-2.101 49.43,-5.577 73.81,-10.393c24.53,-4.843 48.78,-11.048 72.61,-18.578c23.7,-7.488 46.98,-16.292 69.72,-26.339c22.85,-10.103 45.15,-21.492 66.71,-34.121c2.69,-1.573 5.36,-3.165 8.02,-4.774c2.31,-1.394 0.21,-5.021 -2.11,-3.62c-21.21,12.817 -43.13,24.438 -65.65,34.794c-22.54,10.37 -45.67,19.455 -69.23,27.245c-23.52,7.781 -47.48,14.263 -71.72,19.412c-24.27,5.155 -48.82,8.971 -73.51,11.391c-24.66,2.417 -49.45,3.458 -74.23,3.088c-3.11,-0.047 -6.22,-0.117 -9.33,-0.207c-2.7,-0.077 -2.69,4.115 0,4.193Z" style="fill:#1f1f2c;fill-rule:nonzero;"/><path d="M1451.49,623.427c-7.73,50.901 -19.81,101.119 -36.07,149.965c-16.28,48.88 -36.72,96.353 -61.06,141.754c-13.62,25.397 -28.46,50.13 -44.45,74.106c-2.05,3.07 2.9,5.936 4.93,2.886c28.72,-43.068 53.71,-88.595 74.64,-135.937c20.81,-47.055 37.69,-95.834 50.28,-145.721c7.13,-28.212 12.87,-56.765 17.24,-85.533c0.54,-3.599 -4.96,-5.151 -5.51,-1.52Z" style="fill:#c54e50;fill-rule:nonzero;"/><path d="M1325.29,989.965c0,5.703 -4.95,10.325 -11.06,10.325c-6.11,0 -11.07,-4.622 -11.07,-10.325c0,-5.704 4.96,-10.327 11.07,-10.327c6.11,-0 11.06,4.623 11.06,10.327Z" style="fill:#ccc;fill-rule:nonzero;"/><path d="M1354.06,940.543c0,5.704 -4.95,10.327 -11.06,10.327c-6.11,-0 -11.07,-4.623 -11.07,-10.327c0,-5.704 4.96,-10.327 11.07,-10.327c6.11,-0 11.06,4.623 11.06,10.327Z" style="fill:#ccc;fill-rule:nonzero;"/><path d="M1117.25,623.159c-8.55,50.769 -11.13,83.5 -10.91,134.983c0.21,51.515 4.82,102.996 13.79,153.726c5.02,28.378 11.4,56.507 19.11,84.274c0.99,3.555 -4.61,4.738 -5.59,1.202c-13.85,-49.877 -23.39,-100.927 -28.51,-152.436c-5.09,-51.198 -5.91,-102.808 -2.31,-154.135c2.03,-29.027 5.48,-39.195 10.3,-67.889c0.61,-3.59 4.12,0.275 4.12,0.275Z" style="fill:#c54e50;fill-rule:nonzero;"/><path d="M1124.4,992.019c-1.78,5.419 1.49,11.361 7.29,13.261c5.81,1.91 11.96,-0.94 13.74,-6.358c1.78,-5.419 -1.49,-11.357 -7.29,-13.263c-5.81,-1.906 -11.96,0.942 -13.74,6.36Z" style="fill:#ccc;fill-rule:nonzero;"/><path d="M1112.49,936.09c-1.78,5.419 1.48,11.357 7.29,13.263c5.8,1.906 11.95,-0.941 13.73,-6.36c1.78,-5.419 -1.48,-11.357 -7.29,-13.264c-5.81,-1.906 -11.95,0.942 -13.73,6.361Z" style="fill:#ccc;fill-rule:nonzero;"/><path d="M1407.28,369.514c18.74,132.953 -133.03,236.813 -189.77,234.934c-44.76,-1.483 -132.43,-35.757 -182.66,-161.708c-74.886,-187.772 -38.132,-281.473 113.09,-321.254c151.21,-39.781 230.09,40.519 259.34,248.028Z" style="fill:#f9b4ab;fill-rule:nonzero;"/><path d="M1325.31,398.052c-0.32,5.197 -4.54,9.867 -11.56,13.88c-1.75,1.003 -3.68,1.964 -5.78,2.881c-2.09,0.96 -4.35,1.981 -6.76,2.911c-4.82,1.921 -10.23,3.471 -16.13,5.416c-2.95,0.913 -6.03,1.784 -9.22,2.61c-3.19,0.842 -6.48,1.887 -9.88,2.755c-1.7,0.431 -3.43,0.869 -5.18,1.314c-0.88,0.22 -1.76,0.41 -2.65,0.645c-0.89,0.247 -1.78,0.495 -2.67,0.746c-3.59,0.983 -7.28,1.921 -11.05,2.81c-15.06,3.947 -31.41,8.041 -48.52,12.593c-17.08,4.71 -33.26,9.429 -48.25,13.621c-3.71,1.139 -7.37,2.189 -10.96,3.152c-0.9,0.238 -1.8,0.473 -2.68,0.706c-0.89,0.244 -1.75,0.527 -2.62,0.78c-1.74,0.501 -3.45,0.995 -5.13,1.48c-3.38,0.97 -6.75,1.729 -9.93,2.612c-3.17,0.898 -6.27,1.699 -9.27,2.401c-6.08,1.3 -11.53,2.692 -16.66,3.463c-2.54,0.413 -5.01,0.672 -7.3,0.9c-2.27,0.265 -4.42,0.41 -6.44,0.43c-8.08,0.077 -14.08,-1.827 -16.97,-6.156c-2.88,-4.324 -2.36,-10.696 1.33,-18.702c0.92,-2 2.04,-4.101 3.36,-6.295c1.33,-2.156 2.91,-4.315 4.65,-6.594c3.52,-4.505 7.7,-9.503 12.85,-14.212c2.54,-2.407 5.27,-4.865 8.16,-7.362c2.9,-2.482 6.08,-4.781 9.36,-7.222c1.65,-1.207 3.33,-2.419 5.06,-3.636c0.86,-0.603 1.73,-1.231 2.62,-1.816c0.9,-0.566 1.81,-1.137 2.73,-1.712c3.67,-2.285 7.49,-4.578 11.46,-6.867c15.99,-8.792 34.57,-16.632 54.85,-22.207c20.32,-5.424 40.31,-8.032 58.54,-8.512c4.58,-0.023 9.03,0.026 13.36,0.145c1.08,0.034 2.15,0.069 3.21,0.102c1.07,0.054 2.13,0.16 3.18,0.244c2.1,0.18 4.17,0.376 6.2,0.587c4.06,0.453 7.96,0.834 11.71,1.514c3.76,0.696 7.35,1.443 10.76,2.236c6.82,1.466 12.94,3.674 18.25,5.789c2.65,1.089 5.1,2.156 7.34,3.344c2.24,1.232 4.26,2.482 6.07,3.743c7.22,5.049 10.87,10.29 10.56,15.483Z" style="fill:#f39b92;fill-rule:nonzero;"/><path d="M1190.41,450.747c0.08,0.479 -0.25,0.986 -1.02,1.521c-0.39,0.254 -0.89,0.566 -1.51,0.787c-0.61,0.205 -1.34,0.401 -2.19,0.581c-3.36,0.636 -8.67,-0.038 -14.03,-3.161c-5.35,-3.086 -10.58,-8.463 -14.04,-15.897c-3.43,-7.554 -4.4,-16.049 -4.4,-24.425c0.03,-8.344 0.87,-15.833 1.06,-22.22c0.22,-6.417 -0.12,-12.05 -0.93,-16.639c-0.82,-4.581 -2.04,-8.159 -3.02,-10.746c-0.26,-0.634 -0.47,-1.229 -0.64,-1.776c-0.17,-0.538 -0.34,-0.993 -0.43,-1.418c-0.18,-0.84 -0.14,-1.473 0.19,-1.827c0.34,-0.354 0.94,-0.412 1.83,-0.159c0.44,0.132 0.97,0.32 1.53,0.626c0.55,0.315 1.16,0.714 1.84,1.197c2.63,1.959 5.77,5.736 8.16,11.069c2.39,5.319 3.91,12.054 4.42,19.386c0.51,7.373 0.06,14.986 0.04,22.521c-0.01,3.755 0.13,7.289 0.5,10.579c0.35,3.26 0.99,6.414 1.84,8.953c1.8,5.297 4.83,9.767 7.91,12.747c3.08,3.016 6.19,4.739 8.61,5.739c0.61,0.222 1.16,0.456 1.67,0.693c0.5,0.222 0.94,0.365 1.32,0.571c0.74,0.388 1.22,0.82 1.29,1.298Z" style="fill:#df7173;fill-rule:nonzero;"/><path d="M1286.93,337.385c-12.28,-20.616 -36.88,-31.55 -57.54,-26.72c-20,4.675 -35.83,24.036 -38.26,46.911c12.04,22.41 37.97,35.392 59.21,28.404c30.56,-10.05 36.66,-48.474 36.59,-48.595Z" style="fill:#fff;fill-rule:nonzero;"/><path d="M1209.74,365.169c4.25,16.177 20.82,25.841 36.99,21.585c16.18,-4.255 25.85,-20.819 21.59,-36.996c-4.26,-16.177 -20.82,-25.841 -37,-21.586c-16.17,4.256 -25.84,20.82 -21.58,36.997Z" style="fill:#39394f;fill-rule:nonzero;"/><path d="M1190.87,359.489c2.36,-16.86 13.42,-31.937 28.43,-39.831c15.1,-7.943 33.23,-7.291 48.25,0.551c8.34,4.356 14.28,10.105 19.23,18.122c0.56,-0.964 0.05,-4.938 -0.49,-5.809c-8.82,-14.264 -24.66,-23.538 -41.31,-24.936c-17.13,-1.439 -33.66,6.311 -44.42,19.559c-6.03,7.416 -10.08,16.344 -11.4,25.821c-0.13,0.889 0.59,2.405 0.82,3.27c0.2,0.769 0.41,1.538 0.62,2.304c0.06,0.24 0.3,0.718 0.27,0.949Z" style="fill:#39394f;fill-rule:nonzero;"/><path d="M1033.86,403.959c-0.031,-23.837 14.15,-44.976 32.65,-50.444c17.9,-5.294 39.43,4.236 52.08,23.144c1.07,25.297 -13.2,48.853 -33.17,52.707c-28.72,5.543 -51.56,-25.266 -51.56,-25.407Z" style="fill:#fff;fill-rule:nonzero;"/><path d="M1109.89,391.436c4.26,16.176 -4.21,32.426 -18.92,36.294c-14.7,3.869 -30.07,-6.109 -34.33,-22.287c-4.25,-16.176 4.22,-32.426 18.92,-36.295c14.71,-3.868 30.08,6.11 34.33,22.288Z" style="fill:#39394f;fill-rule:nonzero;"/><path d="M1119.69,378.216c-9.77,-13.672 -25.54,-21.691 -41.03,-21.56c-15.6,0.133 -29.53,9.22 -37.64,23.144c-4.51,7.736 -6.47,15.565 -6.6,24.918c-0.89,-0.581 -2.351,-4.305 -2.341,-5.321c0.231,-16.643 8.321,-32.214 20.731,-41.257c12.78,-9.308 29.4,-10.279 44.08,-3.723c8.21,3.669 15.59,9.591 21.08,17.275c0.52,0.721 0.66,2.389 0.89,3.254c0.2,0.769 0.4,1.538 0.6,2.309c0.06,0.241 0.09,0.773 0.23,0.961Z" style="fill:#39394f;fill-rule:nonzero;"/><path d="M1400.93,178.32c-14.26,-30.957 -32.46,-64.003 -55.93,-90.189c-57.03,-48.284 -147.87,-71.236 -219.67,-50.247c-51.01,14.914 -95.761,48.986 -125.31,93.068c-22.545,11.902 -36.619,37.509 -40.179,63.168c-3.957,28.525 2.794,57.361 10.223,85.185c14.325,53.648 47.836,146.412 47.836,146.412c0,0 10,7.892 13.02,5.273c-2.15,-7.679 -4.53,-15.302 -7.33,-22.813c-17.76,-51.644 -36.029,-127.347 6.53,-166.08c4.469,-4.863 9.94,-8.716 15.949,-10.881c9.811,10.092 14.691,24.857 12.641,38.806c-2.19,14.958 -12.28,28.524 -25.98,34.925c25.3,-3.574 53.99,-9.304 67.01,-31.287c10.98,-18.543 6.61,-41.845 4.32,-63.274c-1.83,-17.15 -0.88,-36.882 8.81,-50.12c18.45,-5.614 39.68,-10.589 55.57,0.172c15.45,10.461 19.07,31.237 28.33,47.433c9.88,17.27 27.39,29.985 46.87,34.03c19.52,4.054 40.7,-0.666 56.64,-12.63c-12.02,-9.361 -20.29,-23.533 -22.2,-38.674c4.06,8.089 13.55,11.874 22.49,13.283c8.94,1.41 18.25,1.18 26.72,4.366c17.19,6.465 26.45,25.13 30.96,42.929c4.52,17.798 6.13,36.776 15.33,52.665c5.18,8.94 13.92,16.539 23.5,19.996c5.62,2.029 20.58,7.915 26.22,6.526c-13.46,-51.162 -26.92,-102.322 -40.38,-153.479c5.79,1.831 12,2.354 18.01,1.437Z" style="fill:#2a2b3b;fill-rule:nonzero;"/><path d="M1192.06,313.723c16.49,-15.319 39.83,-22.5 62.11,-19.904c6.22,0.725 12.34,2.228 18.18,4.489c-0.1,-0.04 -0.72,-4.765 -0.63,-4.188c-0.55,-3.362 -1.13,-6.72 -1.71,-10.076c-0.59,-3.356 -47.95,-20.364 -67.69,-9.7c-5.51,2.978 -10.63,6.638 -15.22,10.902c-0.22,0.206 0.69,4.602 0.62,4.188c0.55,3.362 1.13,6.72 1.72,10.075c0.58,3.356 1.17,6.712 1.79,10.061c0.14,0.741 0.28,1.481 0.42,2.222c0.1,0.651 0.24,1.294 0.41,1.931Z" style="fill:#2a2b3b;fill-rule:nonzero;"/><path d="M1100.76,337.74c-21.72,-5.267 -45.35,-0.092 -63.29,13.086c-5.011,3.68 -9.54,7.984 -13.47,12.816c0.06,-0.085 -1.72,-4.504 -1.52,-3.955c-1.17,-3.198 -2.32,-6.406 -3.46,-9.617c-1.13,-3.21 31.37,-41.229 53.61,-41.608c6.21,-0.106 12.42,0.574 18.46,2.04c0.29,0.071 1.66,4.349 1.51,3.955c1.18,3.198 2.32,6.406 3.46,9.616c1.14,3.211 2.28,6.422 3.38,9.644c0.25,0.714 0.49,1.427 0.73,2.14c0.23,0.618 0.43,1.246 0.59,1.883Z" style="fill:#2a2b3b;fill-rule:nonzero;"/><path d="M1336.14,343.534c3.43,-21.093 16.95,-40.313 35.64,-50.669c9.79,-5.42 21.96,-8.409 32.11,-3.708c9.04,4.187 14.62,13.715 16.83,23.429c3.94,17.365 -1.45,35.986 -11.75,50.51c-10.3,14.523 -43.57,37.4 -59.29,45.76l-13.54,-65.322Z" style="fill:#f9b4ab;fill-rule:nonzero;"/><path d="M1402.74,333.007c-0.87,-0.48 -1.22,-1.732 -1.5,-3.358c-0.26,-1.63 -0.63,-3.717 -1.33,-6.003c-0.34,-1.147 -0.85,-2.344 -1.41,-3.56c-0.65,-1.191 -1.31,-2.432 -2.22,-3.553c-1.73,-2.302 -4.05,-4.134 -6.57,-5.093c-2.55,-0.873 -5.51,-0.949 -8.32,-0.288c-1.41,0.285 -2.71,0.814 -3.97,1.316c-1.21,0.576 -2.37,1.172 -3.36,1.837c-2,1.309 -3.62,2.681 -4.86,3.767c-1.26,1.068 -2.33,1.806 -3.3,1.619c-0.93,-0.168 -1.7,-1.319 -1.84,-3.482c-0.16,-2.15 0.55,-5.265 2.61,-8.54c2.03,-3.272 5.51,-6.56 10.33,-8.695c2.42,-1.017 5.14,-1.859 8.14,-2.015c2.99,-0.19 6.21,0.165 9.34,1.266c3.12,1.157 5.82,2.945 8,4.999c2.21,2.042 3.76,4.426 4.97,6.755c2.34,4.722 2.91,9.472 2.39,13.29c-0.52,3.833 -1.96,6.682 -3.46,8.235c-1.49,1.57 -2.82,1.962 -3.64,1.503Z" style="fill:#f58e8e;fill-rule:nonzero;"/><path d="M1271.25,448.196c-2.26,-1.454 -4.53,-2.908 -6.79,-4.362c-1.99,-1.279 -5.54,-0.406 -7.48,0.562c-1.55,0.772 -3.28,2.417 -1.26,3.718c1.32,0.845 2.63,1.688 3.94,2.532c-19.01,8.74 -38.03,17.48 -57.05,26.221c-5.05,2.32 -10.09,4.644 -15.14,6.958c-2.33,1.066 -4.66,2.124 -7.01,3.14c-2.58,1.119 -3.83,1.64 -6.39,2.589c-2.39,0.884 -4.8,1.695 -7.25,2.387c-0.17,0.049 -0.86,0.23 -0.95,0.258c-0.53,0.132 -1.06,0.261 -1.59,0.381c-1.32,0.297 -2.65,0.558 -3.99,0.771c-0.18,0.029 -0.94,0.129 -0.99,0.14c-0.54,0.062 -1.08,0.123 -1.62,0.17c-1.04,0.092 -2.09,0.14 -3.14,0.168c-0.12,-0.001 -0.56,0.001 -0.76,-0.004c-0.52,-0.014 -1.04,-0.036 -1.56,-0.068c-1.08,-0.065 -2.16,-0.167 -3.23,-0.314l-0.04,-0.005c-0.36,-0.061 -0.73,-0.123 -1.09,-0.192c-0.51,-0.096 -1.02,-0.202 -1.52,-0.316c-1.16,-0.261 -2.3,-0.57 -3.42,-0.929c-1.65,-0.528 -3.89,-1.511 -5.7,-2.516c-3.96,-2.199 -7.27,-5.29 -9.74,-9.086c-0.46,-0.712 -2.05,-0.924 -2.74,-0.976c-1.33,-0.101 -2.91,0.114 -4.16,0.564c-1.41,0.503 -4.39,1.824 -3.14,3.739c4.9,7.53 13.21,12.102 21.81,14.096c10.51,2.438 21.33,1.142 31.6,-1.804c10.71,-3.073 20.79,-8.094 30.88,-12.731c10.74,-4.936 21.48,-9.872 32.22,-14.808c12.01,-5.521 24.03,-11.042 36.04,-16.564c1.56,-0.714 3.26,-2.433 1.26,-3.719Z" style="fill:#bb564a;fill-rule:nonzero;"/><path d="M1567.93,1431.22c-9.99,8.51 -21.56,14.99 -33.84,18.69c-29.26,8.83 -61.32,3.07 -88.06,-12.53c-151.98,69.66 -331.18,70.39 -483.366,0.96c-20.271,12.03 -44.611,16.49 -67.711,12.94c-30.182,-4.64 -57.996,-22.27 -78.056,-46.64c-13.895,-16.87 -24.569,-38.12 -24.032,-60.52c0.538,-22.4 14.883,-45.25 35.673,-49.23c0,0 11.936,-2.28 27.001,-5.16c235.431,-0.01 470.851,-0.01 706.271,-0.01l0.64,-0c25.98,14.93 42.28,48.32 38.89,80.01c-2.6,24.23 -15.44,46.16 -33.41,61.49Z" style="fill:#c54e50;fill-rule:nonzero;"/><path d="M1562.45,1289.72l-0.64,-0c-235.42,-0 -470.84,-0 -706.27,0.01c-15.066,2.88 -27.001,5.16 -27.001,5.16c-20.791,3.98 -35.136,26.83 -35.674,49.23c-0.537,22.4 10.137,43.65 24.032,60.52c20.06,24.37 47.874,42 78.056,46.64c6.252,0.96 12.594,1.32 18.924,1.11c-33.389,-10.69 -69.845,-30.34 -84.292,-64.84c-12.407,-29.63 -6.167,-67.33 58.779,-67.33c258.056,-7.19 388.756,-0.72 633.706,-0.72c33.34,-0 48.36,6.79 58.77,20.98c18.93,25.82 -6.31,81.79 -45.36,89.11c-43.93,7.32 -55.34,3.68 -87.02,-28c-11.04,31.16 -63.09,51.78 -91.69,59.1c-90.46,21.46 -181.8,24.61 -270.77,17.57c120.27,24.42 247.59,10.65 360.03,-40.88c26.74,15.6 58.81,21.36 88.06,12.53c12.28,-3.7 23.85,-10.18 33.84,-18.7c17.97,-15.32 30.81,-37.25 33.41,-61.48c3.39,-31.69 -12.91,-65.08 -38.89,-80.01Z" style="fill:#933a3b;fill-rule:nonzero;"/><path d="M1860.6,1071.12c-16.38,-52.25 -92.97,-207.843 -125.27,-297.587c-13.68,-38.009 -29.36,-78.631 -63.05,-100.919c-56.05,-37.076 -150.87,0.018 -144.46,80.958c38.97,107.429 129.41,300.178 145.23,350.648c15.81,50.46 203.92,19.15 187.55,-33.1Z" style="fill:#2a2b3b;fill-rule:nonzero;"/><path d="M1496.3,1151.97c41.63,6.89 45.04,40.92 33.36,66.59c-11.68,25.66 -53.78,43.67 -85.08,-0.95c-11.72,-16.71 -29.31,-57.95 -41.01,-72.17c-11.7,-14.22 46.64,-1.1 92.73,6.53Z" style="fill:#f9b4ab;fill-rule:nonzero;"/><path d="M1450.21,1144.34c-0,-0 -58.68,-7.87 -68.83,-6.92c-10.16,0.94 -72.77,52.72 -88.56,64.72c-15.79,11.99 -4.97,36.6 16.1,21.22c21.06,-15.39 73.58,-49.95 73.58,-49.95c0,0 39.63,12.26 49.79,15.27c10.15,3.01 37.36,-32.63 17.92,-44.34Z" style="fill:#f9b4ab;fill-rule:nonzero;"/><path d="M1453.17,1165.24l-69.4,16.76c0,0 -55.15,36.76 -70.99,48.7c-15.85,11.94 -6.74,33.97 12.85,20.95c19.6,-13.01 64.42,-34.32 64.42,-34.32c0,0 68.11,-9.03 74.59,-7.33c6.48,1.7 -11.47,-44.76 -11.47,-44.76Z" style="fill:#f9b4ab;fill-rule:nonzero;"/><path d="M1483.58,1199.56l-58.44,0.64c0,-0 -54.06,26.22 -69.57,34.85c-15.52,8.62 -6.24,26.62 12.97,17.34c19.21,-9.27 63.25,-23.78 63.25,-23.78c0,-0 55.23,1.14 61.66,2.85c6.42,1.7 -9.87,-31.9 -9.87,-31.9Z" style="fill:#f9b4ab;fill-rule:nonzero;"/><path d="M1499.78,1208.75l-50.5,5.24c0,-0 -43.8,27.1 -56.25,35.84c-12.44,8.73 -2.36,23.63 13.21,14.03c15.57,-9.6 52.03,-25.72 52.03,-25.72c0,0 47.94,-3.43 53.69,-2.47c5.76,0.97 -12.18,-26.92 -12.18,-26.92Z" style="fill:#f9b4ab;fill-rule:nonzero;"/><path d="M1480.01,1259.06c105.29,0.99 174.12,-2.09 279.41,-1.07c46.64,-2.92 94.16,-18.38 111.7,-58.18c16.59,-37.66 6.43,-99.83 -10.52,-128.69c-16.96,-28.86 -154,11.9 -154,11.9c-105.74,28.63 -248.57,57.78 -248.57,57.78l21.98,118.26Z" style="fill:#2a2b3b;fill-rule:nonzero;"/><path d="M1652.13,1106.17c12.89,-2.58 20.62,14.87 28.35,23.46c1.72,1.72 4.3,2.58 5.16,1.72c6.87,-9.45 -4.3,-24.92 3.44,-27.49c16.32,-5.16 50.68,17.64 50.68,13.74c0,-3.89 -37.8,-23.19 -57.56,-36.08c-12.82,-8.97 -22.23,-20.5 -30.68,-32.67c7.35,17.55 13.42,32.57 17.6,43.97c-69.94,17.73 -146.33,34.34 -185.2,42.57c0,0 111.86,-18.75 168.21,-29.22Z" style="fill:#1a1b26;fill-rule:nonzero;"/><path d="M1860.6,1071.12c-16.38,-52.25 -92.97,-207.843 -125.27,-297.587c-11.02,-30.607 -23.33,-62.9 -45.3,-85.958c1.18,2.107 2.3,4.264 3.34,6.474c9.45,19.76 13.26,28.061 23.2,60.998c9.93,32.937 91.47,201.897 121.54,307.573c12.02,42.95 31.22,98.24 8.03,140.33c-12.89,24.06 -38.24,34.91 -78.82,41.87c-19.85,3.4 -50.74,8.29 -69.81,12.99c19.49,-0.07 39.9,-0.04 61.91,0.18c46.64,-2.92 94.16,-18.38 111.7,-58.18c16.59,-37.66 6.43,-99.83 -10.52,-128.69Z" style="fill:#3c3c57;fill-rule:nonzero;"/><path d="M1548.2,1279.82l-121.97,-14.76l-168.16,-0l-0,14.76l290.13,0Z" style="fill:#d2d7e2;fill-rule:nonzero;"/><path d="M765.299,845.652l535.841,-0c15.22,-0 30.06,12.443 32.99,27.653l72.9,378.865c2.92,15.21 -7.13,27.65 -22.35,27.65l-535.843,0c-15.22,0 -30.065,-12.44 -32.992,-27.65l-72.896,-378.865c-2.926,-15.21 7.132,-27.653 22.35,-27.653Z" style="fill:#fff;fill-rule:nonzero;"/><path d="M750.304,845.652l535.836,-0c15.22,-0 30.07,12.443 33,27.653l72.89,378.865c2.93,15.21 -7.13,27.65 -22.35,27.65l-535.839,0c-15.219,0 -30.066,-12.44 -32.992,-27.65l-72.896,-378.865c-2.926,-15.21 7.132,-27.653 22.351,-27.653Z" style="fill:#f2f3f6;fill-rule:nonzero;"/><path d="M750.304,845.652l535.836,-0c15.22,-0 30.07,12.443 33,27.653l72.89,378.865c2.93,15.21 -7.13,27.65 -22.35,27.65l-535.839,0c-15.219,0 -30.066,-12.44 -32.992,-27.65l-72.896,-378.865c-2.926,-15.21 7.132,-27.653 22.351,-27.653Z" style="fill:#c6ccda;fill-rule:nonzero;"/><path d="M879.591,1206.04l-129.523,-257.583l58.118,302.063c2.277,11.84 14.146,21.84 25.915,21.84l535.839,-0c2.57,-0 4.95,-0.5 7.02,-1.44c-156.25,-11 -497.369,-64.88 -497.369,-64.88Z" style="fill:#bdc2ce;fill-rule:nonzero;"/><path d="M1343.94,1042.01c-78.83,-74.845 -166.47,-137.611 -260.93,-188.899l202.87,-0c11.77,-0 23.64,10.004 25.92,21.846l32.14,167.053Z" style="fill:#dee3ec;fill-rule:nonzero;"/><path d="M1545.2,1301.23l-743.447,-0c-5.893,-0 -10.041,-4.81 -9.217,-10.7c0.823,-5.89 6.318,-10.71 12.21,-10.71l743.454,0c5.89,0 10.04,4.82 9.21,10.71c-0.82,5.89 -6.32,10.7 -12.21,10.7Z" style="fill:#c6ccda;fill-rule:nonzero;"/><path d="M1386.5,1301.23l-584.747,-0c-5.893,-0 -10.041,-4.81 -9.217,-10.7c0.823,-5.89 6.318,-10.71 12.21,-10.71l584.754,0c5.89,0 10.04,4.82 9.21,10.71c-0.82,5.89 -6.31,10.7 -12.21,10.7Z" style="fill:#adb7cc;fill-rule:nonzero;"/><path d="M1712.44,1731.88l-0,-382.11c-0,-45.25 37.02,-82.27 82.27,-82.27l99.25,0c45.25,0 82.27,37.02 82.27,82.27l-0,382.11c-0,45.25 -37.02,82.27 -82.27,82.27l-99.25,-0c-45.25,-0 -82.27,-37.02 -82.27,-82.27Z" style="fill:#bc842b;fill-rule:nonzero;"/><path d="M1631.18,1731.88l0,-382.11c0,-45.25 37.02,-82.27 82.27,-82.27l99.26,0c45.24,0 82.26,37.02 82.26,82.27l-0,382.11c-0,45.25 -37.02,82.27 -82.26,82.27l-99.26,-0c-45.25,-0 -82.27,-37.02 -82.27,-82.27Z" style="fill:#fbb03a;fill-rule:nonzero;"/></g></svg>