<svg viewBox="0 0 72 72" fill="none" xmlns="http://www.w3.org/2000/svg">
<path d="M65.5714 35.9101C65.5714 19.7312 52.2688 6.42859 35.9101 6.42859C19.5514 6.42859 6.42856 19.7312 6.42856 35.9101V58.9201C6.42856 62.5154 9.3048 65.5715 13.0799 65.5715H35.9101C52.2688 65.5715 65.5714 52.2688 65.5714 35.9101Z" fill="#072B61"/>
<path d="M44.719 13.4385C36.9891 13.4385 30.6973 19.7303 30.6973 27.2804V34.6508H23.3269C15.7768 34.6508 9.48495 40.7628 9.48495 48.4928C9.48495 56.2227 15.7768 62.3347 23.3269 62.3347C31.0568 62.3347 37.3486 56.2227 37.3486 48.4928V41.1224H44.719C52.2692 41.1224 58.561 35.0103 58.561 27.2804C58.561 19.7303 52.2692 13.4385 44.719 13.4385ZM44.719 19.91C48.6738 19.91 51.9096 23.3256 51.9096 27.2804C51.9096 31.415 48.6738 34.6508 44.719 34.6508H44.5392H38.4272C37.7082 34.6508 37.3486 34.1115 37.3486 33.5722V27.2804C37.3486 23.3256 40.5844 19.91 44.719 19.91ZM23.3269 41.1224H29.6187C30.3377 41.1224 30.6973 41.6617 30.6973 42.201V48.4928C30.6973 52.6274 27.4615 55.8631 23.3269 55.8631C19.3721 55.8631 15.9565 52.6274 15.9565 48.4928C15.9565 44.5379 19.3721 41.1224 23.3269 41.1224ZM57.3026 58.5596V58.9192H57.8419V60.537H58.2014V58.9192H58.7407V58.5596H57.3026ZM58.9205 58.5596V60.537H59.28V59.4585L59.8193 60.537L60.3586 59.4585V60.537H60.7181V58.5596H60.3586L59.9991 59.4585L59.8193 59.818V59.4585L59.28 58.5596H58.9205Z" fill="#0A57A4"/>
<path d="M30.6978 34.6508V27.2804C30.6978 19.7303 36.9896 13.4385 44.5398 13.4385C45.7981 13.4385 46.5172 13.6182 47.5958 13.798C49.2137 14.3373 50.472 15.5957 50.472 17.0338C50.472 18.8314 49.2137 20.0898 47.2363 20.0898C46.3374 20.0898 45.9779 19.91 44.5398 19.91C40.5849 19.91 37.3492 23.3256 37.3492 27.2804V33.5722C37.3492 34.2913 37.7087 34.6508 38.248 34.6508H43.1016C44.8993 34.6508 46.3374 36.0889 46.3374 37.8866C46.3374 39.6842 44.8993 41.1224 43.1016 41.1224H37.3492V48.4928C37.3492 56.2227 31.0574 62.3347 23.3274 62.3347C22.2488 62.3347 21.35 62.3347 20.2714 61.9752C18.8333 61.6156 17.575 60.3573 17.575 58.7394C17.575 56.9417 18.8333 55.6834 20.8107 55.6834C21.7096 55.6834 22.0691 55.8631 23.3274 55.8631C27.462 55.8631 30.6978 52.6274 30.6978 48.4928V42.201C30.6978 41.6617 30.3383 41.1224 29.6192 41.1224H24.9453C23.1477 41.1224 21.7096 39.6842 21.7096 37.8866C21.7096 36.0889 23.1477 34.6508 24.9453 34.6508H30.6978Z" fill="white"/>
</svg>
