<?xml version="1.0" encoding="UTF-8"?>
<!-- Generator: Adobe Illustrator 25.4.1, SVG Export Plug-In . SVG Version: 6.00 Build 0)  -->
<svg xmlns="http://www.w3.org/2000/svg" xmlns:xlink="http://www.w3.org/1999/xlink" version="1.1" id="Capa_1" x="0px" y="0px" viewBox="0 0 512 512" style="enable-background:new 0 0 512 512;" xml:space="preserve" width="512" height="512">
<g>
	<path style="fill:#E95420;" d="M512,255.993c0,141.39-114.605,256.005-255.995,256.005C114.617,511.999,0,397.383,0,255.993   C0,114.613,114.617,0.001,256.005,0.001C397.395,0.001,512,114.613,512,255.993z"/>
	<path style="fill:#FFFFFF;" d="M123.143,255.993c0,18.179-14.737,32.918-32.928,32.918c-18.169,0-32.906-14.739-32.906-32.918   c0-18.17,14.737-32.907,32.906-32.907C108.406,223.086,123.143,237.824,123.143,255.993z M310.4,416.036   c9.091,15.73,29.212,21.126,44.954,12.047c15.741-9.091,21.135-29.222,12.046-44.965c-9.089-15.741-29.212-21.124-44.953-12.035   C306.705,380.173,301.311,400.295,310.4,416.036z M367.4,128.879c9.089-15.744,3.706-35.872-12.046-44.951   c-15.732-9.089-35.863-3.695-44.954,12.041c-9.089,15.742-3.695,35.866,12.047,44.955   C338.188,150.015,358.321,144.62,367.4,128.879z M256.005,162.138c49.045,0,89.288,37.596,93.491,85.549l47.634-0.751   c-2.261-35.631-17.716-67.677-41.534-91.306c-12.608,4.865-27.236,4.202-39.857-3.09c-12.63-7.291-20.518-19.635-22.603-33.009   c-11.837-3.215-24.291-4.936-37.132-4.936c-22.526,0-43.817,5.267-62.724,14.636l23.176,41.621   C228.471,165.271,241.885,162.138,256.005,162.138z M162.139,255.993c0-31.748,15.775-59.824,39.912-76.801l-24.456-40.882   c-28.329,18.919-49.431,47.777-58.333,81.61c10.535,8.484,17.286,21.49,17.286,36.073c0,14.594-6.751,27.6-17.286,36.084   c8.902,33.833,30.005,62.69,58.333,81.62l24.456-40.882C177.915,315.828,162.139,287.763,162.139,255.993z M256.005,349.869   c-14.12,0-27.534-3.133-39.547-8.724l-23.176,41.621c18.907,9.377,40.198,14.638,62.724,14.638c12.841,0,25.294-1.709,37.132-4.93   c2.085-13.383,9.973-25.726,22.603-33.006c12.621-7.292,27.248-7.955,39.857-3.09c23.818-23.64,39.273-55.686,41.534-91.317   l-47.634-0.739C345.293,312.265,305.05,349.869,256.005,349.869z"/>
</g>















</svg>
